<?xml version="1.0" encoding="utf-8"?>
<!-- Generator: Adobe Illustrator 25.4.1, SVG Export Plug-In . SVG Version: 6.00 Build 0)  -->
<svg version="1.1" id="Layer_1" xmlns="http://www.w3.org/2000/svg" xmlns:xlink="http://www.w3.org/1999/xlink" x="0px" y="0px"
	 width="22px" height="22px" viewBox="0 0 22 22" style="enable-background:new 0 0 22 22;" xml:space="preserve">
<style type="text/css">
	.st0{fill:#000232;}
</style>
<path id="Vector" class="st0" d="M10.7,3.9L0.5,14.8c-0.2,0.2-0.2,0.5,0,0.6l2.7,2.7c0.1,0.1,0.2,0.1,0.3,0.1c0.1,0,0.2-0.1,0.3-0.1
	l7.2-7.8l7.2,7.8c0.1,0.1,0.2,0.1,0.3,0.1c0.1,0,0.2,0,0.3-0.1l2.7-2.7c0.1-0.1,0.1-0.2,0.1-0.3c0-0.1,0-0.2-0.1-0.3L11.3,3.9
	c-0.1-0.1-0.2-0.1-0.3-0.1C10.9,3.7,10.8,3.8,10.7,3.9z"/>
</svg>
