<svg width="120" height="120" viewBox="0 0 120 120" fill="none" xmlns="http://www.w3.org/2000/svg">
<path d="M118.205 74.5143C110.192 106.657 77.6358 126.219 45.4888 118.204C13.3553 110.19 -6.20637 77.6324 1.81058 45.4918C9.8205 13.3451 42.3763 -6.21803 74.5133 1.79541C106.658 9.80884 126.219 42.3702 118.204 74.5149L118.205 74.5143H118.205Z" fill="#F7931A"/>
<path fill-rule="evenodd" clip-rule="evenodd" d="M86.465 51.4507C87.6592 43.466 81.5802 39.1739 73.2676 36.3107L75.9643 25.4947L69.3803 23.8542L66.7552 34.3853C65.0243 33.9536 63.2467 33.5469 61.48 33.1436L64.1242 22.5429L57.5443 20.9023L54.8462 31.7148C53.4138 31.3887 52.007 31.0664 50.6421 30.7267L50.6497 30.6927L41.5702 28.4254L39.8188 35.4576C39.8188 35.4576 44.7036 36.5773 44.6006 36.6462C47.2668 37.3116 47.7489 39.0766 47.6689 40.4755L44.5971 52.7974C44.7807 52.844 45.0188 52.9115 45.2816 53.0171L45.0906 52.9694L45.0904 52.9694C44.928 52.9287 44.7591 52.8864 44.5857 52.8449L40.2801 70.1062C39.9543 70.9162 39.1272 72.1318 37.2632 71.6702C37.3292 71.7658 32.4778 70.476 32.4778 70.476L29.209 78.0126L37.777 80.1485C38.7152 80.3838 39.6423 80.6255 40.5601 80.8647L40.5619 80.8652C41.2027 81.0322 41.8389 81.1981 42.4712 81.3597L39.7466 92.2997L46.323 93.9403L49.0211 83.1164C50.8177 83.6041 52.5613 84.054 54.2681 84.4781L51.5791 95.251L58.1634 96.8915L60.8876 85.972C72.1148 88.0968 80.5567 87.2402 84.11 77.0852C86.9732 68.9093 83.9674 64.1935 78.0609 61.1182C82.3629 60.1261 85.6033 57.2965 86.4673 51.4516L86.4653 51.4501L86.465 51.4507ZM71.422 72.5448C69.5552 80.0459 57.8139 76.9447 52.4418 75.5259C51.9586 75.3982 51.5269 75.2842 51.1585 75.1927L54.774 60.6991C55.2229 60.8112 55.7714 60.9343 56.3929 61.0737L56.393 61.0738C61.9497 62.3208 73.3347 64.8758 71.4223 72.5448H71.422ZM57.5076 54.347C61.9863 55.5423 71.7567 58.1498 73.4582 51.3322H73.4588C75.1963 44.3595 65.7012 42.2573 61.0638 41.2306C60.5421 41.1151 60.0819 41.0132 59.706 40.9195L56.4281 54.0644C56.7376 54.1415 57.1007 54.2384 57.5076 54.347Z" fill="white"/>
</svg>
