<svg width="40" height="40" viewBox="0 0 40 40" fill="none" xmlns="http://www.w3.org/2000/svg">
<circle cx="20" cy="20" r="18.5" stroke="#000122" stroke-width="3"/>
<path d="M12.1161 26.1161C11.628 26.6043 11.628 27.3957 12.1161 27.8839C12.6043 28.372 13.3957 28.372 13.8839 27.8839L12.1161 26.1161ZM28.25 13C28.25 12.3096 27.6904 11.75 27 11.75L15.75 11.75C15.0596 11.75 14.5 12.3096 14.5 13C14.5 13.6904 15.0596 14.25 15.75 14.25H25.75V24.25C25.75 24.9404 26.3096 25.5 27 25.5C27.6904 25.5 28.25 24.9404 28.25 24.25L28.25 13ZM13.8839 27.8839L27.8839 13.8839L26.1161 12.1161L12.1161 26.1161L13.8839 27.8839Z" fill="black"/>
</svg>
