<svg width="28" height="28" viewBox="0 0 28 28" fill="none" xmlns="http://www.w3.org/2000/svg">
<g clip-path="url(#clip0_208_812)">
<path d="M0 0H28V28H0V0Z" fill="url(#paint0_linear_208_812)"/>
<path d="M20.2223 16.4847C19.9738 17.2014 19.6182 17.8764 19.1676 18.4867C18.7492 19.0513 18.4069 19.4418 18.1441 19.658C17.7365 20.0158 17.2978 20.1978 16.8296 20.2071C16.4921 20.2071 16.0861 20.1153 15.6132 19.9318C15.1982 19.7607 14.7552 19.6679 14.3065 19.658C13.8896 19.658 13.4416 19.7482 12.9625 19.9318C12.4818 20.1153 12.0945 20.2118 11.7989 20.2211C11.3509 20.2398 10.9014 20.0531 10.4549 19.658C10.1687 19.4231 9.8125 19.0171 9.38472 18.4447C8.90454 17.7938 8.52295 17.0757 8.25228 16.3135C7.94752 15.5025 7.78695 14.6444 7.77783 13.778C7.77783 12.84 7.9925 12.0295 8.42028 11.3513C8.75569 10.813 9.22149 10.368 9.77454 10.0575C10.3276 9.74697 10.95 9.58098 11.5843 9.57488C11.9421 9.57488 12.4103 9.68066 12.9921 9.88599C13.5723 10.0929 13.9441 10.1971 14.1074 10.1971C14.2303 10.1971 14.6441 10.0742 15.3456 9.82999C16.0083 9.60443 16.5698 9.5111 17.0287 9.54688C18.2716 9.64332 19.2049 10.1069 19.8256 10.9438C18.7149 11.5815 18.1643 12.476 18.1752 13.6224C18.1861 14.5153 18.5267 15.2604 19.1987 15.85C19.5036 16.1238 19.8443 16.3353 20.2223 16.4862V16.4847ZM17.0956 6.22266C17.1049 6.31599 17.1112 6.40932 17.1112 6.50266C17.1112 7.20266 16.8405 7.85599 16.3023 8.46266C15.6536 9.18132 14.8681 9.59821 14.0156 9.53132C14.0048 9.4436 13.9996 9.35527 14.0001 9.26688C14.0001 8.59332 14.3081 7.87466 14.8556 7.28666C15.1294 6.98799 15.4778 6.74221 15.8994 6.5431C16.2739 6.36063 16.68 6.25184 17.0956 6.22266Z" fill="white"/>
</g>
<defs>
<linearGradient id="paint0_linear_208_812" x1="5.20956" y1="4.85644" x2="34.0729" y2="38.0084" gradientUnits="userSpaceOnUse">
<stop stop-color="#1A1E21"/>
<stop offset="1" stop-color="#06060A"/>
</linearGradient>
<clipPath id="clip0_208_812">
<rect width="28" height="28" fill="white"/>
</clipPath>
</defs>
</svg>
