<svg width="32" height="32" viewBox="0 0 32 32" fill="none" xmlns="http://www.w3.org/2000/svg">
<g clip-path="url(#clip0_263_7972)">
<path d="M0 0H32V32H0V0Z" fill="#0090BA"/>
<path fill-rule="evenodd" clip-rule="evenodd" d="M20.1674 9.14258H24L20.44 18.9694C20.3925 19.1017 20.3053 19.2161 20.1903 19.297C20.0754 19.3779 19.9383 19.4214 19.7977 19.4214H16.0343V19.4157C16.2989 19.3889 16.52 19.2117 16.6069 18.9694L20.1674 9.14258ZM15.728 19.2711C15.6018 19.271 15.4785 19.2339 15.3732 19.1645C15.2679 19.095 15.1852 18.9962 15.1354 18.8803L14.3686 16.766L15.6743 13.162C15.696 13.0963 15.7469 13.0191 15.7589 13.002C15.8253 12.9076 15.9159 12.8328 16.0212 12.7854C16.1264 12.738 16.2425 12.7198 16.3572 12.7326C16.4719 12.7455 16.5811 12.7889 16.6733 12.8584C16.7654 12.9279 16.8372 13.021 16.8811 13.1277L17.6451 15.2329L16.3389 18.8386C16.3091 18.9209 16.2663 18.9814 16.2543 18.9986C16.1371 19.1632 15.9451 19.2711 15.728 19.2711ZM16.0069 12.5786V12.5809C15.724 12.5923 15.4846 12.7752 15.3931 13.0306L11.8331 22.8569H8L11.56 13.0306C11.6554 12.7666 11.9069 12.5786 12.2023 12.5786H16.0069Z" fill="white"/>
</g>
<defs>
<clipPath id="clip0_263_7972">
<rect width="32" height="32" rx="16" fill="white"/>
</clipPath>
</defs>
</svg>
