<svg width="31" height="31" viewBox="0 0 31 31" fill="none" xmlns="http://www.w3.org/2000/svg">
<g clip-path="url(#clip0_208_7773)">
<path d="M0 0H31V31H0V0Z" fill="#D69A00"/>
<path d="M11.7623 11.9331H19.3928L18.2801 8.94766C18.2368 8.82517 18.1578 8.71851 18.0531 8.64153L11.7623 11.9331ZM11.7413 8.38966C12.0114 7.66337 12.606 7.19727 13.2614 7.19727H17.7736C18.429 7.19727 19.0235 7.66337 19.2942 8.38966L20.4063 11.3751C20.7402 12.2707 20.201 13.2866 19.3928 13.2866H11.6428C10.8345 13.2866 10.2959 12.2707 10.6292 11.3751L11.7418 8.38966H11.7413ZM5.66585 19.6831H13.2813L12.1687 16.6977C12.1254 16.5752 12.0463 16.4685 11.9417 16.3915L5.66585 19.6831ZM5.64426 16.1397C5.91496 15.4134 6.51004 14.9473 7.16492 14.9473H11.6621C12.3176 14.9473 12.9127 15.4134 13.1828 16.1397L14.2949 19.1251C14.6287 20.0207 14.0901 21.0366 13.2813 21.0366H5.54517C4.73696 21.0366 4.19833 20.0207 4.53213 19.1251L5.64426 16.1397ZM25.5119 19.6831H17.845L24.1723 16.3921C24.2714 16.4618 24.3511 16.567 24.4009 16.6982L25.5125 19.6831H25.5119ZM19.3446 14.9473C18.6892 14.9473 18.0941 15.4134 17.8239 16.1397L16.7118 19.1251C16.378 20.0207 16.9166 21.0366 17.7254 21.0366H25.5125C26.3207 21.0366 26.8593 20.0207 26.5255 19.1251L25.4128 16.1397C25.1444 15.4134 24.5498 14.9473 23.8944 14.9473H19.3446Z" fill="white"/>
</g>
<defs>
<clipPath id="clip0_208_7773">
<rect width="31" height="31" rx="15.5" fill="white"/>
</clipPath>
</defs>
</svg>
