<svg width="29" height="29" viewBox="0 0 29 29" fill="none" xmlns="http://www.w3.org/2000/svg">
<g clip-path="url(#clip0_208_7746)">
<path d="M0 0H29V29H0V0Z" fill="#F7931A"/>
<path d="M20.6814 12.7926C20.9481 10.9832 19.5784 10.0184 17.6918 9.36333L18.3029 6.92526L16.813 6.55447L16.2185 8.93247L15.0295 8.64817L15.6323 6.25308L14.1419 5.88281L13.5304 8.32969L12.5827 8.10546V8.09717L10.5237 7.57983L10.127 9.17379C10.127 9.17379 11.23 9.43272 11.2124 9.44101C11.8157 9.59637 11.9193 9.99253 11.9022 10.3027L11.2124 13.094L11.3678 13.1458L11.2041 13.1111L10.2306 17.0142C10.1617 17.1954 9.97164 17.4709 9.5501 17.3585C9.56719 17.3844 8.47296 17.1001 8.47296 17.1001L7.73242 18.7977L9.67076 19.2798L10.7303 19.5558L10.1099 22.0286L11.6003 22.3988L12.2036 19.952L13.4009 20.2622L12.7898 22.7002L14.2797 23.071L14.8913 20.5982C17.4329 21.0804 19.3459 20.8914 20.1475 18.5905C20.7933 16.7387 20.1128 15.6786 18.7773 14.9722C19.7508 14.7568 20.4831 14.1105 20.6726 12.7921H20.6814V12.7926ZM17.2781 17.5657C16.8213 19.418 13.7028 18.4098 12.695 18.1685L13.5133 14.8863C14.521 15.1447 17.7607 15.6356 17.2781 17.5569V17.5657ZM17.7348 12.7667C17.3211 14.4466 14.7194 13.5937 13.8835 13.3871L14.6241 10.4146C15.4687 10.6217 18.174 11.0179 17.7348 12.7667Z" fill="white"/>
</g>
<defs>
<clipPath id="clip0_208_7746">
<rect width="29" height="29" rx="14.5" fill="white"/>
</clipPath>
</defs>
</svg>
