<svg width="120" height="120" viewBox="0 0 120 120" fill="none" xmlns="http://www.w3.org/2000/svg">
<path d="M59.9614 120C93.1101 120 119.961 93.1487 119.961 60C119.961 26.8513 93.1101 0 59.9614 0C26.8126 0 0 26.8513 0 60C0 93.1487 26.8513 120 59.9614 120Z" fill="#008CE3"/>
<path d="M69.1174 33.7285H45.5501L43.6184 44.6236L64.8676 44.6622C75.3377 44.6622 78.4284 48.4484 78.3512 54.7459C78.3125 57.9912 76.9217 63.4388 76.3035 65.216C74.6809 69.9294 71.3969 75.3383 58.9565 75.2997H38.2868L36.3164 86.2333H59.8064C68.0743 86.2333 71.6287 85.2675 75.3377 83.5289C83.6055 79.704 88.5508 71.5521 90.5212 60.8889C93.4961 45.0099 89.8257 33.7285 69.1174 33.7285Z" fill="white"/>
<path d="M35.4277 54.5137C29.2461 54.5137 28.3575 58.5317 27.7779 60.9657C27.0052 64.1338 26.7734 65.4473 26.7734 65.4473H50.8816C57.0632 65.4473 57.9518 61.4293 58.5313 58.9953C59.304 55.8273 59.5358 54.5137 59.5358 54.5137H35.4277Z" fill="white"/>
</svg>
