<svg width="120" height="120" viewBox="0 0 120 120" fill="none" xmlns="http://www.w3.org/2000/svg">
<circle cx="60" cy="60" r="60" fill="#988430"/>
<circle cx="60" cy="60" r="58.0781" fill="#7A6A2A"/>
<circle cx="60.0009" cy="60.0009" r="56.8544" fill="#BA9F33"/>
<path fill-rule="evenodd" clip-rule="evenodd" d="M26.2322 53.5914C25.8924 53.281 25.5333 52.9699 25.2031 52.6595C24.8728 52.3491 24.5336 52.0381 24.1938 51.7277L23.1839 50.7677C23.0188 50.6026 22.844 50.4573 22.6789 50.2915C22.5138 50.1463 22.3199 49.9811 22.1548 49.8352C20.8146 48.5635 19.4668 47.2919 18.1452 46.0195C19.5141 47.272 20.8543 48.5155 22.2232 49.7866L22.6988 50.2627C22.8639 50.4272 23.0386 50.5731 23.2037 50.7383L24.213 51.6701C24.5528 51.9805 24.8831 52.2915 25.2229 52.6301C25.5628 52.9687 25.893 53.2803 26.2328 53.5901L26.2322 53.5914ZM8.44595 53.3994C8.44595 53.3994 13.3196 53.9037 15.6984 54.2435C17.902 54.5546 24.7954 55.6125 24.7954 55.6125L8.44595 53.3994ZM8.44595 53.3994C9.81491 53.5159 11.1839 53.6611 12.5528 53.8071C13.2517 53.8749 13.9218 53.9523 14.5919 54.0202L15.6204 54.1373C15.9602 54.1853 16.2904 54.2339 16.6303 54.2826L20.7084 54.9328L22.7468 55.2727C23.4168 55.3891 24.0869 55.5159 24.7858 55.6323C24.1157 55.5645 23.4168 55.4672 22.7468 55.3699L20.7084 55.0787L16.6303 54.4771C16.2904 54.4285 15.9602 54.36 15.6204 54.312L14.5912 54.1936C13.9212 54.1258 13.2223 54.0285 12.5522 53.9504C11.1832 53.7859 9.81427 53.6106 8.44531 53.3975L8.44595 53.3994ZM24.3103 56.8823C24.3103 56.8823 19.1064 58.2032 17.349 58.7082C15.621 59.1837 10.3877 60.776 10.3877 60.776L24.3096 56.8829L24.3103 56.8823Z" fill="#CFB66C"/>
<path fill-rule="evenodd" clip-rule="evenodd" d="M24.3106 56.8828C23.1554 57.2227 22.0066 57.5529 20.8348 57.8639L17.3589 58.7958C16.2037 59.1356 15.0549 59.4659 13.9029 59.8057L12.1749 60.2812C11.6021 60.4463 11.0197 60.5916 10.4277 60.7574C10.9999 60.5654 11.5829 60.3689 12.1557 60.2038L13.8837 59.6508C15.0389 59.2911 16.1877 58.9513 17.3397 58.5923C18.5141 58.3011 19.67 57.99 20.8444 57.7084C21.9605 57.4268 23.1356 57.1459 24.3106 56.8835V56.8828ZM11.117 63.9804C11.6892 63.7667 18.2914 60.6895 19.8255 59.9708C20.5935 59.6111 22.8258 58.8188 22.8258 58.8188L11.117 63.9804Z" fill="#CFB66C"/>
<path fill-rule="evenodd" clip-rule="evenodd" d="M11.1159 63.9816C11.6202 63.7896 12.0964 63.5547 12.5815 63.3313L14.0183 62.6612L16.9021 61.2731C17.8621 60.8168 18.7952 60.3131 19.7853 59.8843C20.2903 59.6712 20.7952 59.4964 21.2996 59.3313L22.0676 59.0888C22.3293 59.0209 22.5725 58.9428 22.8356 58.875C21.8756 59.3313 20.865 59.7198 19.9037 60.1659C18.9437 60.642 17.962 61.0305 16.9712 61.4574L14.0394 62.7483C13.0551 63.147 12.0951 63.5739 11.1152 63.9816H11.1159ZM11.7559 66.6696C11.7559 66.6696 17.736 63.1649 19.7943 62.0385C20.872 61.4369 24.3575 59.7083 24.3575 59.7083L11.7559 66.6696Z" fill="#CFB66C"/>
<path fill-rule="evenodd" clip-rule="evenodd" d="M11.7578 66.6699C12.7671 66.0485 13.7962 65.4175 14.8253 64.7768L16.3613 63.8443C16.8855 63.5339 17.3905 63.2427 17.9249 62.9323C18.449 62.6213 18.954 62.3109 19.4877 62.0197C19.7418 61.8628 20.0081 61.7265 20.2839 61.612L21.0993 61.2043C22.177 60.6802 23.2548 60.1458 24.3908 59.6895C23.3617 60.3403 22.3031 60.8939 21.2452 61.4661C20.721 61.7573 20.1866 62.0197 19.6625 62.3109C19.1383 62.6021 18.6333 62.9131 18.0989 63.1947C17.5748 63.5051 17.0698 63.7963 16.5361 64.0779L14.9533 64.9419L11.7591 66.6699H11.7578ZM24.3108 60.4754C24.3108 60.4754 20.5924 63.3298 19.3885 64.2424C18.1847 65.1551 14.641 67.7183 14.641 67.7183L24.3108 60.4754Z" fill="#CFB66C"/>
<path fill-rule="evenodd" clip-rule="evenodd" d="M45.6508 83.4949L43.748 79.893L44.8546 75.388L52.7477 72.3397L49.3884 65.4469L51.0485 58.4856L54.1653 52.252L63.7967 50.7378L70.8738 43.9902L86.1557 45.1454L89.1554 61.4853L83.3788 82.0581L80.0879 92.709L66.7477 93.2139L60.5538 88.9227L53.3013 85.893L45.6508 83.4949Z" fill="#E2CC85"/>
<path fill-rule="evenodd" clip-rule="evenodd" d="M69.0481 83.3789C69.0481 83.3789 67.2029 84.2237 64.0561 84.0292C63.1453 82.8061 56.7671 82.2333 56.7671 82.2333C56.7671 82.2333 55.9709 81.9908 54.5629 82.5732C53.146 83.1492 51.8058 83.0781 50.5533 83.3885C49.3009 83.6989 48.0573 82.0682 47.0973 81.7284C46.1373 81.3693 44.8644 80.5053 44.8644 80.5053L42.1764 80.2429L36.7786 77.9613L28.2033 69.418L25.873 73.066L25.1543 77.5805L27.7469 82.9303L34.7274 89.2893L48.3389 92.7453L56.4068 90.3684L66.5137 86.0964L69.0481 83.3783V83.3789Z" fill="#F1D789"/>
<path fill-rule="evenodd" clip-rule="evenodd" d="M20.6898 53.185L22.4178 47.9523L24.4767 44.5731L31.1071 44.0195L29.1167 49.8256L23.5737 59.6899L25.8745 68.4957L21.797 70.5341L20.5439 68.6122L19.5346 64.2045L19.4668 59.2528L20.6898 53.185Z" fill="#F4ECB4"/>
<path fill-rule="evenodd" clip-rule="evenodd" d="M28.1256 83.019L26.854 81.2423C26.854 81.2423 26.5141 80.3975 26.7087 79.6596C26.9007 78.9121 26.8732 78.8635 26.7765 78.5819C26.6799 78.3003 25.8639 77.3294 25.9125 76.4942C25.9605 75.6494 25.8447 75.3678 26.4655 74.6983C27.1157 74.0481 26.9218 72.9217 26.9218 72.9217L27.7666 73.4459L27.9586 73.1547C27.9586 73.1547 28.269 73.3972 28.269 73.7761C28.3368 73.2519 28.0552 70.8244 28.6959 70.2715C29.3365 69.7185 30.4725 72.8635 30.4725 72.8635L29.7736 68.3003L27.9772 63.6212L24.7829 59.3492L24.5909 54.6401V54.2324C24.5909 54.2324 23.1247 56.4852 22.717 58.2644C22.4258 59.4875 23.1247 60.9729 22.9794 62.7303C22.8623 64.4782 22.717 64.3419 23.1439 65.0343C23.5708 65.7268 24.6101 67.1508 24.2024 68.1799C23.8434 69.0638 22.6197 68.4423 22.6197 68.4423C22.6197 68.4423 22.3772 69.1604 22.0469 69.4228C21.9304 68.9959 21.8044 68.7239 21.5714 68.4628C21.5516 68.6279 21.5036 68.8513 21.5036 68.8513C21.5036 68.8513 21.2898 68.1812 21.076 67.3364C20.7855 66.2107 20.4744 64.7252 20.1928 63.9291C20.0764 64.3854 19.7852 65.7735 19.7852 65.7735L19.9503 67.9099L20.7464 70.8417L21.5144 72.7617L22.262 75.1111L22.9116 76.6894L23.4357 77.8932L23.892 80.6023L26.0956 82.9319L27.2706 83.4567L28.1244 83.0196L28.1256 83.019Z" fill="#F3E19D"/>
<path fill-rule="evenodd" clip-rule="evenodd" d="M21.8453 48.9119C21.8453 48.9119 20.2626 51.5999 19.8069 54.3097C19.3512 57.0195 18.9429 59.8828 19.2309 63.5718C19.5221 67.2908 20.0757 69.5718 20.5224 71.2031C21.2904 73.9123 23.2795 77.6793 23.2795 77.6793L23.3474 77.5334C23.013 76.8996 22.7462 76.2325 22.5512 75.543C22.2888 74.5139 22.1915 73.2908 21.949 72.7372C21.7352 72.1843 21.3762 71.7081 21.2014 71.0284C21.0363 70.3782 21.0094 69.3491 20.5026 68.5823C20.2888 68.2713 20.0264 67.4559 19.949 66.6406C19.8517 65.4169 19.9976 64.0479 19.8811 62.9222C19.6674 61.0483 19.5221 59.7766 19.716 58.7955C19.9099 57.8143 20.9205 55.0291 21.5419 52.8153C21.9496 51.3977 21.7064 50.2035 22.4539 48.9702C23.2014 47.7471 23.6584 46.6694 23.8229 45.9219C24.0149 45.2422 21.8427 48.9119 21.8427 48.9119H21.8453Z" fill="#F2E8B0"/>
<path fill-rule="evenodd" clip-rule="evenodd" d="M29.3503 47.834C29.3503 47.834 28.5349 48.0772 28.1465 48.5041C27.758 48.9117 27.5929 49.2516 27.0687 49.9409C26.5445 50.6301 26.5151 51.1933 26.0876 52.0573C25.6607 52.9021 24.7186 54.1738 24.6021 54.6301C24.4857 55.0865 24.2917 57.2221 24.0492 58.2321C23.8354 59.242 24.2917 60.4849 24.2917 60.4849L24.8447 60.3677C24.8447 60.3677 24.8447 61.0865 25.3983 61.5722C25.9513 62.0477 26.0485 59.9601 26.0485 59.9601L28.1164 52.9796L31.2325 50.8631L31.5724 49.1543L29.349 47.834H29.3503Z" fill="#F5EEC0"/>
<path fill-rule="evenodd" clip-rule="evenodd" d="M30.8642 51.0005C30.8642 51.0005 29.398 51.0972 28.6799 51.622C28.3887 51.8351 28.2722 52.0098 27.9618 52.2722C27.389 52.7477 26.806 53.1849 26.525 53.8082C26.214 54.429 25.8742 55.3711 25.6412 57.1477C25.5439 57.8953 25.5439 58.5845 25.4761 59.1868C25.3788 60.0021 25.2335 60.6524 25.311 61.1068C25.4082 62.0386 26.3695 62.5244 26.463 63.5823L28.4534 62.573L30.3273 55.1842L34.3081 52.6882L32.0553 50.1641L30.8617 50.9961L30.8642 51.0005Z" fill="#E6DB9D"/>
<path fill-rule="evenodd" clip-rule="evenodd" d="M20.3639 100.754C20.3722 100.681 20.3806 100.608 20.3889 100.533C20.6794 98.0374 20.7287 96.1456 20.9418 94.9609C21.2522 93.2816 21.466 92.6569 21.4174 92.0284C21.3495 91.0192 21.2721 90.2812 21.3694 89.5043C21.5146 88.4752 22.5246 87.2521 22.4958 86.4073C22.4759 85.7372 22.1361 85.3008 21.8449 84.8931C21.5537 84.4854 21.3207 84.1456 21.3207 84.1456C21.3207 84.1456 23.3111 82.7766 23.2919 77.2617C23.3326 77.2732 23.3717 77.2895 23.4084 77.3104L24.3889 80.0963L25.059 80.9116L27.6318 85.7078L30.9425 88.9219L35.8353 92.2128L38.9034 95.5516L39.2138 104.455L35.2042 109.659L34.5476 110.848C29.3308 108.229 24.5469 104.824 20.3633 100.754L20.3639 100.754Z" fill="#E5CB7A"/>
<path fill-rule="evenodd" clip-rule="evenodd" d="M32.6113 109.271C32.6113 109.271 32.6792 108.164 33.5918 107.445C33.7377 107.688 33.8344 107.922 33.8056 108.096C33.9707 107.805 35.1259 105.941 37.7377 105.455C40.3496 104.98 40.9806 103.077 40.9806 103.077L46.5236 98.0381L52.8635 92.2032L60.5723 89.4941L64.1748 88.6103C64.1748 88.6103 64.2427 88.8727 64.107 89.4551C64.7764 89.4071 66.2619 89.0672 67.8056 88.5232C68.427 88.2807 69.01 88.1834 69.3204 88.504C69.7768 88.9309 69.8446 89.9408 69.8734 90.5424C70.6209 90.3773 71.4849 89.6592 72.1774 89.7271C73.2846 89.8435 74.2651 91.1447 75.3915 91.1447C76.8769 91.1447 77.5464 90.232 78.5857 89.5133C79.2072 89.0864 80.1 88.5533 80.6049 88.193C81.8088 87.3091 94.5467 83.416 94.5467 83.416L99.0126 83.7072L99.7313 88.5034L99.3473 101.041C99.3 101.086 99.2526 101.134 99.2046 101.179L78.8987 111.785L50.7515 116.1C44.4464 115.069 38.3619 112.977 32.7572 109.91L32.6132 109.27L32.6113 109.271Z" fill="#D8C173"/>
<path fill-rule="evenodd" clip-rule="evenodd" d="M22.0703 102.349C22.4703 101.512 22.83 100.813 22.8934 100.562C22.9433 101.067 23.0348 102.173 23.2191 103.35C22.8321 103.021 22.4492 102.687 22.0703 102.348V102.349Z" fill="#F1D789"/>
<path fill-rule="evenodd" clip-rule="evenodd" d="M42.6314 114.149L46.2718 113.137L46.5822 113.234C46.5822 113.234 46.7473 113.332 46.7473 113.661C47.2036 113.399 47.5921 113.447 47.8737 113.273C48.019 113.584 48.1642 114.613 48.8055 114.739C49.475 114.885 50.1937 114.448 50.922 113.895C51.6401 113.322 52.458 112.603 53.0769 112.312C53.3039 112.73 53.5051 113.161 53.6791 113.603C54.4945 112.953 55.9121 110.312 57.9313 110.36C58.5149 108.981 59.4899 107.803 60.7358 106.972C62.6097 105.7 63.7841 105.603 65.2503 105.719C65.8327 104.963 66.5503 104.321 67.3668 103.826C67.6094 103.924 68.2794 104.331 69.1146 103.943C69.9594 103.555 70.9105 102.05 72.163 101.856C72.8379 101.763 73.5241 101.907 74.1047 102.263C74.1047 102.263 77.7527 98.6416 80.2698 97.4378C80.1726 97.1466 79.9786 96.0496 82.9297 93.6221C83.0948 93.768 82.9783 94.1757 83.0948 94.1981C83.1428 94.1981 83.8628 93.8877 84.7742 93.1882C85.9006 92.344 87.2497 91.4602 88.065 91.2176C89.601 90.7613 91.2305 91.6931 91.2305 91.6931C91.369 91.5959 91.5234 91.5236 91.6868 91.4794C92.0746 91.4115 92.3562 91.3629 92.57 91.2874C92.5508 91.7923 92.8324 92.6563 92.57 93.4038C92.874 93.5748 93.1959 93.7115 93.53 93.8115C93.3655 94.1706 93.0058 95.0832 92.4042 95.5203C92.9086 95.7629 92.9764 96.0445 93.6951 96.2883C93.4039 96.696 92.9271 97.3955 92.7146 97.8243C92.5009 98.2806 91.7335 100.174 91.3937 100.892C91.0346 101.611 90.5495 102.931 90.3159 103.196C90.0823 103.461 89.2382 104.584 88.5879 105.137C89.1639 104.923 91.5204 104.205 92.5201 103.933C92.2225 104.37 90.714 106.608 89.2638 108.76C75.2168 117.179 58.226 119.146 42.627 114.159L42.6314 114.149Z" fill="#E0CD81"/>
<path fill-rule="evenodd" clip-rule="evenodd" d="M31.1036 50.7378C31.1036 50.7378 30.2594 50.7378 30.0943 50.8542C29.9292 50.9707 30.9391 51.2139 31.2495 51.3304C31.5599 51.4469 32.23 51.9806 32.4047 52.4082C32.5698 52.8158 38.4725 55.1941 38.4725 55.1941L42.6472 54.9803L44.0866 52.9918L41.3487 50.5938L43.2687 44.9336L40.7253 45.3413L34.6088 48.9893L31.5407 50.1643L31.1036 50.7378Z" fill="#DFC57C"/>
<path fill-rule="evenodd" clip-rule="evenodd" d="M40.2726 52.6125C40.3954 52.8114 40.6149 52.9297 40.8486 52.9229C41.7126 52.9229 42.5081 53.1367 42.8383 53.5731C43.3919 54.2727 44.926 56.5056 44.926 56.5056L48.5958 57.826L48.8326 53.5047L44.823 50.7188L40.2598 52.3981V52.6119H40.27L40.2726 52.6125Z" fill="#E5CC7C"/>
<path fill-rule="evenodd" clip-rule="evenodd" d="M39.5511 54.214C39.5511 54.214 40.2205 54.2626 41.0653 53.9516C41.9101 53.6405 43.2983 52.9711 43.9005 53.2335C44.7447 53.5925 44.57 54.7189 45.4832 55.7295C46.0362 56.3509 47.0461 56.3317 47.6189 57.0018C48.1917 57.6719 50.1623 57.3609 50.1623 57.3609L50.9098 61.3929L47.9101 65.238L46.929 70.0143H42.8727L39.1671 68.5442L37.3418 64.1282L38.2544 59.6623L39.5511 54.214Z" fill="#D2C281"/>
<path fill-rule="evenodd" clip-rule="evenodd" d="M47.3992 54.4079C47.4998 54.4389 47.6043 54.4552 47.7096 54.4565C47.5931 54.5538 47.3499 54.7669 47.4472 55.3205C47.5445 55.8741 47.8549 56.573 47.5931 56.9999C47.8021 57.2283 47.9579 57.5002 48.0494 57.796C48.2146 58.2722 48.2632 58.7087 49.3403 58.7771C49.1849 58.8728 49.0415 58.9869 48.9134 59.117C48.9134 59.117 49.661 59.7672 50.0398 60.3688C50.4277 60.3522 51.4568 60.0322 51.4568 60.0322L51.6706 60.1781L52.1269 59.9861C52.1269 59.9861 51.7 59.821 52.0104 58.7823C52.3016 57.8696 52.564 57.9183 52.5864 57.8504C52.6088 57.7826 52.8002 56.8213 52.8002 56.4328C52.9454 55.9285 53.0619 54.3944 53.0619 54.3944L52.7515 51.0063L51.0043 49.9477L49.5835 48.5762L48.2434 51.1003L47.3608 51.9803L47.293 54.1647L47.3992 54.4079Z" fill="#E2C270"/>
<path fill-rule="evenodd" clip-rule="evenodd" d="M51.6016 51.5735C51.6016 51.5735 51.912 52.4567 52.0291 53.1364C52.0704 53.0043 52.0932 52.8671 52.0969 52.7287C52.0969 52.7287 52.3395 54.0689 52.3875 54.6225C52.4848 54.6027 52.5795 54.5739 52.6012 54.6705C52.623 54.7671 52.8444 55.8455 52.7932 56.4471C53.1975 55.7802 53.757 55.2207 54.424 54.8164C54.8124 54.5732 55.2688 54.3115 55.7449 54.2916C56.4924 54.2724 57.0358 54.7678 57.9292 54.7678C60.0841 54.7678 62.0361 53.1851 63.4729 52.6999C64.5308 52.3403 65.4435 52.0785 66.0841 51.4955C66.3952 51.2337 66.9488 50.6513 67.4531 49.7867C68.1232 48.6347 68.822 47.6318 69.5216 47.5057C69.2051 47.5639 68.8831 47.5866 68.5616 47.5735C68.5616 47.5735 68.7753 47.3598 69.1376 47.0686C69.4998 46.7774 69.9337 46.4183 70.5545 46.4183C71.6617 46.4183 72.2147 46.5828 72.8361 46.5828C73.4576 46.5636 73.8166 46.4183 73.8166 46.4183C73.8166 46.4183 74.4675 46.8747 75.9331 46.8747C77.3993 46.8939 78.3798 47.0199 79.1472 47.0884C79.9145 47.1569 82.4867 46.8747 83.2246 46.8964C83.7057 46.915 84.1781 47.0306 84.6134 47.2363L82.2345 40.3243L73.6892 32.8555L68.6019 36.4574L60.776 44.2827L53.2035 47.0884L51.6208 48.8651V51.5735H51.6016Z" fill="#CCB360"/>
<path fill-rule="evenodd" clip-rule="evenodd" d="M68.593 47.6117C68.593 47.6117 68.8068 47.3985 69.1652 47.1073C69.5236 46.8161 69.962 46.4565 70.5828 46.4565C71.6894 46.4565 72.243 46.6216 72.8644 46.6216C73.4858 46.6024 73.8449 46.4565 73.8449 46.4565C73.8449 46.4565 74.4964 46.9121 75.9614 46.9121C77.4276 46.9313 78.4081 47.0574 79.1754 47.1253C79.9428 47.1931 82.5149 46.9121 83.2529 46.9333C83.7338 46.9514 84.2061 47.067 84.641 47.2731L83.5633 44.1563L82.3114 41.7781L78.7383 37.8651C78.7383 37.8651 74.4503 35.3409 74.4177 35.3217C74.3985 35.3025 72.9322 34.9141 72.9322 34.9141L69.0487 37.2635L65.5249 46.3803L65.457 48.3003L67.738 49.3781C68.3108 48.4181 68.9425 47.6501 69.5345 47.5528C69.0001 47.611 68.5924 47.611 68.5924 47.611L68.593 47.6117Z" fill="#D5B457"/>
<path fill-rule="evenodd" clip-rule="evenodd" d="M68.5433 48.2619C68.2035 48.2811 67.9225 48.2132 67.8445 47.9707C67.5533 47.1553 67.3203 47.0388 67.0765 47.0388C66.8326 47.0388 66.5037 47.563 66.3085 47.611C66.1133 47.659 65.8816 47.0094 65.8816 47.0094L65.6678 46.9121C65.6678 46.9121 64.4153 47.7275 63.5321 48.6887C62.6489 49.65 61.2019 51.2814 60.5517 51.5719C59.9014 51.8625 57.6678 51.9604 56.9037 52.1255C56.1395 52.2907 55.2921 52.8443 55.1757 52.9703C55.0592 53.0964 55.5161 53.2321 55.584 53.3582C55.6518 53.4747 54.8358 53.426 54.768 53.5502C54.72 53.6475 54.96 54.2004 55.079 54.482C55.2873 54.3785 55.5159 54.3221 55.7485 54.3169C56.496 54.2977 57.04 54.7931 57.9328 54.7931C60.0883 54.7931 62.0397 53.2103 63.4765 52.7246C64.535 52.3655 65.4477 52.1031 66.0883 51.5207C66.3987 51.259 66.9523 50.6759 67.4573 49.8119C67.8259 49.2199 68.1856 48.6663 68.5453 48.2587L68.5433 48.2619Z" fill="#D2B257"/>
<path fill-rule="evenodd" clip-rule="evenodd" d="M37.6316 96.3117C37.6316 96.3117 37.4396 95.593 35.6604 93.7389C35.1555 93.2148 34.8451 92.7789 34.5052 92.4672C33.6604 91.6704 33.1651 91.4573 32.5635 91.001C31.2432 90.0205 29.8064 90.0205 28.6998 88.8167C27.5933 87.6128 26.3036 85.3127 25.4076 82.962C24.5245 80.6125 24.2812 79.865 24.2812 79.7972C24.2812 79.7293 24.5245 79.273 24.8349 79.3408C25.1453 79.4087 25.1453 80.0103 25.2233 80.1562C25.378 80.3944 25.5534 80.6184 25.7475 80.8256C26.2038 81.3504 26.854 81.9776 27.1843 82.9133C27.1164 82.1172 26.8444 81.234 26.8444 81.234C26.8444 81.234 28.5533 82.3117 30.0093 83.4375C31.4755 84.5639 32.0771 84.9524 32.5052 85.6704C32.9334 86.3885 33.942 88.2823 34.4253 88.8359C34.9085 89.3895 41.5292 91.4765 41.5292 91.4765L44.6787 93.8247L46.2422 97.2519L45.0185 99.1719L42.6691 99.6768L38.8534 97.968L37.6316 96.3111V96.3117Z" fill="#D2B159"/>
<path fill-rule="evenodd" clip-rule="evenodd" d="M29.1543 84.5043C29.1543 84.5043 29.9505 85.776 31.8922 86.9798C33.6401 88.0384 36.4068 88.9996 38.8733 89.5724C40.2903 89.9123 41.7079 90.174 42.9796 90.1939C46.4068 90.2419 48.7658 89.262 51.6887 88.9414C53.2714 88.7763 55.2132 88.6502 57.2324 88.1734C59.8244 87.552 61.3585 86.8524 63.4461 85.8694C64.9604 85.1705 66.3492 84.6464 67.4749 83.9763C69.0577 83.0444 70.2129 82.0057 71.553 81.6953C71.3879 82.1516 71.2132 82.967 69.8929 83.8118C70.5917 83.792 71.553 83.744 71.553 83.744C71.553 83.744 70.6212 84.2969 68.9802 85.5398C67.9703 86.3078 66.6308 87.6076 65.2618 88.4716C64.378 89.0252 63.4167 89.4316 62.7857 89.7632C61.2497 90.608 60.6301 91.0348 59.6209 92.0672C59.9799 92.048 60.0093 92.0672 60.0093 92.0672C60.0093 92.0672 58.737 92.2323 57.825 92.7174C57.633 92.7174 57.3002 92.6496 56.7178 92.8147C56.2615 92.96 55.6593 93.2908 55.0385 93.4649C54.1546 93.7273 53.8641 93.6108 53.8641 93.6108L54.0093 93.902C54.0093 93.902 52.8573 93.8822 52.4733 93.9212C52.5412 93.9404 52.522 93.9699 52.522 93.9699C52.4545 93.9812 52.3896 94.0041 52.33 94.0377C52.1452 94.1574 51.9419 94.2459 51.7284 94.2995C51.6119 94.3187 51.5146 94.3187 51.3687 94.3481C51.4173 94.4646 51.7962 95.1161 51.9709 95.5001C51.8257 95.5974 49.6407 97.248 49.6407 97.248C49.7085 97.3546 49.7639 97.4686 49.8058 97.5878C49.8737 97.8009 49.9031 98.112 49.9709 98.2572C50.1354 98.5484 50.2327 98.5971 50.2327 98.5971C50.2327 98.5971 49.9709 98.6457 49.514 98.7622C49.1261 98.8595 48.65 99.024 47.978 99.1212C47.7718 99.148 47.5644 99.1643 47.3565 99.1699C47.4538 99.3836 47.8807 100.199 47.0941 101.14C46.3076 102.082 46.065 102.219 45.8225 102.82C45.7004 102.728 45.5704 102.647 45.434 102.577C45.1722 102.461 44.8125 102.287 44.6865 102.053C44.613 102.364 44.5156 102.669 44.3953 102.966C44.1527 103.616 43.7937 104.257 43.7258 104.742C43.4634 104.451 42.9783 103.878 42.3082 103.995C41.6381 104.111 41.1044 105.024 40.9879 105.286C40.9879 105.121 40.8714 104.995 40.8426 105.189C40.8228 105.403 40.4541 107.635 38.3959 109.441C38.3767 108.985 38.3767 107.975 38.3281 107.645C38.1361 107.837 37.9012 108.121 36.5028 108.723C35.1338 109.325 35.3508 109.927 35.3508 109.927C35.3508 109.927 35.2343 108.967 35.9722 107.956C36.7197 106.947 37.1761 106.47 37.1761 106.393C37.164 106.314 37.1303 106.24 37.0788 106.179C36.9815 106.082 36.7876 105.965 36.7876 105.888C36.9041 105.84 38.0593 105.286 37.9914 104.14C37.9236 103.112 37.4871 102.577 37.1761 102.199C37.1281 102.15 37.633 101.791 37.5645 101.675C37.5159 101.607 36.8951 101.15 36.817 100.907C36.8354 100.762 36.868 100.619 36.9143 100.48C36.9821 100.266 37.0308 100.12 37.0116 99.975C36.9629 99.7324 36.7005 99.0624 36.6231 98.9945C36.6909 99.0137 37.1761 98.9945 37.1761 98.9945C37.1761 98.9945 36.7882 98.3731 36.7197 98.0819C36.6513 97.7907 36.506 97.0233 36.4285 96.878C36.5937 96.8972 37.0013 96.926 37.0013 96.878C37.0212 96.7321 36.6423 96.4896 36.8093 96.302C36.9258 96.3212 37.1492 96.4185 37.3623 96.6905C37.2458 96.3795 37.0519 95.7779 36.6436 95.5353C36.8356 95.4675 37.4884 95.2921 38.0612 95.632C38.634 95.9718 38.8292 96.4473 38.8292 96.4473C38.8292 96.4473 39.169 96.7097 39.6938 97.0982C40.2954 97.5737 41.0621 98.2502 42.2858 98.7289C42.5482 98.8748 43.2177 98.8748 43.7034 98.7776C43.9149 98.7272 44.1177 98.6454 44.305 98.535C44.3726 98.4951 44.4443 98.4625 44.5188 98.4377C44.4144 98.2282 44.2944 98.0269 44.1597 97.8355C44.3249 97.8355 44.5188 97.8553 44.5188 97.8553C44.5188 97.8553 44.6353 97.5929 44.1111 97.0873C44.2276 96.9708 44.3735 96.8953 44.3735 96.6988C44.2084 96.6796 43.9172 96.4371 43.8493 96.3398C43.946 96.272 44.0919 96.0486 44.257 95.9808C44.1111 95.8643 43.7521 95.3785 43.5869 95.3305C43.7447 95.272 43.8973 95.2005 44.0433 95.1168C44.0433 95.1168 43.2279 94.903 42.9655 94.7283C42.7031 94.5363 42.3153 94.2041 42.0823 94.1068C41.8391 94.0096 41.4122 93.9616 41.2375 93.767C41.402 93.8156 41.6644 93.767 41.8589 93.767C42.0042 93.767 42.0727 93.7862 42.1207 93.7862C42.1015 93.7184 42.1015 93.5724 42.4804 93.5244C42.6626 93.497 42.8395 93.4413 43.0045 93.3593C43.0045 93.3593 42.6449 93.3401 42.2365 92.9516C41.8282 92.5632 41.489 92.2528 41.2561 92.2041C41.0135 92.1555 40.5572 92.3692 40.2756 92.3494C39.8871 92.3014 39.722 92.1068 39.722 92.1068C39.722 92.1068 38.4311 92.2233 35.5671 90.4761C33.0909 88.9612 32.0132 87.6217 32.0132 87.6217C31.7814 87.5376 31.5575 87.4335 31.3437 87.3107C30.4119 86.8256 29.1204 85.8156 29.1594 84.4947L29.1543 84.5043Z" fill="#C2A44D"/>
<path fill-rule="evenodd" clip-rule="evenodd" d="M64.8732 26.2336C65.0978 26.3066 65.2974 26.4412 65.4492 26.6221C65.9055 27.1462 66.1967 28.1363 65.158 29.1949C65.5657 29.3401 65.734 29.3869 66.0898 29.3401C65.7308 29.7677 64.9154 30.6803 64.8668 31.4765C64.8182 32.1267 65.2258 32.3213 65.2258 32.3213C65.2258 32.3213 64.6044 33.0393 64.5756 34.2413C64.8691 33.9103 65.1902 33.605 65.5356 33.3286C66.2543 32.7558 67.2444 32.1056 67.9145 31.6979C67.9054 31.8688 67.9284 32.0398 67.9823 32.2022C67.9823 32.2022 69.2342 31.1731 70.2863 31.6301C70.7618 31.8438 70.5481 32.5133 70.5481 32.5133C70.5481 32.5133 71.199 32.2707 71.6553 32.727C72.1116 33.1833 72.7567 34.3603 73.0876 34.8166C73.2329 35.0304 73.6118 35.4381 73.9996 36.0691C74.5295 36.9526 74.9719 37.8856 75.3206 38.855C75.3398 38.3501 75.4658 37.5641 76.9033 38.0589C78.3401 38.5638 79.9708 39.6224 81.3398 41.7069C82.7087 43.7913 83.0479 46.1446 83.7372 47.0406C84.4361 47.9046 85.1548 49.3414 85.2034 49.9437C85.2521 50.5459 84.9897 52.487 86.4265 57.7395C86.8342 56.1088 87.4556 52.487 87.4556 52.487L87.7954 49.2928L88.1839 39.4093L77.8633 30.8352L69.7954 24.9805L64.543 25.4854L64.8726 26.2329L64.8732 26.2336Z" fill="#CAA13E"/>
<path fill-rule="evenodd" clip-rule="evenodd" d="M84.0482 40.9409C84.0482 40.9409 83.9023 39.9809 81.4754 38.3489C79.0479 36.7373 77.1548 36.7373 75.4076 35.3684C74.0674 34.2906 72.6697 31.8145 71.7596 30.9991C70.8757 30.1933 70.7305 27.8631 70.7305 27.8631L73.7109 25.3671L78.1436 18.9601L81.8908 14.834L83.6866 17.33L86.1826 20.2618L87.5708 26.1453L88.0757 34.7572L84.0437 40.9415L84.0482 40.9409Z" fill="#B59544"/>
<path fill-rule="evenodd" clip-rule="evenodd" d="M87.0497 51.2643C87.1231 49.9583 86.9618 48.6497 86.5735 47.4006C85.9335 45.4102 84.5351 41.8761 83.8855 40.5526C83.6231 39.0864 83.8177 38.9699 84.0993 38.8048C84.3809 38.6396 85.4394 38.0368 86.0193 35.9216C86.5991 33.8064 88.3981 33.7372 88.3981 33.7372L89.5047 32.9219L91.1847 37.1254L92.6503 40.9219L93.1066 43.8249L93.4465 46.3004L92.6503 51.5337L88.7188 55.087L87.049 51.2643H87.0497Z" fill="#C89D3A"/>
<path fill-rule="evenodd" clip-rule="evenodd" d="M32.1855 109.593V109.485C32.2672 109.434 32.3394 109.369 32.3987 109.293C32.4665 109.196 32.5158 109.08 32.5638 109.051C32.6611 109.002 33.1174 108.859 33.3599 108.905C33.6025 108.951 34.2438 109.215 34.5836 109.196C35.2825 109.177 36.0979 108.642 37.3894 108.886C39.3311 109.245 39.7875 110.565 40.9139 111.312C41.6819 111.837 42.4767 111.604 42.5932 111.604H42.855C42.9036 111.604 43.2627 111.196 43.4572 111.216C43.8457 111.235 43.8841 111.556 44.1267 111.575C44.6995 111.643 45.8067 111.284 46.3603 111.43C46.6934 111.534 46.9545 111.795 47.0591 112.128C47.1756 112.487 47.0783 112.943 46.7967 113.206C46.1951 113.759 45.6223 114.283 45.5059 114.742C45.654 114.855 45.7963 114.975 45.9321 115.103C41.1284 113.879 36.5065 112.028 32.1855 109.599V109.593Z" fill="#CEB052"/>
<path fill-rule="evenodd" clip-rule="evenodd" d="M83.8828 90.1948C83.8828 90.1948 85.3971 88.1756 85.9219 87.1753C86.446 86.1443 84.2617 73.0883 84.2617 73.0883L88.6502 58.71L88.5331 54.0303C88.5331 54.0303 88.7468 49.7097 89.2518 47.8358C89.854 48.9135 91.7279 50.2147 92.1356 50.9039C92.3276 49.583 92.9798 46.7971 92.8831 43.8262C93.2422 44.3791 94.1062 49.9427 94.1062 49.9427L94.9702 53.6899L96.0966 57.6707L97.3491 61.8748L98.0966 64.7779L98.5235 65.4767L98.8831 66.6998L99.223 68.0207L100.203 71.1177L100.779 73.6611L101.236 78.2729C101.335 78.626 101.407 78.9864 101.45 79.3507C101.469 79.8556 101.382 80.1468 101.382 80.2345C101.382 80.3222 101.547 81.3411 101.479 82.1084C101.382 82.8764 101.382 83.4774 100.779 84.0284C100.177 84.5795 99.799 87.8729 99.799 87.8729L98.7212 87.1548C98.7212 87.1548 98.935 86.1737 98.43 85.2809C97.9251 84.3881 96.9446 84.2031 96.391 84.3491C95.838 84.4655 94.7315 84.6396 94.3718 84.9507C94.0319 85.2611 93.1974 86.2223 92.43 86.6595C91.47 87.2355 89.9059 87.2809 89.0713 87.4748C88.2265 87.6668 87.2947 88.2428 86.3135 88.9116C85.5443 89.4097 84.7321 89.838 83.8867 90.1916L83.8828 90.1948Z" fill="#CCA847"/>
<path fill-rule="evenodd" clip-rule="evenodd" d="M83.8828 111.408C83.8828 111.408 83.9468 111.45 84.0703 111.518C90.968 108.286 97.1483 103.705 102.246 98.0458C102.191 96.081 102.118 94.0669 102.039 93.3207C101.874 91.7379 101.991 90.1264 101.942 89.1946C101.894 88.2627 101.37 84.4663 101.127 83.4858C100.865 82.5053 100.359 82.0195 100.282 82.0195C100.214 82.0394 99.806 83.8647 99.806 84.3235C99.806 84.7824 99.7087 85.8871 99.7087 86.1687C99.6409 86.1488 99.6121 85.9767 99.6121 85.9063C99.5148 86.1488 99.3983 86.5763 99.3497 86.625C99.3011 86.6736 99.4175 86.2173 99.3497 86.12C99.2819 86.0227 99.1577 86.0714 99.1846 85.8288C99.1961 85.685 99.2187 85.5422 99.2524 85.4019C99.2524 85.4019 98.9612 85.8288 98.7481 86.9162C98.5343 87.9939 98.5343 88.0234 98.4569 88.12C98.3891 88.2371 98.0006 88.625 97.9807 88.7709C97.9615 89.0327 98.3404 89.2951 98.3692 89.4403C98.3884 89.6835 98.0294 90.8093 97.9129 91.3603C97.7964 91.9114 97.8451 92.9911 97.7209 93.5447C97.6236 94.0496 97.5289 94.3408 97.1967 94.5539C97.4393 94.6026 97.6723 94.6704 97.6723 94.6704C97.6723 94.6704 98.0121 96.1072 97.1481 97.3309C96.8377 97.7578 96.7603 97.9523 96.43 98.3408C95.7791 99.0589 95.2742 99.8768 95.2255 100.409C95.1919 100.252 95.1693 100.093 95.1577 99.9325C95.1577 99.9325 94.1484 101.108 93.7209 101.778C93.1679 102.642 92.4006 102.593 92.1849 102.807C91.9692 103.02 91.9225 103.408 91.9929 103.719C91.8009 103.767 91.4399 103.836 91.1967 104.583C91.0803 104.971 90.7891 105.351 90.3327 105.612C89.8764 105.874 89.3228 105.952 89.0412 106.02C89.2838 106.088 89.3811 106.088 89.4975 106.165C89.3523 106.408 88.6822 106.787 87.9347 107.273C87.1871 107.729 86.8275 108.398 86.6431 108.836C86.4511 109.243 86.1676 109.506 85.7113 109.554C85.9033 109.671 86.1875 109.942 86.3327 110.03C86.119 110.078 85.7567 110.078 85.1097 110.632C84.43 111.195 84.1971 111.36 83.886 111.409L83.8828 111.408Z" fill="#C39D3C"/>
<path fill-rule="evenodd" clip-rule="evenodd" d="M70.3743 115.908C70.7461 115.647 71.1487 115.434 71.573 115.272C73.0873 114.67 74.6892 114.554 75.3202 114.36C75.9225 114.168 76.398 113.903 77.1455 113.758C77.1257 113.928 77.109 114.088 77.0911 114.239C74.8873 114.932 72.6431 115.489 70.3711 115.908H70.3743Z" fill="#D2BA6B"/>
<path fill-rule="evenodd" clip-rule="evenodd" d="M98.3043 76.078C98.3043 76.078 97.9939 77.7574 97.4403 78.816C96.8867 79.8745 96.2883 81.3401 96.2883 81.3401C96.2919 81.0099 96.331 80.6809 96.4048 80.359C95.7059 80.7667 94.0067 81.7478 93.5248 82.1843C93.0684 82.592 92.3011 83.3107 92.1072 83.6505C92.5635 82.311 93.039 81.1072 93.1171 80.5536C92.4182 81.0585 89.1555 83.7478 87.4569 85.5244L82.1654 89.806C81.5548 90.1355 80.9259 90.4299 80.2819 90.688C79.3699 91.0758 78.2921 91.406 77.496 91.7171C77.7097 91.1443 78.0489 90.6387 78.5251 90.1536C79.03 89.678 80.5443 88.0371 80.7772 87.2736C80.991 86.4774 81.0396 86.0019 80.758 85.3318C80.4956 85.3996 79.894 85.4291 79.4864 85.5456C79.0787 85.662 78.6416 86.0985 78.6416 86.0985C78.6416 86.0985 78.952 84.3219 79.622 82.6425C79.1171 82.6617 78.2531 82.807 78.2531 82.807C78.2531 82.807 79.4569 80.7878 81.5171 79.3804C80.8862 79.5147 80.2688 79.7062 79.6726 79.9526C78.4688 80.4576 77.1484 81.2051 76.168 81.6128C76.7209 80.8448 80.6044 75.3024 82.9155 70.1369C85.2195 64.9817 86.0803 63.6614 86.5852 60.8947C86.847 59.5257 86.7772 57.5027 86.847 55.6908C86.9148 53.8944 87.1382 52.2828 86.9929 51.2051C87.5945 51.9526 89.8473 54.0595 89.9248 58.7686C89.9926 63.4771 87.7699 69.8368 85.4102 73.2633C85.9862 73.4284 87.4787 73.623 89.0121 70.9593C90.5456 68.2956 90.527 67.552 91.0806 66.4448C91.1484 66.9984 91.1286 67.1923 91.1286 67.1923C91.1286 67.1923 93.3622 64.4838 94.4201 61.0758C94.6339 62.542 95.2649 63.8336 94.2742 66.5228C93.391 68.9497 92.2358 69.5424 92.2358 69.5424C92.2358 69.5424 92.8086 69.4451 93.6528 68.9401C93.7987 69.2992 93.7699 69.7081 94.0124 69.8528C94.255 69.9974 94.5852 70.2412 94.6339 70.4742C94.8956 70.0857 95.3033 69.5904 95.43 69.2217C95.3328 69.9897 95.2649 73.3478 95.622 75.0566C96.3702 74.9888 97.1369 74.9401 97.6611 73.5904C97.302 74.9113 97.302 75.7068 97.5446 76.8332C97.9427 76.5619 98.3017 76.0761 98.3017 76.0761L98.3043 76.078Z" fill="#C0993A"/>
<path fill-rule="evenodd" clip-rule="evenodd" d="M73.0783 22.5637C73.0783 22.5637 72.3308 22.8741 71.0591 22.8741C69.9525 22.8741 70.2629 22.4473 68.5349 22.4473C65.8751 22.4473 56.5836 23.9833 54.9522 23.9615C53.8937 23.9423 58.5247 24.4178 58.5247 24.4178L70.3602 24.5829L72.7385 24.3909L73.6223 22.5925L73.0783 22.5637Z" fill="#A88F33"/>
<path fill-rule="evenodd" clip-rule="evenodd" d="M42.3878 45.7001C42.3878 45.7001 40.8729 46.8553 40.2322 47.7391C39.5916 48.623 39.2518 49.2047 38.5234 49.9235C38.6944 49.93 38.8652 49.907 39.0284 49.8556C39.0284 49.8556 39.0284 50.0476 38.9119 50.0982C39.1158 50.0754 39.319 50.1459 39.4649 50.2902C39.2511 50.4067 38.6687 50.9897 39.125 51.679C39.4649 52.2031 40.1836 52.2511 40.1836 52.2511C40.1836 52.2511 40.0185 52.7273 40.7078 52.6787C42.1932 52.6108 43.8534 51.9599 44.6201 52.1251C45.3881 52.3171 45.8246 52.3875 46.3679 53.3295C46.9439 54.2614 47.4457 54.4073 47.4457 54.4073C47.4457 54.4073 47.7855 53.5427 47.7081 52.2518C47.9867 51.556 48.1412 50.8166 48.1644 50.0675L47.6594 46.3491L45.4559 43.5625L42.6015 45.1452L42.3878 45.6982V45.7001Z" fill="#E3C571"/>
<path fill-rule="evenodd" clip-rule="evenodd" d="M45.0977 45.145C45.0977 45.145 45.3114 45.6499 46.2049 45.6979C46.1076 45.9117 46.1076 45.9411 46.137 46.1056C46.1562 46.2707 46.185 46.5133 46.185 46.5133C46.2834 46.4657 46.3723 46.4006 46.4474 46.3213C46.4961 46.5351 46.3988 46.8743 46.4474 47.1175C46.4774 47.2654 46.5263 47.4088 46.5927 47.5443C46.6069 47.5111 46.6231 47.4789 46.6413 47.4477C46.6605 47.3991 46.8333 47.9719 47.3114 48.4077C47.311 48.3407 47.3275 48.2746 47.3594 48.2157C47.3667 48.3374 47.407 48.4549 47.4759 48.5555C47.4401 48.5385 47.4075 48.5156 47.3793 48.4877C47.3793 48.4877 47.4273 50.0237 47.6897 50.8179C47.7335 50.7666 47.7725 50.7113 47.8061 50.6528C47.8061 50.6048 47.7869 51.0803 47.7383 51.4208C47.6705 51.7607 47.7191 52.2362 47.7191 52.2362C47.8941 52.0984 48.0865 51.9841 48.2913 51.8963C48.5825 51.7792 49.0593 51.4202 49.3498 50.624C49.5184 50.1731 49.6483 49.7087 49.7383 49.2359C49.8322 49.4166 49.897 49.611 49.9303 49.8119C49.9501 50.0544 50.4065 49.9283 50.4065 49.9283L50.5037 48.8698L51.0797 46.4717L51.6039 44.9863L54.1281 41.0547L58.6887 37.5424L62.6695 38.4551L66.0282 33.8919L60.242 30.416L54.7661 30.9888L49.7965 37.872L45.8164 44.1152L45.0977 45.1443L45.0977 45.145Z" fill="#D8B65B"/>
<path fill-rule="evenodd" clip-rule="evenodd" d="M73.7775 35.1844C73.7775 35.1844 73.4377 35.2523 72.4572 35.7604C71.4767 36.2686 70.797 36.4299 70.4182 37.1774C70.0393 37.9249 70.0105 38.5176 70.0105 38.5176C70.0105 38.5176 70.6806 38.2264 71.069 38.1291C71.4767 38.0324 71.933 38.0612 71.8844 38.2264C71.8377 38.3396 71.7729 38.4444 71.6924 38.5368C71.6924 38.5368 72.4604 38.5176 72.4399 38.8964C72.4194 39.2753 72.2946 39.6926 72.1494 39.8769C72.0034 40.0689 71.4018 40.3531 71.334 40.5764C71.1689 41.0328 71.4018 41.052 71.3142 41.4206C71.2463 41.7803 70.9263 42.4792 69.8774 43.7022C68.7996 44.9259 68.3414 45.7899 68.3414 45.7899C68.3414 45.7899 67.8172 44.8094 67.5452 43.9646C67.3532 44.0612 66.3222 44.634 66.3222 44.634L63.9337 36.314L63.9817 35.7604C63.9817 35.7604 64.1954 35.4987 64.2441 35.0129C63.885 34.8964 63.8364 34.7992 63.3602 34.3435C62.8841 33.8878 62.4962 33.3336 61.7007 32.9547C61.5842 32.7409 61.4383 32.4504 60.8559 32.3332C60.2735 32.2161 59.9241 32.1201 59.9241 32.1201C59.9241 32.1201 60.2345 32.003 60.3804 31.7604C60.0207 31.8091 59.7302 31.9256 58.9436 31.9064C58.1474 31.8865 58.0598 31.8577 57.6233 31.9256C57.1868 31.9934 56.6633 32.188 56.4681 31.5179C56.2543 31.3528 55.798 31.4987 55.4095 32.0708C55.021 32.643 54.8854 33.1 54.1378 33.3233C54.0853 33.6528 53.9699 33.9692 53.798 34.2552C53.5842 34.6148 53.2444 34.9739 52.7881 35.5076C52.0694 36.3524 52.1858 37.7406 51.0402 38.7992C49.885 39.8571 51.2322 35.8667 51.2322 35.8667L53.0767 31.4507L58.3292 26.3147L66.4847 25.7617L67.2809 29.9857L71.2617 31.3547L73.7762 35.1896L73.7775 35.1844Z" fill="#D3AE4D"/>
<path fill-rule="evenodd" clip-rule="evenodd" d="M75.0683 36.1165L71.6411 31.1751L69.243 29.33C69.243 29.33 67.5342 26.185 67.4177 26.0877C67.3205 26.0199 65.7089 25.8452 64.6798 25.7773L64.8718 26.2529C65.0964 26.3258 65.296 26.4604 65.4478 26.6413C65.9041 27.1655 66.1953 28.1556 65.1566 29.2141C65.5643 29.3594 65.7326 29.4061 66.0885 29.3594C65.7294 29.7869 64.9141 30.6996 64.8654 31.4957C64.8168 32.146 65.2245 32.3399 65.2245 32.3399C65.2245 32.3399 64.603 33.0586 64.5742 34.2599C64.8677 33.929 65.1889 33.6236 65.5342 33.3473C66.2529 32.7713 67.243 32.1236 67.9131 31.7159C67.904 31.887 67.927 32.0583 67.9809 32.2209C67.9809 32.2209 69.2328 31.1917 70.2849 31.6481C70.7605 31.8618 70.5467 32.5319 70.5467 32.5319C70.5467 32.5319 71.1976 32.2893 71.6539 32.7457C72.1102 33.202 72.7605 34.3764 73.0907 34.8333C73.236 35.0471 73.6149 35.4548 74.0027 36.0852C74.5327 36.9688 74.9751 37.9021 75.3237 38.8717C75.3429 38.4833 75.4209 37.9399 76.0917 37.9399L75.0721 36.1146L75.0683 36.1165Z" fill="#CAA13E"/>
<path fill-rule="evenodd" clip-rule="evenodd" d="M23.6898 50.1562C23.6898 50.1562 23.4473 49.5539 23.6898 48.3795C23.9324 47.2051 24.3113 46.6515 24.4374 44.9235C24.5634 43.1955 25.6898 41.04 25.6898 41.04L28.806 39.623L31.0102 40.2246L31.6604 43.1763L28.8738 44.7123C28.8738 44.7123 28.7286 45.3626 27.942 45.8867C27.1554 46.4109 26.0681 46.8186 25.8063 47.353C25.6498 47.6802 25.5356 48.026 25.4665 48.3821C25.4665 48.3821 24.6703 48.217 24.1948 48.7411C23.6898 49.2755 23.709 49.751 23.6898 50.1587V50.1562Z" fill="#F4EFC8"/>
<path fill-rule="evenodd" clip-rule="evenodd" d="M29.9806 49.3693C29.9806 49.3693 29.7182 49.5344 29.5243 49.9453C29.3323 49.6349 28.8734 47.7898 28.8542 46.1296C28.835 44.4695 28.7358 44.058 29.1198 43.4858C29.5038 42.9136 31.0097 42.3108 30.7959 41.2804C30.5822 40.2999 29.6887 39.8922 28.5918 40.1738C27.8238 40.3658 27.2523 41.9991 26.4561 42.8144C25.8539 43.4359 25.1358 43.3386 24.9419 43.6784C24.6795 44.1348 24.922 44.5911 24.8446 44.8823C24.8247 44.9796 24.5822 45.5037 24.1451 46.1348C23.2619 47.4064 21.7668 49.2029 21.5723 50.8144C21.6401 49.9018 21.5921 49.8826 21.8347 48.8727L21.6887 48.6301L22.6487 45.4845L23.2702 42.8925L24.659 38.552L27.1051 34.1156L29.4839 31.4551L31.9595 31.6202L32.2507 35.3386L33.6683 42.3197L36.6487 45.9895L31.8718 49.2042L29.9787 49.3693H29.9806Z" fill="#EBCC73"/>
<path fill-rule="evenodd" clip-rule="evenodd" d="M31.4672 50.6877C31.4672 50.6877 31.0595 50.785 30.9136 50.7075C30.7676 50.6301 30.623 50.5424 30.671 50.4451C30.719 50.3479 30.9814 50.1834 30.9814 50.1053C30.9926 49.9586 30.8851 49.8296 30.7388 49.8141C30.5155 49.7853 30.4476 49.9306 30.4476 49.9306C30.4476 49.9306 30.2339 49.7661 30.0598 49.7386C30.1628 49.726 30.2664 49.7193 30.3702 49.7187C30.1019 49.5972 29.8173 49.5155 29.5254 49.4762C29.768 49.3309 30.2441 48.9034 30.5545 48.9034C30.8649 48.9034 31.0595 48.8554 31.0108 48.6903C30.9622 48.5251 30.7196 48.2826 30.4579 48.1853C30.5545 48.0688 30.623 47.8941 30.39 47.4173C30.1468 46.9418 30.2441 46.6211 30.3222 46.5053C30.39 46.3594 30.6326 46.0976 30.7491 45.9325C30.8656 45.7674 30.9628 45.544 31.1568 45.4275C31.254 45.3597 31.5644 45.2355 31.8755 45.1171C32.2153 45.0007 32.4969 44.8547 32.6908 45.0007C32.9046 45.1459 32.8073 45.3405 32.8073 45.3405C32.8073 45.3405 33.4774 45.0973 34.079 45.4083C34.6812 45.6989 36.1475 45.8839 36.1475 45.8839L36.6729 46.9424L33.1971 49.9229L31.7603 50.6416L31.4691 50.6896L31.4672 50.6877Z" fill="#E5C66B"/>
<path fill-rule="evenodd" clip-rule="evenodd" d="M36.2903 45.816C36.2903 45.816 35.2125 46.5348 34.97 46.7965C35.1153 46.8164 35.3578 46.9136 35.2605 47.0589C35.1441 47.2042 34.4452 47.7092 34.0567 48.1853C33.649 48.6608 33.2605 49.2631 33.1249 49.5543C32.9796 49.816 31.8724 50.5834 31.4941 50.68C32.2903 50.68 33.8922 49.6996 34.4938 49.6996C34.4746 49.9908 34.6589 50.321 34.9988 50.3498C35.3386 50.3786 36.3191 50.5636 37.6394 49.7482C38.9597 48.952 38.5233 48.3594 39.0762 47.9716C40.1348 47.272 40.5617 46.6506 41.1441 46.2628C41.7265 45.8749 42.0279 45.7866 42.0279 45.7866C42.0279 45.7866 42.0471 45.4954 42.2199 45.5248C42.3163 45.5359 42.3986 45.5995 42.4337 45.69C42.4337 45.69 43.4436 44.9712 44.7377 44.7773C44.7075 44.7638 44.6833 44.7397 44.6698 44.7095C44.6698 44.7095 44.7665 44.6608 44.7863 44.6122C44.7863 44.6122 44.8541 44.5149 44.9028 44.5636C44.9514 44.6122 45.0193 44.9712 45.1165 45.1172C45.3303 45.0199 45.738 44.1072 45.738 44.1072L46.7191 41.3015V38.7383L45.9511 38.8842L40.1911 41.3303L36.6954 44.952L36.2877 45.816H36.2903Z" fill="#E6BD62"/>
<path fill-rule="evenodd" clip-rule="evenodd" d="M52.874 33.2431C53.1856 33.1675 53.4843 33.0463 53.7604 32.8834C53.6439 33.1944 53.6439 33.5343 53.139 34.2722C52.634 35.0101 52.6148 35.117 52.2071 35.8837C51.7994 36.6799 51.7508 37.8255 51.3623 38.3298C51.5364 38.2452 51.7232 38.1896 51.9153 38.1653C51.9153 38.1653 51.5274 38.5051 51.3623 38.8642C51.1972 39.2232 50.906 39.9707 50.1879 40.4277C49.4698 40.8847 48.5566 41.1752 47.5761 42.253C46.595 43.3109 45.5857 44.6511 45.0801 45.133C45.3425 44.6767 45.7015 43.764 45.7988 43.1624C45.8961 42.5608 45.779 41.8415 45.9441 41.0459C46.1092 40.2504 46.1092 39.677 46.9041 38.2882C47.699 36.8994 49.0596 32.0744 49.0596 32.0744L51.9914 31.1426L52.8753 33.2399L52.874 33.2431Z" fill="#B6933F"/>
<path fill-rule="evenodd" clip-rule="evenodd" d="M50.7564 31.466C50.7564 31.466 49.8732 32.7377 49.6307 33.8641C49.3881 34.9905 49.6108 34.8932 49.4656 35.4468C49.3787 35.7844 49.3787 36.1384 49.4656 36.4759C49.7714 35.9832 50.1902 35.5703 50.6873 35.2715C51.5225 34.7671 52.2022 34.4075 52.6073 33.9806C53.015 33.5243 53.3548 32.7767 54.238 32.2039C53.879 32.1553 53.374 31.9902 53.278 32.0119C53.6377 31.6043 54.7148 30.9828 55.8022 30.2353C56.88 29.4673 56.8121 29.1575 58.56 28.3908C57.9872 28.4881 57.7152 28.3422 57.239 28.3908C57.431 27.9831 58.103 27.7886 58.775 27.1191C59.447 26.4497 58.3481 25.459 58.3481 25.459L53.2281 28.5559L50.7526 31.4686L50.7564 31.466Z" fill="#C49937"/>
<path fill-rule="evenodd" clip-rule="evenodd" d="M36.8633 29.1557L36.9798 28.2239L38.446 25.8745L39.9801 21.7484V16.1074L39.8636 12.8453L40.1062 10.709L40.2905 10.03L40.485 9.76758L41.7369 10.4178L43.4655 12.7673L43.6306 17.3017L41.9506 24.4569L37.1545 29.6901L36.8633 29.1557Z" fill="#DFC068"/>
<path fill-rule="evenodd" clip-rule="evenodd" d="M40.6806 9.50453C40.6806 9.50453 39.9126 9.52437 39.7487 12.7186C39.5849 15.9129 39.5055 17.5922 39.389 19.1749C39.2726 20.7577 39.0012 21.7183 38.8649 22.6508C38.7286 23.5833 38.6511 24.8543 38.2146 25.6313C38.0226 25.9903 37.6124 27.1167 36.6511 27.9615C35.5734 28.8933 33.9631 29.5442 33.7193 29.5929C33.2918 29.6895 31.1266 29.9033 30.2434 30.389C29.933 30.5541 29.3986 30.7481 28.8066 31.3017C27.6316 32.3596 26.0687 34.2527 24.9423 36.5343C23.2143 39.9423 21.4863 49.5634 21.4863 49.5634L21.8748 48.9132C21.8748 48.9132 21.9234 48.0492 22.7874 46.5343C23.6322 45.0201 23.3897 43.3209 24.5641 40.4178C25.0204 39.3113 25.5932 37.8745 26.2921 36.6508C27.3993 34.6604 28.7388 32.9516 30.0886 32.0197C32.2921 30.5055 34.7196 30.1753 34.7196 30.1753L37.3314 28.4473C37.3314 28.4473 37.7878 27.5641 38.39 26.5541C39.2342 25.1372 40.31 23.5545 40.5449 21.2537C40.9046 17.8457 40.0399 15.6127 40.0886 13.5935C40.1372 11.5743 40.1564 10.0889 40.5647 9.72917C40.973 9.36949 40.6812 9.50581 40.6812 9.50581L40.6806 9.50453Z" fill="#A88F33"/>
<path fill-rule="evenodd" clip-rule="evenodd" d="M40.679 24.7473C40.679 24.7473 41.831 21.9121 42.3584 19.3975C42.4556 18.8926 42.6496 18.3882 42.6982 17.9806C42.9408 15.6017 43.0086 14.6212 42.6982 13.3201C42.4556 12.3601 41.5238 11.4948 41.038 10.8241C40.5625 10.1246 40.3392 9.86408 40.4364 9.71688C40.5337 9.56968 40.912 9.32904 41.2806 9.35784C42.0725 9.38088 42.8203 9.72792 43.3491 10.3178C44.0966 11.1818 44.6886 14.1143 44.6886 14.1143L45.3113 17.9838L46.894 22.8574L40.6803 24.7511L40.679 24.7473Z" fill="#C99E3D"/>
<path fill-rule="evenodd" clip-rule="evenodd" d="M51.5054 21.7956C51.5054 21.7956 51.2917 21.8922 50.9038 21.7956C50.9376 22.1187 50.7876 22.4335 50.5154 22.6109C50.1077 22.4458 46.2914 22.776 46.2914 22.776C46.2914 22.776 44.5147 22.465 43.9611 20.1156C43.5733 18.552 44.2523 16.3972 44.029 14.9796C43.6891 12.8919 43.2136 12.4836 43.165 11.834C43.1163 11.1844 43.0677 11.0186 43.0677 10.6109C42.8539 10.5623 42.7278 10.4944 42.5147 10.4944C42.4661 10.3024 42.5627 10.1348 42.3496 9.79492C42.4661 9.84356 43.2622 9.94084 44.1941 10.824C44.9621 11.5428 44.9621 11.8045 45.0779 11.9504C45.2232 12.0957 46.3982 13.1024 46.9032 14.106C47.4082 15.1095 48.3886 18.3095 48.612 18.8336C48.6798 19.0474 48.8258 19.2612 49.188 19.7463C49.7512 20.4458 50.5762 21.6023 51.508 21.7943L51.5054 21.7956Z" fill="#B58634"/>
<path fill-rule="evenodd" clip-rule="evenodd" d="M45.2148 12C45.803 12.9501 46.3314 13.9359 46.7969 14.9517C47.3697 16.2426 47.7096 17.3011 48.4283 18.1651C48.0398 17.0394 47.3505 14.8256 46.9428 14.039C46.4865 13.207 45.5547 12.311 45.2148 12.0006V12Z" fill="#A88F33"/>
<path fill-rule="evenodd" clip-rule="evenodd" d="M38.6122 27.9616C38.6122 27.9616 37.6317 28.2041 35.8064 29.1654C35.2042 29.4758 34.632 29.7376 34.0784 29.9808C32.6403 30.631 31.0979 31.232 29.8743 31.5635C29.9715 31.68 30.0195 31.728 30.0195 31.728C30.0195 31.728 30.0195 32.2041 30.2819 32.4755C30.1367 32.6214 28.1943 33.9417 28.7677 38.359C29.1555 38.2137 29.6119 38.0192 29.6797 38.0192C29.7968 38.039 29.8256 38.359 29.9709 38.359C30.1162 38.359 30.5923 38.167 31.0973 37.5142C31.0781 37.7766 30.7869 40.4173 32.3498 42.1939C32.641 41.8541 33.3789 40.7277 33.3789 40.7277L33.3981 40.3686C33.3981 40.3686 33.4659 39.1161 33.8743 37.9705C34.2826 36.8249 35.0781 35.9801 35.0781 35.9801L39.2323 30.048L38.6109 27.9609L38.6122 27.9616Z" fill="#E6C367"/>
<path fill-rule="evenodd" clip-rule="evenodd" d="M34.7282 36.6727C34.538 36.8071 34.3285 36.9118 34.1068 36.9831C34.0389 36.7405 33.9417 35.9053 34.5145 35.09C35.1845 34.1089 36.6501 32.8372 37.0578 31.826C37.3202 31.1751 37.2037 29.5444 39.534 27.4567C41.8642 25.369 42.7762 24.6509 42.7762 24.6509L46.5433 22.7578L51.1743 24.5831L48.8735 33.6007L47.0873 37.8247L39.9833 36.4852L34.7276 36.6727H34.7282Z" fill="#DCBA5A"/>
<path fill-rule="evenodd" clip-rule="evenodd" d="M37.4395 34.2232L38.3233 33.1166V32.33C38.3233 32.33 39.3038 32.0676 40.3617 30.9899C41.4196 29.9121 42.8859 27.8443 44.1774 27.9704C45.4689 28.1163 45.595 30.7761 45.6436 31.5243C45.6923 32.2724 45.8574 33.9704 46.1191 34.8836C46.4103 35.7963 42.9735 39.2523 42.9735 39.2523L40.6395 41.0289L37.4395 34.2232Z" fill="#E9CE77"/>
<path fill-rule="evenodd" clip-rule="evenodd" d="M40.1738 43.4375C40.1738 43.4375 40.8925 42.3111 40.3658 42.0686C40.6762 41.3697 41.249 40.6318 41.249 40.6318C41.249 40.6318 41.6567 39.6225 42.977 38.3796C44.2973 37.1367 45.1133 36.3111 45.3271 35.4766C45.4589 34.9327 45.5306 34.3759 45.5409 33.8164C45.6836 33.933 45.8363 34.0369 45.9972 34.1268C46.2109 34.2241 47.2202 35.0586 47.0749 36.7386C46.9297 38.4186 46.3069 39.1175 46.3069 39.1175C46.3069 39.1175 45.7053 39.7191 45.2785 40.0302C44.8215 40.3406 44.657 40.6996 43.8897 40.729C43.9685 40.6663 44.0572 40.617 44.1521 40.5831C44.1521 40.5831 43.3559 40.4865 42.9284 40.8743C42.5009 41.2622 41.5921 42.457 41.1357 42.8167C40.6794 43.1079 40.1757 43.4382 40.1757 43.4382L40.1738 43.4375Z" fill="#CDAE50"/>
<path fill-rule="evenodd" clip-rule="evenodd" d="M72.4571 24.5529C71.31 24.1349 70.1046 23.8991 68.8846 23.8541C66.8455 23.7862 63.8651 23.9027 60.9428 23.9219C57.7972 23.9411 54.9428 22.8442 50.9819 22.6502C50.3316 22.2617 48.6779 20.5626 43.5156 24.1645C43.826 24.1453 47.2635 23.3683 48.4571 24.864C49.6609 26.3494 49.3211 28.8736 49.1566 29.4752C48.8455 30.8154 47.8356 32.7667 47.4286 34.1357C47.0215 35.5046 47.1175 36.224 46.8263 37.184C46.5351 38.144 45.8945 38.6208 46.2727 39.7274C46.7777 39.417 47.0407 39.417 47.8843 37.5238C48.7278 35.6307 48.5543 34.281 49.9527 32.679C51.3217 31.0675 53.6007 28.8633 54.4673 28.3098C55.3339 27.7562 62.2145 24.1837 69.419 27.5917C71.1566 27.4074 72.4577 24.5523 72.4577 24.5523L72.4571 24.5529Z" fill="#D2A83E"/>
<path fill-rule="evenodd" clip-rule="evenodd" d="M46.4168 23.2311C46.4096 23.1582 46.3935 23.0864 46.3688 23.0174C46.3014 22.8754 46.2129 22.7444 46.1064 22.6289C46.1064 22.6289 44.3976 22.3185 43.5336 22.4151C42.0187 22.5803 40.6497 24.4542 40.0091 25.4155C39.3684 26.3767 38.5723 27.8615 37.7083 28.6289C37.7177 28.5541 37.7005 28.4784 37.6596 28.4151C37.6596 28.4151 37.7083 28.483 37.6116 28.5803C37.515 28.6775 37.5144 28.7255 37.563 28.7723L37.7089 28.9175C37.7569 28.9175 39.0971 28.3153 40.9224 26.6135C42.8641 24.8369 44.3496 23.9255 45.1265 23.6132C45.5409 23.4371 45.974 23.3089 46.4174 23.2311H46.4168Z" fill="#C29637"/>
<path fill-rule="evenodd" clip-rule="evenodd" d="M79.5637 15.9316C79.5637 15.9316 79.2527 16.3195 78.8642 16.747C78.0002 17.6596 76.8738 18.6881 75.9125 19.7467C75.0005 20.7566 73.9714 21.5432 72.8156 22.8635C71.6597 24.1838 70.3196 25.6494 69.9804 26.0769C69.67 26.5044 69.4274 27.2033 69.4274 27.5624C69.2623 27.4459 69.0684 27.3198 69.0684 27.3198C69.15 27.4722 69.2476 27.6155 69.3596 27.7473C69.6021 28.0872 69.9804 28.5153 70.1749 28.7764C70.4136 29.1089 70.5849 29.4848 70.6792 29.883C70.7957 29.9022 71.5432 30.0481 72.4757 28.514C73.4082 26.98 74.6306 25.3006 74.6306 25.3006L76.5724 22.4168L77.796 19.9707L79.332 17.2328L79.5656 15.9316H79.5637Z" fill="#AC8132"/>
<path fill-rule="evenodd" clip-rule="evenodd" d="M81.5541 13.9707C81.5541 13.9707 80.379 14.9307 79.9227 15.5067C79.4664 16.0827 78.3867 17.5944 78.3867 17.5944L78.7752 17.5457L80.7464 15.7985L81.5144 14.4296L81.5534 13.9733L81.5541 13.9707Z" fill="#A88F33"/>
<path fill-rule="evenodd" clip-rule="evenodd" d="M81.1946 91.1262C81.1946 91.1262 81.1754 90.33 81.6221 89.8545C82.0784 89.3784 83.2336 88.6795 84.36 86.058C85.4864 83.4366 85.6119 82.8446 85.6119 82.8446C85.6119 82.8446 83.5927 84.5726 82.3479 84.9803C82.6391 84.378 82.8042 83.9512 82.9501 83.6401C82.785 83.4948 82.0861 83.3297 82.0183 83.2523C82.4061 82.8638 82.6199 81.9121 83.4064 81.2811C84.4163 80.5131 86.2608 79.1934 87.6944 78.0171C89.128 76.8408 91.9466 74.1048 92.3063 73.3086C92.52 73.619 92.568 73.8129 92.568 73.8129C92.568 73.8129 91.1511 75.658 90.4131 76.8324C89.7623 77.8424 89.8109 78.4152 89.8109 78.4152L91.1511 77.8392C91.1511 77.8392 91.5389 79.276 89.7821 81.4609C90.5501 81.1697 90.8599 81.3444 91.2963 81.1012C90.5776 81.5582 89.5875 82.1796 88.6557 83.8878C87.7431 85.5966 86.5002 87.587 84.4035 88.8292C82.3645 90.14 81.1895 91.1204 81.1895 91.1204L81.1946 91.1262Z" fill="#A67A2E"/>
<path fill-rule="evenodd" clip-rule="evenodd" d="M75.9319 25.5638C75.9319 25.5638 75.1357 27.2233 75.0193 28.5148C75.0001 28.8259 74.922 29.0684 74.922 29.4275C74.9028 30.5827 74.9898 31.8742 74.73 32.4758C74.6327 32.2332 74.5841 32.0681 74.4868 31.9715C74.3415 32.3791 74.0791 33.6508 73.8653 34.1263C73.7687 33.8159 73.5549 32.7382 73.5748 31.4665C73.5946 30.1948 73.6228 29.9516 73.6228 29.6899C73.5748 30.0777 73.3124 30.6025 73.2151 30.9129C73.0698 30.6511 72.9047 30.3113 72.7101 30.0297C72.5937 30.2217 72.4484 30.5052 72.3223 30.6511C72.3025 30.5347 72.2545 30.2236 72.225 29.7871C72.2058 29.2822 72.1764 28.6319 72.2058 28.4956C72.2538 28.2339 72.6621 27.2047 73.5261 26.2627C74.5553 25.1363 75.6138 22.9718 75.9242 22.3017C76.2346 21.6316 77.5549 18.8457 77.5549 18.8457H78.5649L77.0986 22.1852C77.0986 22.1852 76.2154 24.0105 75.7591 24.6812C75.3028 25.3519 74.3415 27.2739 73.914 28.0214C74.2244 27.6137 74.4868 27.3999 74.7978 27.0115C75.0986 26.7395 75.9332 25.5651 75.9332 25.5651L75.9319 25.5638Z" fill="#8C6228"/>
<path fill-rule="evenodd" clip-rule="evenodd" d="M81.573 13.8438C81.408 14.3515 81.1473 14.8229 80.805 15.2326C80.2028 15.9513 78.9112 16.9119 78.2808 17.6786C77.7048 18.4262 76.5528 20.4652 77.0764 22.8825C77.2684 22.3583 77.63 21.3196 78.5912 20.1445C79.5525 18.9695 80.5816 17.6204 81.0872 16.5721C81.5916 15.5135 81.6594 14.679 81.6594 14.679L81.8514 14.4364L81.7349 13.8828L81.5698 13.8438L81.573 13.8438Z" fill="#CBA94C"/>
<path fill-rule="evenodd" clip-rule="evenodd" d="M101.234 78.2435C101.234 78.2435 100.845 77.1856 100.729 76.2243C100.613 75.263 100.921 75.0723 100.564 73.9721C100.35 73.3021 99.9623 73.3961 99.865 73.3021C99.7677 73.208 99.6999 72.1955 99.7191 71.6419C99.7383 71.0883 99.6999 70.3702 99.6026 70.0592C99.4573 69.9427 99.36 69.8454 99.1463 69.1273C98.9037 68.4086 98.7872 68.0496 98.6708 67.8365C98.5543 67.6233 98.2138 67.4288 98.2138 67.215C98.2138 66.7875 98.6023 66.5648 98.6023 66.447C98.5831 66.2045 98.2919 66.399 98.2138 66.3305C98.1172 66.2141 98.457 65.5152 98.3309 65.4179C98.2823 65.3699 97.9424 65.7776 97.8548 65.6611C97.7575 65.544 97.641 64.3888 97.4663 63.6221C97.3018 62.8745 97.1264 62.3312 97.1072 62.1078C97.088 61.8941 95.7671 58.127 95.4471 57.2144C95.1892 56.4432 94.9722 55.659 94.7968 54.8649C94.6996 54.4086 94.6317 53.4761 94.5831 53.5734C94.5344 53.6707 94.5639 54.1462 94.4858 54.127C94.418 54.1072 94.1754 52.4477 94.098 52.1853C94.0301 51.9229 93.6218 51.0333 93.522 50.3894C93.4247 49.7385 93.2116 48.0393 93.0656 46.8841C92.9197 45.7289 92.8519 45.2534 92.8519 44.9641C92.8758 44.2566 92.8368 43.5483 92.7354 42.8477C92.5434 41.624 92.1594 40.1385 91.8228 39.2752C91.1725 37.6438 89.4439 33.4691 89.1348 32.4304C89.1348 32.168 89.4746 32.3139 89.4746 32.3139C89.4746 32.3139 90.3188 34.4304 90.9402 36.0611C91.5424 37.6925 92.1152 39.1293 92.2612 39.2752C92.3776 39.4205 93.2903 41.0224 93.698 43.6438C94.1056 46.2653 94.2509 48.6825 94.4941 50.2941C94.6106 51.0621 94.7079 51.8768 94.9504 52.6921C95.2122 53.576 95.6199 54.4886 96.1543 55.8864C96.6106 57.0614 96.9504 58.0419 97.1348 58.8867C97.3485 59.9645 97.3485 60.7798 97.4746 61.3142C97.5917 61.7705 97.7658 62.6825 98.1741 64.0022C98.5824 65.3219 99.1834 67.0217 99.5911 68.0797C100.388 70.1961 100.743 71.9632 100.863 72.9053C100.97 73.8761 101.329 77.2355 101.232 78.2448L101.234 78.2435Z" fill="#A88F33"/>
<path fill-rule="evenodd" clip-rule="evenodd" d="M81.6222 13.7288L81.5736 13.8453C81.5736 13.8453 81.7188 13.8939 81.69 14.0885C81.6921 14.3547 81.6759 14.6207 81.6414 14.8847C81.5934 15.2245 81.4961 15.4863 81.4769 15.7C81.4769 16.1563 81.5448 16.6805 80.9009 17.9816C80.7089 18.3407 80.5905 18.6511 80.4932 18.8648C80.2507 19.389 80.202 19.4671 79.9883 19.7096C80.3281 19.5176 81.5518 18.7496 82.1726 18.8648C81.7457 19.1074 81.0948 19.5835 80.6872 20.205C80.7844 20.2242 81.1921 20.3023 81.8392 20.205C82.9169 20.0399 84.1208 19.6514 85.1787 19.7288C86.3345 19.7967 85.8782 18.3407 85.8782 18.3407L84.5444 15.4088L82.0203 13.6328L81.6222 13.7295V13.7288Z" fill="#BE9C44"/>
<path fill-rule="evenodd" clip-rule="evenodd" d="M88.2037 35.6892C88.2037 35.6892 87.0773 34.5628 86.6209 30.6972C86.1646 26.8137 86.2619 21.0972 86.2619 21.0972L85.3493 18.8642C85.3493 18.8642 85.1573 17.3788 84.6792 16.8258C84.2011 16.2729 83.2622 15.3404 82.8347 14.8841C82.4072 14.4278 81.9221 13.8063 81.6309 13.709C81.7761 13.4665 82.427 12.0975 84.9217 12.0783C87.4165 12.0591 88.1857 13.4473 88.4462 13.9522C88.7067 14.4572 89.883 16.6402 90.3195 20.8002C90.7272 24.9551 90.747 25.2662 90.6792 26.703C90.6305 27.4991 90.3681 29.3436 89.9112 31.3142C89.4939 32.9846 89.0376 34.8489 88.2024 35.693L88.2037 35.6892Z" fill="#A17C34"/>
<path fill-rule="evenodd" clip-rule="evenodd" d="M84.6721 38.9998C85.0475 39.0269 85.4225 38.9423 85.7499 38.7566C86.1089 38.7374 87.41 38.9025 88.4097 37.6309C88.4775 37.9214 88.6529 38.7086 88.1959 39.4075C88.4391 39.1643 88.7982 39.0677 88.8468 38.9998C88.866 39.3589 89.2059 40.4654 87.7691 43.1547C88.1569 42.7278 88.6132 42.747 89.0209 42.6984C89.0407 43.2033 89.3121 44.9019 88.594 45.8152C88.1185 46.4366 87.3415 46.2421 87.3415 46.2421C87.3529 46.1064 87.3529 45.97 87.3415 45.8344C87.3223 45.572 87.2251 45.3102 87.2935 45.1355C86.9181 44.964 86.5761 44.7272 86.2836 44.436C85.4388 43.6398 84.3419 42.2811 84.2644 41.2712C84.1671 40.1448 85.1771 39.9022 85.1771 39.9022C85.0925 39.8265 85.0203 39.738 84.9633 39.6398C84.9147 39.4753 84.866 39.2129 84.6721 38.9998Z" fill="#8C6228"/>
<path fill-rule="evenodd" clip-rule="evenodd" d="M77.1834 26.7856C77.1834 26.7856 77.1348 26.7178 76.873 27.0282C76.9217 26.7178 76.9703 26.426 76.9895 26.1444C77.1134 25.8837 77.2737 25.6419 77.4657 25.4263C77.3198 25.7168 77.2225 25.9792 77.2225 25.9792C77.2225 25.9792 77.5822 25.3092 78.1063 24.9015C78.4654 24.6103 78.9217 24.4746 79.1156 24.2026C79.3294 23.9114 79.2807 23.8628 79.3294 23.8141C79.3294 23.8141 79.8055 23.5037 80.5338 22.5904C80.6305 22.474 80.7764 22.3479 80.8737 22.2314C81.0382 22.1636 81.4266 21.9888 81.883 21.7552C82.3591 21.4935 82.8929 21.1344 83.2231 20.9872C83.8734 20.696 84.5633 20.7255 84.8833 20.2685C85.1258 20.2007 85.3876 19.4724 85.3396 18.8516C85.6986 18.9968 87.5431 20.1424 88.1748 22.6474C88.6311 24.424 87.8151 27.162 87.4753 28.4829C87.1354 29.8039 87.0874 30.7837 86.6113 31.3853C86.009 32.1821 84.0679 33.3053 83.5918 33.8615C83.1841 34.3178 81.961 35.473 82.009 36.3076C82.0577 36.929 82.8244 37.2676 82.9902 37.3853C83.1559 37.5031 83.1546 37.6477 83.4657 37.5773C83.7767 37.5069 83.8926 37.3636 84.0193 37.3636C84.1646 37.3828 84.1646 37.4122 84.2324 37.4122C84.2816 37.4107 84.3305 37.4041 84.3783 37.3924C84.3783 37.3924 84.3297 38.2762 82.2618 38.5444C82.1159 38.5642 81.9706 38.6122 81.7857 38.6416C82.0289 38.5252 82.1742 38.5252 82.4366 38.1661C82.1454 38.1175 81.3102 38.0688 81.0964 38.001C81.1642 37.8845 81.3876 37.5735 81.5719 37.4282C81.737 37.2829 81.5527 37.2362 81.4074 37.3117C81.1573 37.4819 80.9173 37.6665 80.6887 37.8647C80.4462 38.0784 80.2324 38.3696 79.8439 38.6327C79.7274 38.2442 79.7466 37.5063 80.2036 36.9725C80.0865 36.9917 79.8631 37.3316 79.65 37.2637C79.6115 36.9096 79.6344 36.5515 79.7178 36.2052C79.8343 35.768 80.4654 35.0013 80.4654 35.0013L83.5137 29.5543L84.1639 25.4282L77.1834 26.7844V26.7856Z" fill="#92723A"/>
<path fill-rule="evenodd" clip-rule="evenodd" d="M77.0186 27.0186C77.0186 27.0186 76.8535 27.1351 77.1838 27.3585C77.1351 27.4263 77.0186 27.6689 76.8727 27.834C76.7082 28.026 76.5329 28.145 76.465 28.3101C76.3198 28.65 76.2033 28.8829 76.2033 29.0289C76.2033 29.1748 76.1546 30.1066 75.747 30.7082C75.601 30.922 75.4359 31.281 75.3194 31.5236C75.0769 31.9505 74.8631 32.2916 74.8145 32.4836C74.7178 32.8234 74.65 33.7553 74.65 33.7553C74.65 33.7553 74.8638 33.4929 74.9412 33.3962C74.8241 33.6388 74.698 33.9005 74.5137 34.0951C74.6302 33.9978 74.97 33.7553 75.5428 33.2503C76.339 32.5809 77.5818 31.4545 79.0967 30.5623C78.6398 30.7274 78.2519 30.7274 77.9415 30.7761C78.1841 30.5335 80.3684 27.9703 81.514 27.7277C81.5835 27.6395 81.6182 27.5288 81.6113 27.4167L80.6302 27.3201L78.6398 27.7469L78.3492 26.2109L77.0186 27.0167V27.0186Z" fill="#B18E3E"/>
<path fill-rule="evenodd" clip-rule="evenodd" d="M80.1846 35.7572C80.1846 35.7572 79.9222 36.019 79.6796 36.6699C79.4929 36.4749 79.3328 36.256 79.2035 36.019C78.8444 35.4174 78.2915 34.65 77 35.0872C76.9808 34.6795 76.9513 34.4657 77 34.1745C77.2137 34.1265 77.864 33.6024 78.5142 32.835C78.9712 32.3108 79.398 31.7086 79.6892 30.9419C79.8812 30.796 80.2134 30.5534 80.6492 30.2718C81.2707 29.8449 82.0182 29.2619 82.1347 28.6116C81.8435 28.7281 81.222 29.0193 80.2896 28.9713C80.6492 28.8062 81.2022 28.6315 81.1344 27.9128C81.2803 27.8155 81.3968 27.7476 81.3968 27.7476C81.2873 27.7111 81.1722 27.6947 81.0569 27.699C81.0371 27.6312 81.0083 27.5345 80.8432 27.5825C80.678 27.6305 80.6512 27.6312 80.6294 27.699C80.5616 27.7188 80.3382 27.699 80.1731 27.8161C80.008 27.9332 79.5516 28.3204 79.3769 28.3883C79.4448 28.2718 79.5414 28.0977 79.5414 28.0977C79.5414 28.0977 79.0659 28.1457 78.726 28.2897C78.1046 28.5035 77.3865 28.892 76.6582 29.2702C76.726 29.1537 76.7555 29.0782 76.8035 29.0564C76.8515 29.0347 76.9686 29.0084 76.9686 28.9886C76.9686 28.9688 76.9206 28.7966 76.9494 28.7268C77.1671 28.2656 77.4241 27.8238 77.7174 27.4065C78.0572 26.9496 78.1251 26.2993 78.1251 26.2993L79.6105 25.5518L83.7852 24.5918L86.4944 24.7569L86.1545 26.6308L84.5545 29.9025L83.1856 32.883L81.622 34.7089L80.1852 35.7572H80.1846Z" fill="#543E26"/>
<path fill-rule="evenodd" clip-rule="evenodd" d="M86.9518 27.6485C86.9518 27.6485 85.3205 29.6677 84.8642 29.9787C85.1554 29.3573 86.9518 25.6581 87.6021 24.629C87.4568 24.5125 87.2622 24.5125 87.7186 22.709C87.3307 23.621 87.1944 24.0971 86.8744 24.3397C86.5544 24.5823 86.5147 24.5048 86.2984 24.5048C86.3393 24.4309 86.356 24.3461 86.3464 24.2623C86.3464 24.2623 84.9774 24.0971 84.0424 24.0971C83.1074 24.0971 81.2565 24.6021 80.2267 25.0098C79.4114 25.3496 78.955 25.3496 78.6638 25.5627C78.3726 25.8053 78.2075 26.0677 78.0616 26.1355C77.9451 26.2034 77.3922 26.3781 77.2654 26.5624C77.149 26.7544 76.955 26.9701 76.955 27.0187C76.955 27.0674 76.9064 27.1359 77.0523 27.0866C77.1003 27.0674 77.46 26.8728 77.8677 26.6303C78.4206 26.3199 79.0907 25.9608 79.5765 25.7471C80.9646 25.1935 81.4018 25.2907 82.0226 25.1743C82.6728 25.0578 83.6053 24.7858 84.2261 24.7858C84.8475 24.7666 86.0226 24.7858 86.2946 24.8344C86.1781 24.9317 86.0808 25.0482 86.1294 25.4559C86.1294 25.5723 86.0322 25.6984 85.9374 25.98C85.6469 26.7762 85.0933 28.0965 84.7854 28.7666C84.3586 29.6786 83.8734 30.4459 83.6334 30.9215C83.3934 31.397 82.8654 32.6495 82.3426 33.3195C81.8197 33.9896 81.5464 34.3973 81.3826 34.5432C81.2187 34.6891 80.0424 35.5525 80.1301 35.8635C80.3438 35.7957 81.6936 35.2875 82.6734 34.1842C83.6533 33.0808 83.8485 32.4075 84.6152 31.8053C85.3819 31.2031 85.9842 30.1938 86.3432 29.3592C86.644 28.5823 86.5762 28.3397 86.9544 27.6504L86.9518 27.6485Z" fill="#806031"/>
<path fill-rule="evenodd" clip-rule="evenodd" d="M51.7962 42.7183C51.7962 42.7183 51.5824 43.6015 51.0967 44.0386C50.6212 44.4662 49.7764 44.8348 49.6797 45.5535C49.5632 46.2716 50.5245 46.6313 50.5245 46.6313C50.5245 46.6313 49.9997 47.4953 49.9997 48.1455C49.9997 48.8156 49.9805 48.9417 50.0484 49.5823C49.9714 49.6319 49.9059 49.6973 49.8564 49.7743C49.8564 49.7743 49.9044 50.3958 50.3805 50.7836C50.8567 51.1714 51.2637 51.405 51.5063 51.3078C51.5433 51.3869 51.5758 51.4681 51.6036 51.551C51.6036 51.551 51.9632 50.6383 52.2058 49.8422C52.4484 49.0268 52.6621 49.1426 52.7588 48.0457C52.8554 46.9487 53.9108 45.0652 53.9108 45.0652L54.6308 43.4556L53.4564 42.543L51.7962 42.7177V42.7183Z" fill="#B6903C"/>
<path fill-rule="evenodd" clip-rule="evenodd" d="M53.9808 44.3008C53.7386 44.5494 53.5151 44.8155 53.312 45.0969C53.0016 45.5245 52.759 45.9123 52.3027 46.0781C51.8464 46.2438 51.5552 46.2425 51.584 46.6995C51.6128 47.1565 52.0403 47.3497 52.2829 47.5827C52.5453 47.8253 52.759 48.2329 52.6425 48.6899C52.7878 48.6221 53.0502 48.544 53.2928 48.0198C53.5353 47.4957 55.232 44.3014 55.232 44.3014H53.9808V44.3008Z" fill="#685026"/>
<path fill-rule="evenodd" clip-rule="evenodd" d="M60.6713 36.9316C60.6713 36.9316 60.8165 36.5437 60.6713 36.2621C60.5253 35.9709 59.6421 35.8736 59.205 35.5434C58.7487 35.2036 58.1951 34.9674 57.7388 35.1165C57.8066 34.9514 58.0786 34.5917 57.8553 34.5143C57.6415 34.4464 56.846 34.8055 56.6322 34.9706C56.4185 35.1357 55.9327 35.3296 55.8361 35.4468C55.7394 35.5639 55.5737 35.7866 55.4764 35.6893C55.3791 35.6215 55.3311 35.4468 55.166 35.5434C55.0009 35.64 54.206 36.2909 54.0594 36.6698C53.9129 37.0487 53.5833 37.8935 52.5932 38.8541C51.6031 39.8148 51.1756 40.4368 51.4668 40.7959C51.758 41.1549 51.8943 40.8932 51.9429 41.2036C51.9804 41.5083 51.9639 41.8172 51.8943 42.1162C51.7778 42.6212 51.5839 43.0967 51.8457 43.194C52.5157 43.4077 53.1666 43.002 53.3119 43.1261C53.6031 43.3879 53.1468 44.33 53.8361 44.5143C54.5356 44.7063 55.2249 44.3492 55.2249 44.3492L57.7682 42.9802L60.2149 41.6893L61.4668 39.2132L60.7954 37.1453L60.6674 36.9316H60.6713Z" fill="#D4B968"/>
<path fill-rule="evenodd" clip-rule="evenodd" d="M58.2716 42.8449C58.2716 42.8449 57.8441 42.1947 58.3689 41.6212C58.8937 41.0478 59.6405 40.8059 59.9317 40.4468C59.8763 40.3784 59.802 40.3279 59.718 40.3015C59.9113 39.9557 60.2062 39.6775 60.5628 39.5047C60.4175 39.3595 60.2229 39.243 60.0098 39.243C59.5337 39.243 59.2418 39.5342 58.8053 39.5342C58.3785 39.5342 58.3298 39.3204 58.3298 39.3204C58.3298 39.3204 59.0485 39.2526 58.9801 38.9319C58.9122 38.5921 58.7881 38.5921 58.7881 38.5921C58.7881 38.5921 60.1762 38.0161 60.4188 37.7089C60.6613 37.4017 60.6325 37.0388 60.6812 36.8935C60.8457 36.8935 61.8069 36.3886 62.1954 36.6023C62.5839 36.8161 62.3119 37.3985 62.3119 37.3985C62.3119 37.3985 63.4876 36.5147 64.0866 35.6481C64.6108 35.6967 64.8546 35.2891 65.2386 35.2891C65.7148 35.2891 66.4623 35.9393 66.6076 37.3275C66.7049 38.1236 66.8501 38.5799 66.7049 39.9879C66.637 40.7841 66.6562 42.4839 66.8969 43.3275C67.0613 43.9975 67.4498 43.9297 67.4498 43.9297C67.3902 44.1339 67.2721 44.3161 67.11 44.4539C66.8476 44.6964 66.8188 45.3377 66.8476 45.5803C66.8863 45.7576 66.935 45.9326 66.9935 46.1044C66.9935 46.1044 66.6831 46.4635 66.605 46.7067C66.5372 46.9492 66.2172 47.1143 65.9836 47.1143C65.75 47.1143 65.8671 47.0945 65.5567 47.1143C65.2463 47.1342 65.149 47.1822 64.9545 47.1143C64.7599 47.0465 64.6146 46.9684 64.6927 46.3463C64.7605 45.7249 62.2946 44.2785 62.2946 44.2785L58.2626 42.8417L58.2716 42.8449Z" fill="#CCA849"/>
<path fill-rule="evenodd" clip-rule="evenodd" d="M53.6419 48.9812C53.6419 48.9812 54.5251 50.1563 58.1564 50.1563C59.8844 50.1563 60.4867 49.9911 60.8444 49.8939C61.2329 49.7966 62.6889 49.2244 64.1552 47.4958C65.4755 45.9329 65.1843 45.2923 65.1843 45.2923L64.4163 45.1758L61.9203 45.5156L54.5347 48.6612L53.6387 48.9812H53.6419Z" fill="#585136"/>
<path fill-rule="evenodd" clip-rule="evenodd" d="M56.3487 49.2718C56.3487 49.2718 53.2031 49.9713 53.2031 47.9809C53.2031 46.0391 55.1449 44.0001 55.6306 43.641C56.1356 43.2814 57.3394 42.873 57.3394 42.873H60.2425L60.7954 44.3393L60.5529 47.5041L56.3487 49.2711V49.2718Z" fill="#252211"/>
<path fill-rule="evenodd" clip-rule="evenodd" d="M59.2519 43.4653C59.2519 43.4653 58.6503 42.9117 57.2814 43.6573C55.9124 44.4029 54.8052 45.9613 54.7374 47.3763C54.6695 48.6282 55.7665 49.5606 57.4753 49.6093C58.747 49.6573 59.5143 49.512 59.9028 49.4173C59.8055 49.3008 59.3006 48.6698 59.3006 48.6698L59.2526 43.4659L59.2519 43.4653Z" fill="#C3B378"/>
<path fill-rule="evenodd" clip-rule="evenodd" d="M58.6597 43.7752C58.6597 43.7752 58.5145 43.6587 58.0837 43.8917C57.7247 44.0837 57.2005 44.5912 56.7929 44.9503C56.5305 45.164 56.3653 45.2607 56.2169 45.4258C55.6146 46.1445 55.1097 47.3195 55.4015 47.9019C55.6933 48.4843 56.654 49.1544 59.1007 48.6981L58.6527 43.7759L58.6597 43.7752Z" fill="#E6D89C"/>
<path fill-rule="evenodd" clip-rule="evenodd" d="M57.864 44.9811C57.864 44.9811 57.4755 45.5833 57.4755 46.5446C57.4755 47.5251 58.0291 49.0879 60.0681 49.2044C61.631 49.3017 62.6793 46.9523 63.8153 46.0396C64.6793 45.3407 65.2035 45.3209 65.2035 45.3209C65.2035 45.3209 64.3203 44.3609 61.9612 43.1174C59.631 41.8649 57.0192 41.6998 55.6016 43.6223C56.2716 43.5737 58.4368 43.0201 58.4368 43.0201L59.4953 43.3599L57.864 44.9817V44.9811Z" fill="#252211"/>
<path fill-rule="evenodd" clip-rule="evenodd" d="M60.9131 46.2528C60.8453 46.1076 60.7966 45.913 61.0782 45.865C61.3598 45.817 61.4859 45.8452 61.5832 46.057C61.6805 46.2688 61.7752 46.4455 61.6312 46.5332C61.4859 46.6106 61.107 46.5332 60.9125 46.2516L60.9131 46.2528ZM60.4568 44.8839C60.4568 44.8839 60.3595 44.9517 60.4082 44.816C60.4274 44.6516 60.5541 44.3597 60.8645 44.4282C61.1749 44.4967 61.1077 44.8359 61.0565 44.9332C61.0053 45.0304 60.7461 45.1949 60.5515 45.1252C60.5015 45.1124 60.4606 45.0765 60.4413 45.0286C60.4221 44.9806 60.4269 44.9264 60.4542 44.8826L60.4568 44.8839Z" fill="#6F674D"/>
<path fill-rule="evenodd" clip-rule="evenodd" d="M34.1758 45.5032C34.1758 45.5032 34.9438 46.0792 35.8359 46.0568C36.7191 46.0369 37.8551 45.1249 38.3793 44.5419C38.6897 44.2021 38.9553 43.843 39.2433 43.5614C39.4865 43.3189 39.651 43.2024 39.7675 43.0373C39.9326 42.8453 40.1073 42.4843 40.195 42.3672C39.9812 42.5323 39.6708 42.8241 39.3502 43.0181C39.0398 43.2101 38.3697 43.571 38.0977 43.6683C37.8359 43.7656 35.1172 45.2043 35.1172 45.2043L34.1758 45.5032Z" fill="#AC924C"/>
<path fill-rule="evenodd" clip-rule="evenodd" d="M35.3496 38.3297C35.3496 38.3297 35.7765 38.0385 36.6021 37.8535C37.3982 37.6615 39.0002 37.5137 39.0002 37.5137L40.3205 38.0897L40.8446 40.0801L39.8846 42.1486L38.6616 42.9166L37.2728 40.6836L35.3528 38.3335L35.3496 38.3297Z" fill="#9F8E57"/>
<path fill-rule="evenodd" clip-rule="evenodd" d="M33.621 40.1068L33.1641 40.4479C33.1641 40.4479 33.2812 40.2341 33.3778 39.5839C33.4745 38.9337 33.9801 37.3509 34.718 36.4383C35.4559 35.5257 35.4367 35.5743 35.4367 35.5743C35.2993 35.5492 35.1578 35.5844 35.0482 35.6709C35.1455 35.4559 35.7669 34.6879 36.3884 34.3039C37.0098 33.9199 37.2524 33.7989 37.9026 34.1119C38.5529 34.4249 38.718 34.5874 39.1941 34.5682C39.6703 34.549 40.0773 34.0441 40.0773 34.0441C40.0773 34.0441 40.1746 34.3545 39.8156 35.0732C39.4565 35.7919 38.0389 37.2575 38.0389 37.2575L35.0873 39.2767L33.621 40.1087V40.1068Z" fill="#EAC970"/>
<path fill-rule="evenodd" clip-rule="evenodd" d="M35.8053 38.0872C35.8053 38.0872 37.9416 38.3784 38.5919 37.7768C38.6111 37.8446 38.6891 37.8446 38.6891 37.8933C38.6839 37.9299 38.6668 37.9639 38.6405 37.9899C38.7112 37.9786 38.7826 37.9722 38.8543 37.9707C38.9398 37.9962 39.0277 38.0125 39.1167 38.0194C39.1883 38.0178 39.2597 38.0112 39.3304 37.9995C39.3168 38.097 39.2641 38.1848 39.1845 38.2427C39.2818 38.2427 39.3765 38.2619 39.3765 38.3394C39.3765 38.4168 39.3957 38.6504 39.2792 38.699C39.1827 38.7257 39.08 38.7187 38.988 38.6792C38.9957 38.863 39.0456 39.0426 39.1339 39.204C39.3259 39.563 39.7355 39.972 40.2859 39.8542C40.2859 39.8542 40.5765 40.5531 39.3535 42.1064C39.189 42.3202 39.0136 42.6114 38.8005 42.8539C38.7163 43.0375 38.6519 43.2295 38.6085 43.4267C38.6085 43.4267 40.677 42.6306 41.269 40.8149C41.8712 38.9896 41.9877 37.1938 41.8712 35.5144C41.8514 35.0382 41.7739 34.699 41.6575 34.4558C41.3663 33.8536 40.5503 33.9509 40.2207 34.2907C39.7445 34.7669 38.9483 35.9509 37.8418 36.7662C36.7154 37.5816 36.6674 37.7262 35.8027 38.0872H35.8053Z" fill="#D7BC6B"/>
<path fill-rule="evenodd" clip-rule="evenodd" d="M33.2422 40.7088C33.2422 40.7088 32.8346 40.9513 32.6208 41.8608C32.407 42.7926 32.8128 43.9286 33.0477 44.2876C33.2826 44.6467 33.8157 45.6278 34.9216 45.6764C35.1953 45.675 35.466 45.6188 35.7178 45.5113C36.1038 45.3343 36.4659 45.1091 36.7955 44.8412C37.2717 44.4822 37.6595 44.1718 37.6109 44.1424C37.4944 44.0937 34.679 41.7635 34.679 41.7635L33.6205 40.582L33.2416 40.71L33.2422 40.7088Z" fill="#585136"/>
<path fill-rule="evenodd" clip-rule="evenodd" d="M35.9039 44.573C35.9039 44.573 36.4767 44.525 36.8166 44.3113C37.1564 44.0975 34.8262 41.7871 34.8262 41.7871L34.9913 44.2831L35.9039 44.573Z" fill="#453A25"/>
<path fill-rule="evenodd" clip-rule="evenodd" d="M33.4278 40.5342C33.4278 40.5342 33.1366 41.0878 33.1366 41.2337C33.0879 41.7092 33.2338 43.2043 33.3503 43.6798C33.4668 44.1847 34.0978 44.9515 34.9138 44.9515C35.4182 44.9515 36.1177 44.6411 36.1177 44.5636C36.1177 44.4663 35.399 44.3716 35.205 44.01C35.0886 43.818 35.0399 43.3406 35.013 42.858C34.9938 42.5476 34.9938 42.2078 35.1103 42.09C35.3727 41.7988 35.4207 40.9636 35.4207 40.9636L36.3526 39.2324H35.127L33.6607 40.1451L33.4278 40.5342Z" fill="#84754B"/>
<path fill-rule="evenodd" clip-rule="evenodd" d="M33.0684 41.0687C33.0684 41.0687 34.0284 39.797 34.8936 39.5052C35.7589 39.2133 36.1461 39.3887 36.1461 39.3887L35.6412 40.6802L34.9224 41.4764L34.9711 41.8841C34.9711 41.8841 34.854 42.9618 35.5727 43.7093C36.2914 44.4569 36.8252 44.4281 37.1362 44.4281C37.4472 44.4281 38.34 44.1657 38.7964 43.0879C39.204 42.0786 39.5439 40.7839 38.7285 39.486C37.9317 38.1945 36.5244 38.1445 36.2524 38.1445C35.9804 38.1445 33.8447 38.2514 33.0684 41.0668V41.0687Z" fill="#252211"/>
<path fill-rule="evenodd" clip-rule="evenodd" d="M57.7192 45.3891C57.3602 45.224 57.7 44.2147 58.059 43.9037C58.4181 43.5927 58.8744 43.2343 59.6712 43.185C59.9618 43.1658 60.2434 43.3501 60.1954 43.5447C60.1275 43.9037 59.6226 44.4087 59.1662 44.7677C58.5352 45.2631 58.1269 45.5735 57.7192 45.3891Z" fill="#F7F7E7"/>
<path fill-rule="evenodd" clip-rule="evenodd" d="M38.3011 39.884C38.5635 39.8648 38.9034 40.076 38.9712 40.3602C39.039 40.6706 38.8061 41.292 38.3011 41.292C37.8934 41.292 37.6797 40.7871 37.6797 40.6418C37.6843 40.5223 37.7177 40.4057 37.777 40.3019C37.7962 40.2725 37.8448 39.9327 38.3011 39.884Z" fill="#F8F6DE"/>
<path fill-rule="evenodd" clip-rule="evenodd" d="M34.5145 40.1074C34.5145 40.1074 33.8444 40.4178 33.534 41.0674C33.3122 41.5471 33.2451 42.0839 33.342 42.6034C33.3906 42.846 33.6332 43.4476 33.7983 43.6613C33.9634 43.8751 34.1868 44.021 34.3519 44.0012C34.517 43.9813 34.8562 43.5449 34.8562 43.2831C34.8562 43.0213 34.8761 41.9141 35.1961 41.3119C35.4777 40.7103 34.5164 40.1081 34.5164 40.1081L34.5145 40.1074Z" fill="#D4C38B"/>
<path fill-rule="evenodd" clip-rule="evenodd" d="M34.6117 40.0587C34.4952 40.1265 34.3013 40.2238 34.3493 40.3499C34.3979 40.4664 34.8056 40.5419 34.9515 40.8261C35.1166 41.1173 35.1166 41.4277 35.068 41.5736C35.1948 41.5133 35.3099 41.431 35.4078 41.3304C35.6216 41.0878 35.8834 40.7582 36.1067 40.7582C36.2526 40.7582 36.3979 40.8261 36.5342 40.8261C36.748 40.8261 36.9611 40.7582 36.9906 40.5349C37.0386 40.2437 36.5829 39.9813 36.3205 40.0299C36.3691 39.8379 36.437 39.5544 36.2232 39.3598C36.0094 39.1653 35.34 39.5057 35.1941 39.603C35.0482 39.7003 34.6117 40.0593 34.6117 40.0593V40.0587Z" fill="#E2D59D"/>
<path fill-rule="evenodd" clip-rule="evenodd" d="M50.0389 60.4556L51.4757 60.0312L51.8834 60.3225C51.8834 60.3225 52.1739 60.9439 52.6309 61.0213C52.485 61.3317 52.1061 61.5973 52.1259 61.8175C52.1458 62.0376 52.3397 62.206 52.3397 62.206C52.3397 62.206 51.0482 64.3417 53.5922 66.494C52.9899 66.7365 52.2232 67.07 51.8155 67.262C52.1061 67.3298 52.7275 67.454 52.9899 67.6895C53.2523 67.925 53.2523 67.9999 53.4949 68.1458C53.7375 68.2917 53.8827 68.4857 53.8347 68.5727C53.6696 68.4754 53.116 68.1848 53.0194 68.4562C52.9227 68.7276 50.6213 68.6213 50.6213 68.6213L46.7378 69.3688C46.7378 69.3688 46.8831 68.9804 46.4754 68.6213C45.9999 68.1945 45.4175 68.6405 44.796 68.165C43.9807 67.5436 43.9512 66.8249 43.6895 66.5535C43.9512 66.3884 44.4856 66.1458 45.7573 65.9775C45.7087 65.8802 45.5435 65.589 45.6408 65.3273C45.7573 64.9874 46.2424 64.7737 46.0971 64.3672C46.3109 64.3186 46.4075 64.3186 46.9419 63.6485C47.4469 62.9785 47.7573 62.8332 48.1458 62.7845C48.5343 62.7359 48.7672 62.7845 49.4859 62.1144C49.9903 61.6389 49.8258 61.2313 49.8258 61.2313C49.8258 61.2313 50.1554 61.1244 50.0395 60.4543L50.0389 60.4556Z" fill="#CBAC5A"/>
<path fill-rule="evenodd" clip-rule="evenodd" d="M45.7972 60.6723C45.8164 60.5751 45.8944 60.5264 46.4186 60.5751C46.9428 60.6237 50.2631 60.2647 51.1661 60.216C52.0788 60.1482 55.2922 60.1962 56.8557 60.5264C58.4192 60.8567 60.0013 61.2451 60.768 61.4391C61.536 61.6528 61.778 61.7296 61.7485 61.8269C61.7293 61.9242 61.5565 62.0189 61.4573 61.992C61.3607 61.9728 58.8167 61.1959 58.0308 61.032C57.2448 60.8682 54.5255 60.4298 53.0388 60.456C51.6506 60.4759 51.097 60.4368 49.9226 60.5725C48.7476 60.7184 46.8058 60.9123 46.2234 60.8349C45.6474 60.7671 45.7664 60.7671 45.7959 60.6698L45.7972 60.6723Z" fill="#D6BC6F"/>
<path fill-rule="evenodd" clip-rule="evenodd" d="M53.6109 68.2817C53.6109 68.2817 55.6013 69.3594 56.32 70.6797C56.8442 71.6602 56.0096 72.146 56.0096 72.146C56.0096 72.146 57.136 72.146 56.9901 72.7674C56.9222 73.1553 55.0483 74.2036 53.7958 74.7572C52.5242 75.3108 52.5728 75.282 51.9514 75.3786C51.3491 75.4759 49.6986 75.1866 49.3587 75.6698C49.0189 76.153 49.1667 76.6509 49.2614 76.7284C49.3587 76.7962 50.1453 76.8935 50.1453 76.8935C50.1453 76.8935 49.9802 77.3498 48.3494 77.3985C46.7187 77.4471 46.3104 77.5629 46.2131 77.7383C46.1158 77.9028 46.5235 77.8061 47.2717 77.9303C48.0192 78.0468 49.0675 78.1223 49.0675 78.1223C49.0675 78.1223 48.7277 78.4135 47.8445 78.6465C46.8346 78.9082 45.2518 79.1514 44.7763 79.4426C45.0189 79.6077 45.3786 79.8503 45.5443 79.8695C45.1366 79.9668 44.5632 80.1805 44.4666 80.258C44.6118 80.3553 44.8064 80.4717 44.8064 80.4717C44.8064 80.4717 43.9904 81.4522 43.5149 81.6954C43.0394 81.9386 40.3014 83.2097 39.3594 82.9671C37.0099 82.3457 36.7187 79.7729 36.1459 79.5789C35.2819 79.2877 34.8742 79.8695 34.1069 79.4618C34.4467 79.2193 34.6317 79.074 34.9907 78.9089C34.6022 78.7169 32.5926 77.4426 32.5926 77.4426C32.3825 76.9846 32.1492 76.5375 31.8938 76.1031C31.5053 75.433 30.9338 74.5396 30.505 73.753C29.5731 72.025 29.5245 71.2289 28.6797 70.2484C28.8256 70.0564 29.3299 70.0833 29.3299 70.0833L36.4083 72.4135L48.9594 72.777L52.2234 68.1172L53.6115 68.2823L53.6109 68.2817Z" fill="#DFC677"/>
<path fill-rule="evenodd" clip-rule="evenodd" d="M35.0195 75.388C35.0953 75.4723 35.1836 75.5444 35.2813 75.6018C35.5245 75.7669 35.8835 75.9615 36.1261 76.252C36.2234 76.1067 36.4659 75.8443 36.8941 76.252C37.3223 76.6597 37.8541 76.3691 38.185 76.4658C38.5248 76.5829 38.544 76.6309 38.544 76.6309C38.544 76.6309 38.736 76.4658 39.1655 76.2911C39.4279 76.1938 39.7383 76.1259 40.0781 76.0293C40.3885 75.9615 40.7283 75.8642 40.9619 75.8642C41.1757 76.0095 41.9424 76.8242 45.0202 75.6216C47.9232 74.4952 48.5927 74.3691 49.0784 74.5432C49.1271 74.4267 49.1757 74.2034 49.9232 74.2328C49.9232 73.9224 49.3018 72.8639 49.3018 72.8639L45.8746 71.6895H44L38.3789 72.7186L35.264 74.4959L35.0215 75.3919L35.0195 75.388Z" fill="#C4A859"/>
<path fill-rule="evenodd" clip-rule="evenodd" d="M33.1465 73.4177C33.1465 73.4177 33.2143 73.9419 33.9913 74.4955C34.7593 75.0484 35.0006 75.3787 35.0006 75.3787C35.0006 75.3787 35.1465 75.1867 35.263 74.9908C35.3794 74.7771 35.4767 74.5345 35.6706 74.4667C36.0591 74.3016 36.9423 74.612 37.1369 74.5633C37.302 74.5153 37.2534 74.1755 37.4281 74.1755C37.8358 74.1556 38.0975 74.4372 38.2434 74.4372C38.3894 74.4372 38.7478 74.418 38.7964 74.3406C38.845 74.2632 38.8642 73.4568 39.4178 73.0683C40.0201 72.6414 40.758 72.8257 40.9538 72.923C40.9538 73.0683 40.973 73.428 41.3615 73.4472C41.75 73.4664 41.7884 73.3985 42.1295 73.515C42.4706 73.6315 42.877 73.4958 43.0614 74.068C43.2265 74.02 43.615 73.9713 43.5177 73.4177C43.7097 73.2724 43.8774 73.1752 44.2857 72.6024C44.383 72.4571 44.5474 72.292 44.6742 72.0782C45.014 72.0782 45.4217 72.0104 45.965 72.4859C45.7999 72.6024 45.7026 72.6779 45.6546 72.7963C45.7968 72.937 45.9265 73.0897 46.0425 73.2526C46.1884 73.4446 46.2857 73.6801 46.47 73.7288C46.8777 73.8452 47.5478 73.6801 48.2953 73.7288C49.014 73.7774 49.6156 74.0392 49.878 74.2043C49.9753 74.1563 49.9753 74.1364 50.2178 74.1851C50.4604 74.2337 50.6447 74.2529 50.383 73.9425C50.5282 74.0104 50.6934 74.1563 50.8393 74.0104C50.9852 73.8644 51.101 73.6513 51.5087 73.6027C51.9164 73.554 52.0623 73.6219 52.2274 73.195C52.4412 72.6708 51.7033 72.6708 51.7033 72.6708C51.7033 72.6708 52.0431 72.3598 52.422 71.9521C52.8783 71.5252 53.4025 70.9716 53.5286 70.292C53.7423 69.0395 52.5193 68.875 52.5193 68.875L46.5871 70.7003L39.3346 70.3406L33.1503 73.4184L33.1465 73.4177Z" fill="#927D49"/>
<path fill-rule="evenodd" clip-rule="evenodd" d="M27.8163 56.2809C27.8163 56.2809 27.6243 56.5235 27.5059 57.0963C27.3875 57.6691 27.4381 57.6012 27.3408 58.0089C27.2435 58.4166 26.0486 62.4748 26.4966 63.8438C26.9446 65.2128 27.7203 65.7177 28.2054 66.8243C28.3027 67.0668 28.3974 67.2128 28.448 67.4265C28.6131 68.1446 28.4678 68.6982 28.6617 69.4169C28.7296 69.6595 28.9049 69.9411 29.1667 70.2323C29.7427 70.8339 30.6816 71.4067 31.0867 71.8144C31.6589 72.4166 32.4749 73.6403 33.5136 73.7561C34.0672 73.824 34.8537 73.591 35.504 73.2032C36.08 72.8435 36.4358 72.3392 37.04 72.0512C37.4669 71.8374 37.9232 71.76 38.3309 71.6627C39.1757 71.4976 39.943 71.4707 40.3993 71.5654C41.0982 71.7113 42.7488 72.2163 43.6633 72.2163C44.378 72.2047 45.0886 72.107 45.7798 71.9251C47.168 71.5174 48.8473 70.8179 49.9545 70.5075C50.6048 70.3155 51.1289 70.2649 51.6633 70.1484C52.576 69.9347 53.3427 69.6435 53.7798 69.0899C53.4886 68.75 53.1296 68.2259 51.1872 68.2451C48.9837 68.2937 46.4397 69.5168 45.1872 69.7113C43.9347 69.9059 43.3913 70.0704 41.9929 69.5654C40.6221 69.0553 40.5766 68.718 40.5766 68.718C40.5766 68.718 39.1373 67.7113 38.535 65.1449C37.9328 62.5785 38.535 60.7084 40.0985 58.9312C40.5062 58.4748 40.4089 58.0672 40.4089 58.0672C40.4089 58.0672 41.4381 56.679 41.1565 55.3792C40.8461 54.0876 38.8557 54.35 38.8557 54.35L27.8169 56.2809H27.8163Z" fill="#6E6342"/>
<path fill-rule="evenodd" clip-rule="evenodd" d="M29.4752 60.6016C29.3896 60.7625 29.3494 60.9437 29.3588 61.1257C29.378 61.3875 29.456 61.7273 30.242 62.4947C30.912 63.1641 30.7661 63.9116 30.7661 63.9116C30.7661 63.9116 31.1034 63.9795 32.0186 63.5513C32.7373 63.2115 32.9786 63.8137 32.9786 63.8137C33.1878 63.704 33.4146 63.6317 33.6487 63.6C33.8608 63.5804 34.0661 63.5149 34.2503 63.408C34.2503 63.408 35.0951 64.272 35.833 64.6796C36.5031 65.0393 36.8916 65.2819 37.2218 65.0393C37.5322 64.8256 37.5322 64.3884 37.5124 64.1945C37.4353 64.0155 37.3378 63.8461 37.2218 63.6896C37.008 63.3792 36.6682 63.0195 36.6458 62.7296C36.5972 62.0601 37.1508 61.2633 37.0336 61.0694C36.9165 60.8755 36.4807 60.8268 35.4029 61.2153C34.2868 61.584 29.4708 60.6035 29.4708 60.6035L29.4752 60.6016Z" fill="#39331F"/>
<path fill-rule="evenodd" clip-rule="evenodd" d="M32.0194 64.9415C32.0194 64.9415 31.4665 64.4174 31.6604 61.8734C31.8951 61.87 32.1295 61.8927 32.3593 61.9412C32.3593 61.9412 32.6607 63.9124 32.0194 64.9415Z" fill="#292311"/>
<path fill-rule="evenodd" clip-rule="evenodd" d="M28.0788 54.3393C28.156 54.2822 28.2276 54.2179 28.2926 54.1473C28.1006 54.5063 27.2142 55.9431 27.9329 58.2055C28.6516 60.4577 30.4571 62.137 32.6804 62.2151C34.9038 62.2932 36.0724 61.2052 37.4088 59.5745C37.9329 58.9242 38.5352 58.1082 39.0689 57.5553C39.8651 56.6906 40.4865 56.4481 40.4865 55.6135C40.4865 53.9047 38.7387 53.1373 36.1659 52.3706C33.5931 51.6039 31.2724 51.6986 30.0686 52.2234C28.8942 52.7956 28.3892 53.3978 28.0782 54.3399L28.0788 54.3393Z" fill="#252211"/>
<path fill-rule="evenodd" clip-rule="evenodd" d="M36.3398 65.7085L36.5318 65.6112C36.5318 65.6112 36.5798 64.8432 36.8909 64.8637C37.2013 64.9123 37.3472 65.3206 37.3177 65.4659C37.2985 65.6112 37.2211 65.8544 36.9101 65.825C36.5024 65.8346 36.3379 65.7085 36.3379 65.7085H36.3398Z" fill="#3F3824"/>
<path fill-rule="evenodd" clip-rule="evenodd" d="M35.4766 62.4467C35.4766 62.4467 35.6686 62.3788 35.9034 62.6118C36.0954 62.6118 36.9326 62.5145 37.195 62.6796C37.4574 62.8448 37.5348 62.99 37.5348 62.99C37.5348 62.99 36.5543 63.2038 36.0199 62.99C35.4766 62.8057 35.4766 62.4467 35.4766 62.4467H35.4766Z" fill="#2D2815"/>
<path fill-rule="evenodd" clip-rule="evenodd" d="M39.7959 62.5925C39.7959 62.5438 39.2717 62.1848 38.7181 62.0677C38.6208 62.0485 38.601 62.1163 38.5261 62.1163C38.4775 62.0971 38.4583 61.9512 38.4583 61.9512L38.1434 62.1169C38.1434 62.1169 38.0948 62.1848 38.2599 62.3089C38.4052 62.4254 38.6484 62.5227 38.7162 62.7166C38.784 62.9105 38.784 62.9784 38.8135 63.0078C38.8327 63.027 39.1725 63.0078 39.3376 62.9105C39.5028 62.8133 39.8138 62.6545 39.794 62.5905L39.7959 62.5925Z" fill="#82764F"/>
<path fill-rule="evenodd" clip-rule="evenodd" d="M34.8926 64.5628C34.8926 64.5628 34.9892 63.8934 35.6401 63.8639C36.3095 63.8153 36.4363 64.4655 36.4363 64.4655L36.0478 64.854C36.0478 64.8444 35.7566 64.4367 34.8958 64.5628H34.8926Z" fill="#2D2816"/>
<path fill-rule="evenodd" clip-rule="evenodd" d="M39.1168 61.6798C39.1168 61.6798 38.7571 62.0683 37.9616 62.1848C37.8937 62.0875 37.7478 61.8936 37.9616 61.5832C38.1753 61.2728 38.4179 61.1755 38.6604 61.2722C38.879 61.3076 39.057 61.4667 39.1168 61.6798Z" fill="#574F35"/>
<path fill-rule="evenodd" clip-rule="evenodd" d="M40.5824 62.1552C40.6023 62.0579 40.5344 62.0387 40.5824 61.9901C40.6304 61.9414 40.8935 61.8448 40.9421 61.8928C40.9613 61.9126 40.9421 61.9901 40.9421 62.0848C40.9421 62.1795 40.9421 62.2768 40.8935 62.3465C40.8256 62.4438 40.6317 62.4925 40.5344 62.4637C40.4372 62.4349 40.418 62.2985 40.418 62.2717C40.466 62.2525 40.5824 62.2038 40.5824 62.1552ZM42.24 61.1069C42.24 61.0582 42.4052 60.9609 42.5024 60.9609C42.6477 60.9609 42.6477 61.0774 42.6676 61.1069C42.7156 61.1261 42.7156 61.087 42.7642 61.1747C42.8128 61.2624 42.8813 61.4173 42.832 61.5145C42.7828 61.6118 42.5895 61.679 42.5415 61.6598C42.4736 61.6112 42.2599 61.1747 42.24 61.1069Z" fill="#82764F"/>
<path fill-rule="evenodd" clip-rule="evenodd" d="M38.9023 62.3795C38.9023 62.3795 39.1161 62.4275 39.4073 62.6707C39.31 62.7386 39.1641 62.816 39.1641 62.816C39.1641 62.816 39.1449 62.5927 38.9023 62.3789V62.3795Z" fill="#6E6342"/>
<path fill-rule="evenodd" clip-rule="evenodd" d="M38.4276 60.2434C38.379 60.1954 38.5729 60.0789 38.6894 60.0981C38.8058 60.1173 38.8545 60.1954 38.9806 60.2146C39.1066 60.2338 39.1265 60.166 39.1726 60.1173C39.2186 60.0687 39.3863 60.0981 39.4151 60.1173C39.4331 60.1387 39.4493 60.1613 39.4638 60.1852C39.4679 60.1105 39.5029 60.0409 39.5604 59.9932C39.6358 59.9377 39.7325 59.9198 39.8228 59.9445C39.842 60.0124 39.9393 60.2549 39.9201 60.3036C39.9009 60.3522 39.6097 60.4207 39.5604 60.3714C39.609 60.4885 39.8228 60.7311 39.8516 60.7791C39.8804 60.8271 39.6378 60.9442 39.5412 60.925C39.4055 60.9154 38.5703 60.4297 38.425 60.2453L38.4276 60.2434ZM39.6993 58.6319C39.6813 58.583 39.6469 58.5418 39.602 58.5154C39.5342 58.4962 39.3108 58.5154 39.3108 58.6319C39.3108 58.7484 39.5028 59.3999 39.7185 59.7391C39.9617 60.0789 40.1262 60.3599 40.2913 60.438C40.3988 60.4869 40.526 60.4445 40.5825 60.3407C40.6017 60.2921 40.6503 59.933 40.6311 59.0882C40.6119 58.2434 40.5825 57.4281 40.5338 57.3794C40.4852 57.3308 40.2913 57.3314 40.2234 57.4281C40.1556 57.5247 39.7185 58.4866 39.6986 58.6319H39.6993Z" fill="#585136"/>
<path fill-rule="evenodd" clip-rule="evenodd" d="M38.8346 63.6012C38.8346 63.6012 38.4947 63.3875 38.1645 63.5334C37.8541 63.6793 37.8733 64.2521 37.8733 64.2521C38.0151 64.3076 38.1751 64.2894 38.3008 64.2035C38.5146 64.0582 38.7859 63.8156 38.8346 63.6019V63.6012Z" fill="#574F35"/>
<path fill-rule="evenodd" clip-rule="evenodd" d="M39.4752 64.3694C39.456 64.1774 39.2832 64.1774 39.2832 64.0782C39.3077 63.9806 39.3957 63.9124 39.4963 63.9131C39.5936 63.9131 39.6883 64.0296 39.8074 64.1051C39.9238 64.1729 40.0986 64.2971 40.1178 64.4449C40.137 64.5928 39.9258 64.9979 39.6909 64.9979C39.456 64.9979 39.5258 64.5608 39.4771 64.3669L39.4752 64.3694ZM41.3491 64.107C41.3491 64.107 40.9606 64.2235 40.9894 64.107C41.0182 63.9905 41.1066 63.9617 41.2326 63.9617C41.2967 63.8947 41.3829 63.8531 41.4752 63.8446C41.528 63.842 41.5799 63.8594 41.6205 63.8933C41.6205 63.8933 41.8829 63.7768 41.9603 63.8446C42.0378 63.9125 41.9802 63.9125 42.0282 63.9905C42.0893 64.0772 42.1294 64.1769 42.1453 64.2817C42.1453 64.3592 41.8541 64.5243 41.6205 64.4955C41.3491 64.4373 41.3971 64.1557 41.3491 64.107ZM43.6109 63.6699C43.6109 63.6699 43.7274 63.7377 43.6307 63.8158C43.5629 63.8837 43.223 64.0078 42.9312 64.0296C42.64 64.0296 42.3782 64.0776 42.3782 63.9809C42.3782 63.8843 42.6208 63.6897 42.7661 63.6411C42.8251 63.5672 42.9147 63.5243 43.0093 63.5246C43.1258 63.5246 43.5814 63.476 43.7082 63.4568C43.8246 63.4369 43.9219 63.5048 43.8534 63.6021C43.8246 63.6699 43.6109 63.6699 43.6109 63.6699ZM44.281 60.6721C44.281 60.6721 44.135 60.9825 43.9706 60.9825C43.8054 60.9633 43.8054 60.9147 43.8054 60.8661C43.8054 60.7982 43.9706 60.6235 43.9507 60.5749C43.9027 60.5749 43.7856 60.5749 43.8054 60.4584C43.8054 60.3611 43.9706 60.2446 44.1158 60.2664C44.2256 60.1762 44.3623 60.1251 44.5043 60.1211C44.6694 60.1211 44.8147 60.1691 44.8147 60.2664C44.8147 60.3637 44.6227 60.5768 44.5523 60.6261C44.4749 60.7035 44.3776 60.7541 44.281 60.6741V60.6721ZM42.0672 66.4097C42.0672 66.4097 41.8752 66.4296 41.8752 66.5262C41.8752 66.5749 41.9232 66.5749 41.9917 66.5461C42.0311 66.5438 42.0702 66.5372 42.1082 66.5262C42.1274 66.5461 42.1274 66.6427 42.2733 66.6427C42.3931 66.6265 42.5086 66.5869 42.6131 66.5262C42.7296 66.4782 42.8269 66.4289 42.8269 66.3342C42.7782 66.1691 42.681 66.091 42.5357 66.091C42.4612 66.0863 42.387 66.1032 42.3219 66.1397C42.3219 66.1397 42.2733 66.0424 42.1082 66.1397C41.943 66.2369 41.9622 66.2369 42.0109 66.2856C42.0979 66.363 42.0691 66.4136 42.0691 66.4136L42.0672 66.4097ZM40.9702 67.4197C40.9702 67.371 41.2128 67.2737 41.2806 67.3032C41.3485 67.3224 41.5424 67.691 41.5424 67.7301C41.5424 67.7787 41.2998 67.8952 41.2026 67.8952C41.1053 67.8952 40.9408 67.7301 40.9408 67.7032C40.9408 67.684 41.0573 67.6552 41.0573 67.6353C41.0861 67.5873 40.9702 67.4702 40.9702 67.4216V67.4197ZM40.2022 66.0021C40.2509 65.9829 40.2509 65.9342 40.3187 65.8856C40.3618 65.8569 40.4157 65.8498 40.4646 65.8664C40.4993 65.8045 40.5599 65.7615 40.6298 65.7493C40.7462 65.7301 40.8435 65.7493 40.8218 65.7979C40.8218 65.9438 40.919 66.0405 40.919 66.1569C40.919 66.2734 40.8512 66.4193 40.6086 66.5166C40.3661 66.5845 40.0358 66.5845 39.9872 66.5653C39.9386 66.5461 39.8899 66.3515 39.9386 66.2542C39.9872 66.1569 40.1229 66.0507 40.201 66.0021H40.2022Z" fill="#82764F"/>
<path fill-rule="evenodd" clip-rule="evenodd" d="M40.5128 66.0684C40.5128 66.0684 40.3477 66.1656 40.3477 66.2143C40.333 66.2613 40.3265 66.3104 40.3285 66.3596C40.3285 66.3884 40.5422 66.3404 40.571 66.3109C40.5806 66.2917 40.5128 66.1189 40.5128 66.0684Z" fill="#6E6342"/>
<path fill-rule="evenodd" clip-rule="evenodd" d="M39.0672 65.6113C39.1639 65.6311 39.329 65.6113 39.4551 65.6599C39.5523 65.7086 39.6202 65.8059 39.5229 65.9223C39.4256 66.0388 39.3309 66.2135 39.1152 66.1841C38.8727 66.1649 38.6397 66.0388 38.6397 65.9415C38.6315 65.8172 38.6734 65.6948 38.7562 65.6017C38.8535 65.5243 38.9015 65.5729 39.0666 65.6113H39.0672Z" fill="#585136"/>
<path fill-rule="evenodd" clip-rule="evenodd" d="M38.9515 65.709C38.9515 65.709 38.6411 65.9515 38.563 66.0687C38.4657 66.1851 37.9902 66.7867 37.8449 66.9128C37.8932 66.8277 37.9482 66.7466 38.0094 66.6703C37.8174 66.793 37.6734 66.9781 37.6017 67.1944C37.4852 67.5541 38.2526 67.748 38.7569 67.8939C39.2612 68.0399 39.4564 68.0859 39.4564 68.0859C39.2708 67.8069 39.1113 67.5112 38.9803 67.2027C38.7883 66.7464 38.6891 66.6978 38.8151 66.484C38.9124 66.2703 39.0583 66.125 39.0583 65.9599C39.0001 65.8063 38.9515 65.709 38.9515 65.709Z" fill="#574F35"/>
<path fill-rule="evenodd" clip-rule="evenodd" d="M27.8841 66.4764C27.9548 66.4894 28.0272 66.4894 28.0979 66.4764C28.2431 66.4566 29.758 65.9004 31.3407 66.0003C32.5256 66.0719 33.6999 66.2649 34.8454 66.5763C36.8358 67.1004 39.3113 68.1391 40.9132 68.7318C41.3401 68.8963 41.758 69.1881 42.0652 69.3039C43.2889 69.7801 43.3369 69.7801 44.0556 69.9062C44.9004 70.0227 45.7644 69.7411 46.6675 69.5471C47.774 69.3039 49.6671 69.1875 51.3273 68.9449C51.8641 68.8705 52.3936 68.7504 52.91 68.5859C52.91 68.5859 51.5897 69.9062 48.4243 70.3817C47.1448 70.576 45.8445 70.5924 44.5606 70.4303C43.5507 70.3331 42.8812 70.1871 42.3763 70.0419C41.8035 69.8767 40.6284 69.4396 39.182 69.0819C38.1721 68.8195 37.0457 68.6255 35.7548 68.383C32.5702 67.7999 29.1142 67.1305 27.8828 66.4803L27.8841 66.4764Z" fill="#252211"/>
<path fill-rule="evenodd" clip-rule="evenodd" d="M24.3112 60.4766C23.5432 61.1268 22.7284 61.7482 21.9329 62.3498L19.5348 64.1924C18.7195 64.794 17.9233 65.4154 17.1073 66.0177C16.2913 66.6199 15.4766 67.1921 14.6113 67.7457C15.3793 67.0954 16.194 66.4932 17.0094 65.9012C17.8248 65.3092 18.6702 64.7287 19.4568 64.1284L21.8548 62.2833C22.6798 61.6817 23.476 61.0602 24.3112 60.4778V60.4766ZM20.0686 67.2727C20.0686 67.2727 20.9326 66.554 22.0104 65.5447C23.3499 64.2929 24.9908 62.6903 25.515 62.3998L20.068 67.2734L20.0686 67.2727Z" fill="#CFB66C"/>
<path fill-rule="evenodd" clip-rule="evenodd" d="M20.0684 67.2723C20.4959 66.8455 20.9522 66.4282 21.4085 66.0199L22.1074 65.4183C22.3212 65.2263 22.5644 65.0106 22.7775 64.7968C23.2044 64.3699 23.6223 63.913 24.0492 63.4765C24.2607 63.257 24.4844 63.0495 24.7192 62.8551C24.8366 62.7512 24.967 62.663 25.1071 62.5927C25.2242 62.5248 25.3503 62.4007 25.5148 62.3789C25.4181 62.5248 25.3016 62.5927 25.2044 62.7187C25.0879 62.816 24.9906 62.9325 24.894 63.0291C24.6802 63.2429 24.4376 63.4368 24.2239 63.6314C23.7676 64.0199 23.292 64.3994 22.8357 64.8058C22.3794 65.2122 21.9525 65.6506 21.4956 66.0583C21.0008 66.4762 20.5445 66.8839 20.0684 67.2743V67.2723ZM25.8744 63.3888C25.8744 63.3888 22.7096 66.4864 22.0588 66.9907L25.8744 63.3888Z" fill="#CFB66C"/>
<path fill-rule="evenodd" clip-rule="evenodd" d="M25.8743 63.3887C25.5896 63.7182 25.2843 64.0295 24.9604 64.3205L24.0004 65.2332C23.69 65.5436 23.3981 65.8546 23.0685 66.165C22.7287 66.4562 22.4183 66.741 22.0586 67.0098L22.9904 66.0972C23.3015 65.7868 23.6413 65.525 23.9716 65.214L24.9034 64.3013C25.2234 63.9813 25.5344 63.6703 25.8743 63.3887ZM26.0196 65.068C25.7278 65.8822 25.3841 66.6768 24.9904 67.4469C24.1751 69.0783 22.952 71.1167 22.4176 72.156L26.0196 65.068Z" fill="#CFB66C"/>
<path fill-rule="evenodd" clip-rule="evenodd" d="M26.0201 65.0684C26.0201 65.4274 25.9228 65.7384 25.8063 66.0488C25.6928 66.3595 25.5633 66.6641 25.4185 66.9615C25.2725 67.2527 25.1074 67.5637 24.9423 67.8453C24.7772 68.1269 24.5833 68.4175 24.4373 68.7093L23.4569 70.4373C23.117 71.0133 22.7868 71.5925 22.4277 72.1461C22.6703 71.5247 23.0005 70.9423 23.3116 70.3695C23.6514 69.7935 23.9618 69.2175 24.2716 68.6216C24.4228 68.3247 24.5589 68.0203 24.6793 67.7096C24.8245 67.3986 24.9698 67.1074 25.0869 66.8258C25.2322 66.5154 25.3487 66.2236 25.4946 65.9426C25.6591 65.6412 25.7954 65.35 26.0188 65.0684L26.0201 65.0684Z" fill="#CFB66C"/>
<path fill-rule="evenodd" clip-rule="evenodd" d="M29.4762 73.0293C29.4762 73.0293 28.5162 74.301 28.6122 75.9125C28.874 75.0683 29.2042 73.7768 29.4762 73.0293ZM30.3889 74.3042C30.3889 74.3042 30.049 77.7602 29.7674 79.4594C30.1655 77.4952 30.2429 77.6603 30.3889 74.3042ZM36.7479 79.6635C36.7479 79.6635 35.3111 83.8875 35.2817 85.0613C35.5927 83.8543 36.1943 81.3883 36.7479 79.6603V79.6635Z" fill="#DEC270"/>
<path fill-rule="evenodd" clip-rule="evenodd" d="M40.1074 72.7676C40.1074 72.7676 42.4377 76.6121 44.1855 79.8933C43.7125 78.2421 42.6245 75.2137 40.1074 72.7676Z" fill="#CBAF59"/>
<path fill-rule="evenodd" clip-rule="evenodd" d="M46.3691 78.4277C47.6486 80.6893 48.8023 83.0196 49.8251 85.4082C49.6312 83.7577 49.1064 80.9327 46.3691 78.4277Z" fill="#E3C677"/>
<path fill-rule="evenodd" clip-rule="evenodd" d="M64.7777 84.0968C65.1655 83.8543 65.9329 82.5333 66.603 82.2037C67.2724 81.8639 67.7774 81.796 68.3796 81.1259C68.9812 80.4264 69.1476 79.9995 70.4666 79.4466C72.3118 78.6498 71.0426 77.6207 71.0426 77.6207C71.2459 77.421 71.4632 77.2362 71.6929 77.0677C72.169 76.7087 72.722 76.2715 72.674 75.5042C72.6062 74.2133 72.3636 72.3394 71.305 71.252C72.3342 71.0383 74.3047 70.893 75.529 70.5826C76.946 70.2229 77.5969 69.7179 77.5969 69.7179C77.5969 69.7179 76.7815 68.3298 78.1018 66.932C79.4222 65.5343 80.4999 64.6991 81.2961 63.1355C80.3834 63.0191 78.9921 62.5339 75.4414 63.8831C75.633 63.9732 75.818 64.077 75.995 64.1935C75.995 64.1935 73.8106 64.7957 73.0145 65.4658C71.6257 66.6402 71.451 67.6015 69.9463 68.3202C68.4417 69.0389 66.9268 68.8443 65.675 69.4267C64.4231 70.0091 64.2382 70.5045 63.7812 70.7183C63.8785 70.8347 63.762 71.0287 63.9463 71.1938C63.8298 71.3589 63.1502 72.4655 62.4609 72.4655C62.5287 72.7279 63.1111 72.9218 63.1111 72.9218C63.1111 72.9218 62.6842 73.2328 61.5969 73.3103C62.1498 73.8863 62.6746 74.5141 64.121 75.4267C64.0046 75.6693 63.5188 76.029 63.7134 76.4853C63.9271 76.9416 64.4814 77.5631 66.6938 78.068C65.5674 78.116 64.2478 78.3784 62.4698 78.1359C60.6932 77.9221 60.402 77.796 59.305 78.068C59.4215 78.1845 59.7319 78.1845 60.0039 78.4949C59.7127 78.5141 57.8874 78.2811 57.266 79.0971C56.6158 79.9413 56.3342 81.3301 56.3828 82.2619C56.043 82.4271 55.7127 82.7183 55.8778 83.3205C56.043 83.9227 56.907 84.1167 57.4606 84.4949C58.0135 84.9026 58.0622 85.0479 58.587 84.9512C59.1399 84.8347 59.9553 84.2818 60.4314 84.2818C60.9076 84.2818 61.2468 84.6408 61.2468 84.6408C61.2468 84.6408 62.5383 84.0194 62.6644 84.1359C62.7809 84.2523 62.6836 84.9999 62.8097 85.1163C62.9377 85.204 64.3924 84.34 64.7809 84.0968H64.7777Z" fill="#ECD592"/>
</svg>
