<svg width="48" height="56" viewBox="0 0 48 56" fill="none" xmlns="http://www.w3.org/2000/svg">
<path d="M36.876 12.6204V16.5414C36.876 17.5559 36.036 18.3793 35.001 18.3793C33.966 18.3793 33.126 17.5559 33.126 16.5414V12.6204C33.126 7.68867 29.0322 3.67586 24.001 3.67586C18.9697 3.67586 14.876 7.68867 14.876 12.6204V16.5414C14.876 17.5559 14.036 18.3793 13.001 18.3793C11.966 18.3793 11.126 17.5559 11.126 16.5414V12.6204C11.126 5.66204 16.9022 0 24.001 0C31.0997 0 36.876 5.66204 36.876 12.6204Z" fill="#BCE4F1" fill-opacity="0.5"/>
<path d="M39 20.2159V42.6386H9V20.2159C9 18.1856 10.6787 16.54 12.75 16.54H35.25C37.3212 16.54 39 18.1856 39 20.2159Z" fill="url(#paint0_linear_208_7887)"/>
<path d="M25.875 24.4805V28.4014C25.875 29.416 25.035 30.2393 24 30.2393C22.965 30.2393 22.125 29.416 22.125 28.4014V24.4805C22.125 23.466 22.965 22.6426 24 22.6426C25.035 22.6426 25.875 23.466 25.875 24.4805Z" fill="white"/>
<g filter="url(#filter0_bi_208_7887)">
<path d="M48 39.6505V51.9033C48 53.9336 46.3213 55.5792 44.25 55.5792H3.75C1.67875 55.5792 0 53.9336 0 51.9033V39.6505C0 37.6202 1.67875 35.9746 3.75 35.9746H44.25C46.3213 35.9746 48 37.6202 48 39.6505Z" fill="#BCE4F1" fill-opacity="0.5"/>
</g>
<path d="M39.9996 47.4935C41.0355 47.4935 41.8753 46.6703 41.8753 45.6549C41.8753 44.6395 41.0355 43.8164 39.9996 43.8164C38.9638 43.8164 38.124 44.6395 38.124 45.6549C38.124 46.6703 38.9638 47.4935 39.9996 47.4935Z" fill="white"/>
<path d="M31.9996 47.4935C33.0355 47.4935 33.8753 46.6703 33.8753 45.6549C33.8753 44.6395 33.0355 43.8164 31.9996 43.8164C30.9638 43.8164 30.124 44.6395 30.124 45.6549C30.124 46.6703 30.9638 47.4935 31.9996 47.4935Z" fill="white"/>
<path d="M24 47.4923C25.0355 47.4923 25.875 46.6694 25.875 45.6543C25.875 44.6393 25.0355 43.8164 24 43.8164C22.9645 43.8164 22.125 44.6393 22.125 45.6543C22.125 46.6694 22.9645 47.4923 24 47.4923Z" fill="white"/>
<path d="M15.9996 47.4935C17.0355 47.4935 17.8753 46.6703 17.8753 45.6549C17.8753 44.6395 17.0355 43.8164 15.9996 43.8164C14.9638 43.8164 14.124 44.6395 14.124 45.6549C14.124 46.6703 14.9638 47.4935 15.9996 47.4935Z" fill="white"/>
<path d="M7.99965 47.4935C9.03553 47.4935 9.87527 46.6703 9.87527 45.6549C9.87527 44.6395 9.03553 43.8164 7.99965 43.8164C6.96377 43.8164 6.12402 44.6395 6.12402 45.6549C6.12402 46.6703 6.96377 47.4935 7.99965 47.4935Z" fill="white"/>
<defs>
<filter id="filter0_bi_208_7887" x="-4" y="31.9746" width="56" height="27.6045" filterUnits="userSpaceOnUse" color-interpolation-filters="sRGB">
<feFlood flood-opacity="0" result="BackgroundImageFix"/>
<feGaussianBlur in="BackgroundImageFix" stdDeviation="2"/>
<feComposite in2="SourceAlpha" operator="in" result="effect1_backgroundBlur_208_7887"/>
<feBlend mode="normal" in="SourceGraphic" in2="effect1_backgroundBlur_208_7887" result="shape"/>
<feColorMatrix in="SourceAlpha" type="matrix" values="0 0 0 0 0 0 0 0 0 0 0 0 0 0 0 0 0 0 127 0" result="hardAlpha"/>
<feOffset dx="0.2" dy="0.1"/>
<feGaussianBlur stdDeviation="0.5"/>
<feComposite in2="hardAlpha" operator="arithmetic" k2="-1" k3="1"/>
<feColorMatrix type="matrix" values="0 0 0 0 1 0 0 0 0 1 0 0 0 0 1 0 0 0 0.6 0"/>
<feBlend mode="normal" in2="shape" result="effect2_innerShadow_208_7887"/>
</filter>
<linearGradient id="paint0_linear_208_7887" x1="11.0339" y1="24.5023" x2="37.6519" y2="21.5883" gradientUnits="userSpaceOnUse">
<stop stop-color="#0B5CD6"/>
<stop offset="1" stop-color="#0085FF"/>
</linearGradient>
</defs>
</svg>
