<svg width="40" height="44" viewBox="0 0 40 44" fill="none" xmlns="http://www.w3.org/2000/svg">
<rect width="40" height="39.1111" rx="19.5556" fill="url(#paint0_linear_208_7877)"/>
<g filter="url(#filter0_bi_208_7877)">
<path d="M34 37.7421V40.6972C34 42.6093 32.6 43.9999 31.0444 43.9999H8.95556C7.24444 43.9999 6 42.4355 6 40.6972V37.7421C6 32.5273 9.73333 28.3555 14.4 28.3555H15.4889C16.8889 29.0508 18.4444 29.3984 20 29.3984C21.5556 29.3984 23.1111 29.0508 24.5111 28.3555H25.6C30.2667 28.3555 34 32.5273 34 37.7421Z" fill="#BCE4F1" fill-opacity="0.5"/>
</g>
<path d="M20 25.4223C23.866 25.4223 27 22.3579 27 18.5778C27 14.7978 23.866 11.7334 20 11.7334C16.134 11.7334 13 14.7978 13 18.5778C13 22.3579 16.134 25.4223 20 25.4223Z" fill="white"/>
<defs>
<filter id="filter0_bi_208_7877" x="2" y="24.3555" width="36" height="23.6445" filterUnits="userSpaceOnUse" color-interpolation-filters="sRGB">
<feFlood flood-opacity="0" result="BackgroundImageFix"/>
<feGaussianBlur in="BackgroundImageFix" stdDeviation="2"/>
<feComposite in2="SourceAlpha" operator="in" result="effect1_backgroundBlur_208_7877"/>
<feBlend mode="normal" in="SourceGraphic" in2="effect1_backgroundBlur_208_7877" result="shape"/>
<feColorMatrix in="SourceAlpha" type="matrix" values="0 0 0 0 0 0 0 0 0 0 0 0 0 0 0 0 0 0 127 0" result="hardAlpha"/>
<feOffset dx="0.2" dy="0.1"/>
<feGaussianBlur stdDeviation="0.5"/>
<feComposite in2="hardAlpha" operator="arithmetic" k2="-1" k3="1"/>
<feColorMatrix type="matrix" values="0 0 0 0 1 0 0 0 0 1 0 0 0 0 1 0 0 0 0.6 0"/>
<feBlend mode="normal" in2="shape" result="effect2_innerShadow_208_7877"/>
</filter>
<linearGradient id="paint0_linear_208_7877" x1="2.71186" y1="11.9322" x2="38.2904" y2="8.46676" gradientUnits="userSpaceOnUse">
<stop stop-color="#0B5CD6"/>
<stop offset="1" stop-color="#0085FF"/>
</linearGradient>
</defs>
</svg>
