<svg width="42" height="49" viewBox="0 0 42 49" fill="none" xmlns="http://www.w3.org/2000/svg">
<rect x="42" y="4.32324" width="44.3088" height="42" rx="5" transform="rotate(90 42 4.32324)" fill="url(#paint0_linear_208_7923)"/>
<rect x="6.58594" y="30.9473" width="18.6614" height="3.31579" rx="1.65789" fill="white"/>
<rect x="6.58594" y="37.5791" width="9.87955" height="3.31579" rx="1.65789" fill="white"/>
<g filter="url(#filter0_bi_208_7923)">
<path d="M18.3076 2C18.3076 0.89543 19.203 0 20.3076 0H33.5384C34.643 0 35.5384 0.895431 35.5384 2V20.6903C35.5384 22.3681 33.5969 23.3002 32.2877 22.251L28.1737 18.954C27.4428 18.3682 26.4032 18.3682 25.6723 18.954L21.5584 22.251C20.2491 23.3002 18.3076 22.3681 18.3076 20.6903V2Z" fill="#BCE4F1" fill-opacity="0.5"/>
</g>
<defs>
<filter id="filter0_bi_208_7923" x="14.3076" y="-4" width="25.2305" height="30.6943" filterUnits="userSpaceOnUse" color-interpolation-filters="sRGB">
<feFlood flood-opacity="0" result="BackgroundImageFix"/>
<feGaussianBlur in="BackgroundImageFix" stdDeviation="2"/>
<feComposite in2="SourceAlpha" operator="in" result="effect1_backgroundBlur_208_7923"/>
<feBlend mode="normal" in="SourceGraphic" in2="effect1_backgroundBlur_208_7923" result="shape"/>
<feColorMatrix in="SourceAlpha" type="matrix" values="0 0 0 0 0 0 0 0 0 0 0 0 0 0 0 0 0 0 127 0" result="hardAlpha"/>
<feOffset dx="0.2" dy="0.1"/>
<feGaussianBlur stdDeviation="0.5"/>
<feComposite in2="hardAlpha" operator="arithmetic" k2="-1" k3="1"/>
<feColorMatrix type="matrix" values="0 0 0 0 1 0 0 0 0 1 0 0 0 0 1 0 0 0 0.6 0"/>
<feBlend mode="normal" in2="shape" result="effect2_innerShadow_208_7923"/>
</filter>
<linearGradient id="paint0_linear_208_7923" x1="45.004" y1="17.1368" x2="84.3913" y2="13.1794" gradientUnits="userSpaceOnUse">
<stop stop-color="#0B5CD6"/>
<stop offset="1" stop-color="#0085FF"/>
</linearGradient>
</defs>
</svg>
