<svg width="47" height="47" viewBox="0 0 47 47" fill="none" xmlns="http://www.w3.org/2000/svg">
<path d="M23.5 39.5227L5.70745 21.8173C4.41118 20.521 3.6958 18.7917 3.6958 16.9508C3.6958 15.1167 4.40576 13.3941 5.69405 12.0965C5.39552 10.0216 6.0437 7.83517 7.63575 6.24175C7.63841 6.23909 7.64116 6.23634 7.64382 6.2323C7.35604 4.16419 8.00422 1.98979 9.59094 0.403071C10.1288 -0.13477 11.0002 -0.133485 11.5381 0.401694L23.9603 12.7943C24.3637 13.1991 36.5522 24.5792 36.3182 25.1023C36.0815 25.6267 35.8255 27.2789 35.25 27.2386C32.4449 27.0692 37.2024 32.2308 35.25 34.1818C33.2975 36.1316 30.7997 32.4664 30.9773 35.25C31.0122 35.8228 29.8994 38.2192 29.375 38.4545C28.8685 38.6851 23.9127 39.9376 23.5 39.5227Z" fill="url(#paint0_linear_208_7909)"/>
<path d="M30.0491 43.3054C28.2069 43.3054 26.4776 42.59 25.1786 41.2911L20.5556 36.6936C20.1495 36.2889 20.0366 35.6757 20.2706 35.1526C20.5072 34.6296 21.0397 34.3216 21.6125 34.3431C24.3719 34.5233 27.1123 33.5014 29.0621 31.5502C31.0146 29.5991 32.0338 26.8842 31.8563 24.1007C31.8213 23.5279 32.1413 22.994 32.6631 22.7587C33.1875 22.5207 33.7785 22.0271 34.1818 22.4318L46.5968 35.462C47.1346 35.9998 47.1346 36.8712 46.5968 37.4077C45.0127 38.9931 42.8558 39.6493 40.7662 39.3548C40.7635 39.3575 40.7607 39.3602 40.7581 39.3629C39.1659 40.9537 36.9957 41.6059 34.9033 41.306C33.6072 42.5954 31.886 43.3054 30.0491 43.3054Z" fill="url(#paint1_linear_208_7909)"/>
<g filter="url(#filter0_bi_208_7909)">
<path d="M13.5043 33.4964C8.6529 28.645 8.70238 20.7841 13.5043 15.9899C18.2644 11.2246 26.1281 11.1054 31.0094 15.9899C36.4508 21.4314 35.1962 29.3141 31.0094 33.4964C26.2641 38.2417 18.4086 38.3976 13.5043 33.4964Z" fill="#BCE4F1" fill-opacity="0.5"/>
</g>
<path d="M0.403381 46.5966C-0.13446 46.0588 -0.13446 45.1873 0.403381 44.6495L8.84874 36.2042C9.38658 35.6663 10.258 35.6663 10.7959 36.2042C11.3337 36.742 11.3337 37.6134 10.7959 38.1513L2.35049 46.5966C1.81256 47.1345 0.941221 47.1345 0.403381 46.5966Z" fill="url(#paint2_linear_208_7909)"/>
<path d="M8.6651 46.5966C8.12726 46.0588 8.12726 45.1873 8.6651 44.6495L14.3565 38.9581C14.8944 38.4202 15.7658 38.4202 16.3036 38.9581C16.8415 39.4959 16.8415 40.3673 16.3036 40.9052L10.6122 46.5966C10.0743 47.1344 9.20294 47.1344 8.6651 46.5966Z" fill="url(#paint3_linear_208_7909)"/>
<path d="M0.403381 38.3349C-0.13446 37.797 -0.13446 36.9256 0.403381 36.3878L6.09482 30.6963C6.63266 30.1585 7.50409 30.1585 8.04193 30.6963C8.57977 31.2342 8.57977 32.1056 8.04193 32.6435L2.35049 38.3349C1.81256 38.8727 0.941221 38.8727 0.403381 38.3349Z" fill="url(#paint4_linear_208_7909)"/>
<path d="M27.8704 19.1281C27.4327 18.6904 26.7235 18.6904 26.2858 19.1281L25.333 20.0814C24.0857 19.4933 22.5603 19.6844 21.5319 20.7127C20.8972 21.3474 20.547 22.1923 20.547 23.0907C20.547 23.9881 20.8972 24.8329 21.5319 25.4676C21.9696 25.9043 21.9696 26.6156 21.5319 27.0522C21.0942 27.4899 20.385 27.4899 19.9473 27.0522C19.735 26.8399 19.619 26.5587 19.619 26.26C19.619 25.6406 19.1178 25.1394 18.4984 25.1394C17.879 25.1394 17.3777 25.6406 17.3777 26.26C17.3777 26.7684 17.5015 27.2545 17.7144 27.7005L16.778 28.6369C16.3403 29.0746 16.3403 29.7838 16.778 30.2216C17.2157 30.6593 17.9248 30.6593 18.3626 30.2216L19.3152 29.269C20.7653 29.9525 22.2045 29.5504 23.1164 28.637C24.318 27.4354 24.3636 25.5712 23.3628 24.2544C23.3081 24.1193 23.226 23.9927 23.1164 23.8832C22.6794 23.4462 22.6771 22.7379 23.1164 22.2986C23.5541 21.8631 24.2633 21.8619 24.701 22.2997C24.9133 22.5098 25.0294 22.7911 25.0294 23.0909C25.0294 23.7103 25.5306 24.2116 26.15 24.2116C26.7694 24.2116 27.2706 23.7103 27.2706 23.0909C27.2706 22.5815 27.1469 22.0952 26.9343 21.6495L27.8703 20.7129C28.3081 20.2749 28.3081 19.5648 27.8704 19.1281Z" fill="white"/>
<defs>
<filter id="filter0_bi_208_7909" x="5.88428" y="8.37109" width="32.751" height="32.7432" filterUnits="userSpaceOnUse" color-interpolation-filters="sRGB">
<feFlood flood-opacity="0" result="BackgroundImageFix"/>
<feGaussianBlur in="BackgroundImageFix" stdDeviation="2"/>
<feComposite in2="SourceAlpha" operator="in" result="effect1_backgroundBlur_208_7909"/>
<feBlend mode="normal" in="SourceGraphic" in2="effect1_backgroundBlur_208_7909" result="shape"/>
<feColorMatrix in="SourceAlpha" type="matrix" values="0 0 0 0 0 0 0 0 0 0 0 0 0 0 0 0 0 0 127 0" result="hardAlpha"/>
<feOffset dx="0.2" dy="0.1"/>
<feGaussianBlur stdDeviation="0.5"/>
<feComposite in2="hardAlpha" operator="arithmetic" k2="-1" k3="1"/>
<feColorMatrix type="matrix" values="0 0 0 0 1 0 0 0 0 1 0 0 0 0 1 0 0 0 0.6 0"/>
<feBlend mode="normal" in2="shape" result="effect2_innerShadow_208_7909"/>
</filter>
<linearGradient id="paint0_linear_208_7909" x1="6.63169" y1="13.2118" x2="45.1652" y2="9.54205" gradientUnits="userSpaceOnUse">
<stop stop-color="#0B5CD6"/>
<stop offset="1" stop-color="#0085FF"/>
</linearGradient>
<linearGradient id="paint1_linear_208_7909" x1="6.63169" y1="13.2118" x2="45.1652" y2="9.54205" gradientUnits="userSpaceOnUse">
<stop stop-color="#0B5CD6"/>
<stop offset="1" stop-color="#0085FF"/>
</linearGradient>
<linearGradient id="paint2_linear_208_7909" x1="0.75927" y1="39.2175" x2="10.7247" y2="38.2684" gradientUnits="userSpaceOnUse">
<stop stop-color="#0B5CD6"/>
<stop offset="1" stop-color="#0085FF"/>
</linearGradient>
<linearGradient id="paint3_linear_208_7909" x1="8.83428" y1="41.1312" x2="16.3492" y2="40.4155" gradientUnits="userSpaceOnUse">
<stop stop-color="#0B5CD6"/>
<stop offset="1" stop-color="#0085FF"/>
</linearGradient>
<linearGradient id="paint4_linear_208_7909" x1="0.572564" y1="32.8695" x2="8.08746" y2="32.1538" gradientUnits="userSpaceOnUse">
<stop stop-color="#0B5CD6"/>
<stop offset="1" stop-color="#0085FF"/>
</linearGradient>
</defs>
</svg>
