<svg width="48" height="40" viewBox="0 0 48 40" fill="none" xmlns="http://www.w3.org/2000/svg">
<path d="M23.9062 21.3601C22.8238 21.3601 21.7518 21.0349 20.8672 20.4354C20.3723 20.1718 13.4642 16.4897 9.37264 14.3076C8.03776 13.5957 6.42139 14.5659 6.42139 16.0787V30.5264C6.42139 33.1889 8.39884 35.5974 11.9895 37.2945C15.195 38.8188 19.4309 39.6521 23.8958 39.6521C28.3607 39.6521 32.5966 38.8188 35.8021 37.2945C39.3928 35.5872 41.3702 33.1889 41.3702 30.5264V16.0597C41.3702 14.5513 39.7662 13.5872 38.4352 14.2969C34.346 16.4774 27.4198 20.1715 26.9244 20.4354C26.0502 21.0349 24.9886 21.3601 23.9062 21.3601Z" fill="url(#paint0_linear_208_7872)"/>
<g filter="url(#filter0_bi_208_7872)">
<path d="M47.4588 12.5402C47.1153 12.0422 48.5204 12.8958 25.1344 0.426813C24.7702 0.142271 24.333 0 23.8959 0C23.4588 0 23.0217 0.142271 22.6574 0.426813L0.749349 12.1134C0.270598 12.4792 0 13.028 0 13.6174C0 14.2068 0.270598 14.7657 0.749349 15.1315L22.6678 26.8181C23.0321 27.1026 23.4692 27.2449 23.9063 27.2449C24.3435 27.2449 24.7806 27.1026 25.1448 26.8181L44.6487 16.4221C44.6487 16.8896 44.6487 29.0538 44.6487 30.1309C44.6487 31.0354 45.3981 31.7671 46.3244 31.7671C47.2506 31.7671 48 31.0354 48 30.1309C48 29.5924 48 14.9181 48 13.7393C48 13.2617 47.7918 12.8349 47.4588 12.5402Z" fill="#BCE4F1" fill-opacity="0.5"/>
</g>
<path d="M23.906 16.4423C26.0327 16.4423 27.7568 15.2275 27.7568 13.7289C27.7568 12.2304 26.0327 11.0156 23.906 11.0156C21.7792 11.0156 20.0552 12.2304 20.0552 13.7289C20.0552 15.2275 21.7792 16.4423 23.906 16.4423Z" fill="white"/>
<defs>
<filter id="filter0_bi_208_7872" x="-4" y="-4" width="56" height="39.7666" filterUnits="userSpaceOnUse" color-interpolation-filters="sRGB">
<feFlood flood-opacity="0" result="BackgroundImageFix"/>
<feGaussianBlur in="BackgroundImageFix" stdDeviation="2"/>
<feComposite in2="SourceAlpha" operator="in" result="effect1_backgroundBlur_208_7872"/>
<feBlend mode="normal" in="SourceGraphic" in2="effect1_backgroundBlur_208_7872" result="shape"/>
<feColorMatrix in="SourceAlpha" type="matrix" values="0 0 0 0 0 0 0 0 0 0 0 0 0 0 0 0 0 0 127 0" result="hardAlpha"/>
<feOffset dx="0.2" dy="0.1"/>
<feGaussianBlur stdDeviation="0.5"/>
<feComposite in2="hardAlpha" operator="arithmetic" k2="-1" k3="1"/>
<feColorMatrix type="matrix" values="0 0 0 0 1 0 0 0 0 1 0 0 0 0 1 0 0 0 0.6 0"/>
<feBlend mode="normal" in2="shape" result="effect2_innerShadow_208_7872"/>
</filter>
<linearGradient id="paint0_linear_208_7872" x1="8.7908" y1="20.9452" x2="39.6989" y2="17.1236" gradientUnits="userSpaceOnUse">
<stop stop-color="#0B5CD6"/>
<stop offset="1" stop-color="#0085FF"/>
</linearGradient>
</defs>
</svg>
