<svg width="38" height="45" viewBox="0 0 38 45" fill="none" xmlns="http://www.w3.org/2000/svg">
<path d="M32.8181 10.6661H5.18263C2.32536 10.6661 0.000976562 8.39971 0.000976562 5.61372V1.68416C0.000976562 0.754421 0.774599 0 1.72813 0H36.2725C37.226 0 37.9997 0.754421 37.9997 1.68416V5.61383C37.9997 8.39971 35.6753 10.6661 32.8181 10.6661Z" fill="url(#paint0_linear_208_7928)"/>
<path d="M36.2717 44.7062H1.72725C0.773726 44.7062 0 43.9518 0 43.0221V39.0924C0 36.3064 2.32438 34.04 5.18166 34.04H32.8171C35.6744 34.04 37.9988 36.3064 37.9988 39.0924V43.0221C37.9989 43.9518 37.2252 44.7062 36.2717 44.7062Z" fill="url(#paint1_linear_208_7928)"/>
<g filter="url(#filter0_bi_208_7928)">
<path d="M28.0497 23.6827C29.5236 24.6932 30.5599 25.5914 31.2277 26.4222C33.3925 29.1056 34.544 32.3391 34.544 35.7747V39.1429C34.544 40.0747 33.7726 40.827 32.8168 40.827H5.18135C4.22565 40.827 3.4541 40.0748 3.4541 39.1429V35.7747C3.4541 32.3391 4.60553 29.1055 6.7704 26.4222C7.43829 25.5913 8.47458 24.6932 9.94848 23.6827C10.9272 22.9978 10.9158 21.5944 9.94848 20.9208C8.47458 19.9103 7.43829 19.0121 6.7704 18.1813C4.60564 15.4979 3.4541 12.2644 3.4541 8.82874V5.46052C3.4541 4.52867 4.22555 3.77637 5.18135 3.77637H32.8168C33.7725 3.77637 34.544 4.52857 34.544 5.46052V8.82874C34.544 12.2643 33.3926 15.4979 31.2277 18.1813C30.5599 19.0123 29.5236 19.9103 28.0497 20.9208C27.0709 21.6057 27.0825 23.0091 28.0497 23.6827Z" fill="#BCE4F1" fill-opacity="0.5"/>
</g>
<path d="M24.987 9.69336H13.0117C11.6875 9.69336 10.8584 11.0968 11.5147 12.2195C12.505 13.8924 13.6449 14.6447 14.5662 15.2397C15.7407 16.0144 16.5812 16.5757 17.3297 19.4276C17.5485 20.2697 18.2739 20.6851 18.9993 20.6851C19.7362 20.6851 20.4618 20.2697 20.6805 19.4164C21.4173 16.5647 22.2695 16.0145 23.444 15.2398C24.3537 14.6448 25.4936 13.8925 26.4839 12.2196C27.1403 11.0968 26.3112 9.69336 24.987 9.69336Z" fill="white"/>
<path d="M13.011 35.0088L24.9864 35.0088C26.3106 35.0088 27.1396 33.6054 26.4833 32.4827C25.4931 30.8098 24.3531 30.0575 23.4319 29.4624C22.2574 28.6878 21.4168 28.1264 20.6683 25.2745C20.4495 24.4325 19.7241 24.0171 18.9987 24.0171C18.2618 24.0171 17.5363 24.4325 17.3176 25.2857C16.5807 28.1375 15.7286 28.6877 14.554 29.4623C13.6444 30.0574 12.5044 30.8097 11.5142 32.4826C10.8578 33.6054 11.6868 35.0088 13.011 35.0088Z" fill="white"/>
<defs>
<filter id="filter0_bi_208_7928" x="-0.545898" y="-0.223633" width="39.0898" height="45.0508" filterUnits="userSpaceOnUse" color-interpolation-filters="sRGB">
<feFlood flood-opacity="0" result="BackgroundImageFix"/>
<feGaussianBlur in="BackgroundImageFix" stdDeviation="2"/>
<feComposite in2="SourceAlpha" operator="in" result="effect1_backgroundBlur_208_7928"/>
<feBlend mode="normal" in="SourceGraphic" in2="effect1_backgroundBlur_208_7928" result="shape"/>
<feColorMatrix in="SourceAlpha" type="matrix" values="0 0 0 0 0 0 0 0 0 0 0 0 0 0 0 0 0 0 127 0" result="hardAlpha"/>
<feOffset dx="0.2" dy="0.1"/>
<feGaussianBlur stdDeviation="0.5"/>
<feComposite in2="hardAlpha" operator="arithmetic" k2="-1" k3="1"/>
<feColorMatrix type="matrix" values="0 0 0 0 1 0 0 0 0 1 0 0 0 0 1 0 0 0 0.6 0"/>
<feBlend mode="normal" in2="shape" result="effect2_innerShadow_208_7928"/>
</filter>
<linearGradient id="paint0_linear_208_7928" x1="2.57716" y1="3.25406" x2="33.174" y2="-7.12723" gradientUnits="userSpaceOnUse">
<stop stop-color="#0B5CD6"/>
<stop offset="1" stop-color="#0085FF"/>
</linearGradient>
<linearGradient id="paint1_linear_208_7928" x1="2.57619" y1="37.2941" x2="33.1731" y2="26.9129" gradientUnits="userSpaceOnUse">
<stop stop-color="#0B5CD6"/>
<stop offset="1" stop-color="#0085FF"/>
</linearGradient>
</defs>
</svg>
