<svg width="174" height="57" viewBox="0 0 174 57" fill="none" xmlns="http://www.w3.org/2000/svg">
<path d="M2.59505 48.6H5.29906V49.544H2.59505C2.02705 49.544 1.77905 49.808 1.77905 50.224C1.77905 50.664 2.05905 50.864 2.60305 50.864H5.25906V51.72H2.57905C2.03505 51.72 1.75505 51.936 1.75505 52.376C1.75505 52.8 2.01905 53.056 2.57105 53.056H5.30705V54H2.57105C1.29105 54 0.771055 53.368 0.771055 52.528C0.771055 51.912 1.05105 51.496 1.54705 51.288C1.04305 51.08 0.787055 50.664 0.787055 50.072C0.787055 49.208 1.32305 48.6 2.59505 48.6ZM7.92593 47.944H8.77393V54H7.92593V47.944ZM12.8124 49.776H14.1804C15.1804 49.776 15.6044 50.256 15.6044 51.072C15.6044 51.848 15.2124 52.288 14.1724 52.288H12.1644V52.592C12.1644 52.928 12.3484 53.176 12.8124 53.176H15.3964V54H12.8124C11.7564 54 11.3404 53.408 11.3404 52.608V51.168C11.3404 50.368 11.7564 49.776 12.8124 49.776ZM12.1644 51.176V51.624H14.1484C14.6044 51.624 14.7724 51.432 14.7724 51.12C14.7724 50.8 14.5884 50.592 14.1724 50.592H12.8124C12.3484 50.592 12.1644 50.848 12.1644 51.176ZM17.4906 49.776H18.3866L19.7946 53.168C19.8266 53.256 19.8986 53.296 20.0026 53.296C20.1146 53.296 20.1866 53.256 20.2266 53.168L21.6906 49.776H22.6026L20.9706 53.544C20.7946 53.944 20.4826 54.096 20.0026 54.096C19.5146 54.096 19.2026 53.936 19.0426 53.544L17.4906 49.776ZM24.9686 49.776H27.5046C28.5606 49.776 28.9766 50.368 28.9766 51.168V53.152C28.9766 53.76 28.8166 54 28.1046 54H26.1286C25.1286 54 24.7126 53.512 24.7126 52.712C24.7126 51.944 25.0966 51.496 26.1366 51.496H28.1446V51.176C28.1446 50.848 27.9606 50.592 27.4966 50.592H24.9686V49.776ZM27.9126 53.176C28.0806 53.176 28.1446 53.112 28.1446 52.96V52.168H26.1526C25.7046 52.168 25.5446 52.352 25.5446 52.664C25.5446 52.976 25.7126 53.176 26.1366 53.176H27.9126ZM31.1916 49.776H31.7676V48.776H32.6236V49.776H33.7916V50.592H32.6236V52.592C32.6236 53.064 32.7916 53.224 33.1916 53.224H33.7756V54H33.0156C32.1436 54 31.7676 53.648 31.7676 52.544V50.592H31.1916V49.776ZM37.4396 49.776H38.8076C39.8076 49.776 40.2316 50.256 40.2316 51.072C40.2316 51.848 39.8396 52.288 38.7996 52.288H36.7916V52.592C36.7916 52.928 36.9756 53.176 37.4396 53.176H40.0236V54H37.4396C36.3836 54 35.9676 53.408 35.9676 52.608V51.168C35.9676 50.368 36.3836 49.776 37.4396 49.776ZM36.7916 51.176V51.624H38.7756C39.2316 51.624 39.3996 51.432 39.3996 51.12C39.3996 50.8 39.2156 50.592 38.7996 50.592H37.4396C36.9756 50.592 36.7916 50.848 36.7916 51.176ZM49.7992 49.776H50.7032L48.1592 55.696H47.2472L48.0392 53.848C47.5592 53.848 47.3912 53.696 47.2472 53.328L45.8312 49.776H46.7272L47.9992 52.92C48.0552 53.072 48.0952 53.096 48.2552 53.096H48.3672L49.7992 49.776ZM54.3045 49.776H55.1925C56.3125 49.776 57.0245 50.464 57.0245 51.888C57.0245 53.312 56.3125 54 55.1925 54H54.3045C53.1765 54 52.4725 53.312 52.4725 51.888C52.4725 50.464 53.1765 49.776 54.3045 49.776ZM55.1125 50.592H54.3845C53.6485 50.592 53.3285 50.976 53.3285 51.888C53.3285 52.8 53.6485 53.176 54.3845 53.176H55.1125C55.8405 53.176 56.1685 52.8 56.1685 51.888C56.1685 50.976 55.8405 50.592 55.1125 50.592ZM59.4557 49.776H60.3117V52.304C60.3117 52.8 60.6797 53.176 61.3517 53.176H62.0397C62.7117 53.176 63.0717 52.8 63.0717 52.304V49.776H63.9037V52.336C63.9037 53.312 63.2797 54 62.0717 54H61.2877C60.0797 54 59.4557 53.312 59.4557 52.336V49.776ZM67.6729 49.776H69.4089V50.592H67.9209C67.5449 50.592 67.3769 50.768 67.3769 51.136V54H66.5289V51.008C66.5289 50.16 66.8409 49.776 67.6729 49.776ZM77.2448 48.6H79.4848V49.544H77.3088C76.4528 49.544 76.1968 49.952 76.1968 50.456V50.968H79.4528V51.864H76.1968V54H75.2528V50.464C75.2528 49.384 75.8128 48.6 77.2448 48.6ZM81.9975 49.776H82.8455V54H81.9975V49.776ZM81.9975 48.184H82.8535V49.168H81.9975V48.184ZM86.092 49.776H87.836C89.268 49.776 89.964 50.456 89.964 51.624V54H89.108V51.624C89.108 50.96 88.724 50.592 87.836 50.592H86.452C86.38 50.592 86.348 50.632 86.348 50.712V54H85.5V50.432C85.5 49.936 85.668 49.776 86.092 49.776ZM92.7642 49.776H95.3002C96.3562 49.776 96.7722 50.368 96.7722 51.168V53.152C96.7722 53.76 96.6122 54 95.9002 54H93.9242C92.9242 54 92.5082 53.512 92.5082 52.712C92.5082 51.944 92.8922 51.496 93.9322 51.496H95.9402V51.176C95.9402 50.848 95.7562 50.592 95.2922 50.592H92.7642V49.776ZM95.7082 53.176C95.8762 53.176 95.9402 53.112 95.9402 52.96V52.168H93.9482C93.5002 52.168 93.3402 52.352 93.3402 52.664C93.3402 52.976 93.5082 53.176 93.9322 53.176H95.7082ZM100.003 49.776H101.747C103.179 49.776 103.875 50.456 103.875 51.624V54H103.019V51.624C103.019 50.96 102.635 50.592 101.747 50.592H100.363C100.291 50.592 100.259 50.632 100.259 50.712V54H99.4112V50.432C99.4112 49.936 99.5792 49.776 100.003 49.776ZM108.139 49.776H110.315V50.592H108.219C107.483 50.592 107.163 50.976 107.163 51.888C107.163 52.8 107.483 53.176 108.219 53.176H110.315V54H108.139C107.011 54 106.307 53.312 106.307 51.888C106.307 50.464 107.011 49.776 108.139 49.776ZM112.76 49.776H113.608V54H112.76V49.776ZM112.76 48.184H113.616V49.168H112.76V48.184ZM116.43 49.776H118.966C120.022 49.776 120.438 50.368 120.438 51.168V53.152C120.438 53.76 120.278 54 119.566 54H117.59C116.59 54 116.174 53.512 116.174 52.712C116.174 51.944 116.558 51.496 117.598 51.496H119.606V51.176C119.606 50.848 119.422 50.592 118.958 50.592H116.43V49.776ZM119.374 53.176C119.542 53.176 119.606 53.112 119.606 52.96V52.168H117.614C117.166 52.168 117.006 52.352 117.006 52.664C117.006 52.976 117.174 53.176 117.598 53.176H119.374ZM123.077 47.944H123.925V54H123.077V47.944ZM130.241 49.776H131.097V54.24C131.097 55.344 130.721 55.696 129.857 55.696H129.113V54.88H129.665C130.081 54.88 130.241 54.72 130.241 54.248V49.776ZM130.241 48.184H131.097V49.168H130.241V48.184ZM135.381 49.776H136.269C137.389 49.776 138.101 50.464 138.101 51.888C138.101 53.312 137.389 54 136.269 54H135.381C134.253 54 133.549 53.312 133.549 51.888C133.549 50.464 134.253 49.776 135.381 49.776ZM136.189 50.592H135.461C134.725 50.592 134.405 50.976 134.405 51.888C134.405 52.8 134.725 53.176 135.461 53.176H136.189C136.917 53.176 137.245 52.8 137.245 51.888C137.245 50.976 136.917 50.592 136.189 50.592ZM140.532 49.776H141.388V52.304C141.388 52.8 141.756 53.176 142.428 53.176H143.116C143.788 53.176 144.148 52.8 144.148 52.304V49.776H144.98V52.336C144.98 53.312 144.356 54 143.148 54H142.364C141.156 54 140.532 53.312 140.532 52.336V49.776ZM148.749 49.776H150.485V50.592H148.997C148.621 50.592 148.453 50.768 148.453 51.136V54H147.605V51.008C147.605 50.16 147.917 49.776 148.749 49.776ZM153.349 49.776H155.093C156.525 49.776 157.221 50.456 157.221 51.624V54H156.365V51.624C156.365 50.96 155.981 50.592 155.093 50.592H153.709C153.637 50.592 153.605 50.632 153.605 50.712V54H152.757V50.432C152.757 49.936 152.925 49.776 153.349 49.776ZM161.237 49.776H162.605C163.605 49.776 164.029 50.256 164.029 51.072C164.029 51.848 163.637 52.288 162.597 52.288H160.589V52.592C160.589 52.928 160.773 53.176 161.237 53.176H163.821V54H161.237C160.181 54 159.765 53.408 159.765 52.608V51.168C159.765 50.368 160.181 49.776 161.237 49.776ZM160.589 51.176V51.624H162.573C163.029 51.624 163.197 51.432 163.197 51.12C163.197 50.8 163.013 50.592 162.597 50.592H161.237C160.773 50.592 160.589 50.848 160.589 51.176ZM170.024 49.776H170.928L168.384 55.696H167.472L168.264 53.848C167.784 53.848 167.616 53.696 167.472 53.328L166.056 49.776H166.952L168.224 52.92C168.28 53.072 168.32 53.096 168.48 53.096H168.592L170.024 49.776Z" fill="#56525E"/>
<path d="M5.29906 48.6H5.39906V48.5H5.29906V48.6ZM5.29906 49.544V49.644H5.39906V49.544H5.29906ZM5.25906 50.864H5.35906V50.764H5.25906V50.864ZM5.25906 51.72V51.82H5.35906V51.72H5.25906ZM5.30705 53.056H5.40705V52.956H5.30705V53.056ZM5.30705 54V54.1H5.40705V54H5.30705ZM1.54705 51.288L1.58573 51.3802L1.8074 51.2873L1.5852 51.1956L1.54705 51.288ZM2.59505 48.7H5.29906V48.5H2.59505V48.7ZM5.19906 48.6V49.544H5.39906V48.6H5.19906ZM5.29906 49.444H2.59505V49.644H5.29906V49.444ZM2.59505 49.444C2.29726 49.444 2.06564 49.5131 1.90769 49.6532C1.74772 49.7951 1.67905 49.9958 1.67905 50.224H1.87905C1.87905 50.0362 1.93439 49.8969 2.04042 49.8028C2.14847 49.7069 2.32485 49.644 2.59505 49.644V49.444ZM1.67905 50.224C1.67905 50.4669 1.75768 50.6601 1.9265 50.7886C2.08987 50.9129 2.3219 50.964 2.60305 50.964V50.764C2.34021 50.764 2.16024 50.7151 2.04761 50.6294C1.94043 50.5479 1.87905 50.4211 1.87905 50.224H1.67905ZM2.60305 50.964H5.25906V50.764H2.60305V50.964ZM5.15906 50.864V51.72H5.35906V50.864H5.15906ZM5.25906 51.62H2.57905V51.82H5.25906V51.62ZM2.57905 51.62C2.29648 51.62 2.06423 51.6757 1.90107 51.8045C1.73346 51.9369 1.65505 52.1333 1.65505 52.376H1.85505C1.85505 52.1787 1.91665 52.0471 2.02504 51.9615C2.13788 51.8723 2.31763 51.82 2.57905 51.82V51.62ZM1.65505 52.376C1.65505 52.6095 1.72855 52.8102 1.89056 52.9506C2.05024 53.089 2.28127 53.156 2.57105 53.156V52.956C2.30884 52.956 2.13187 52.895 2.02155 52.7994C1.91356 52.7058 1.85505 52.5665 1.85505 52.376H1.65505ZM2.57105 53.156H5.30705V52.956H2.57105V53.156ZM5.20705 53.056V54H5.40705V53.056H5.20705ZM5.30705 53.9H2.57105V54.1H5.30705V53.9ZM2.57105 53.9C1.94634 53.9 1.52381 53.7458 1.25823 53.5049C0.993972 53.2653 0.871055 52.9271 0.871055 52.528H0.671055C0.671055 52.9689 0.808138 53.3667 1.12388 53.6531C1.43829 53.9382 1.91577 54.1 2.57105 54.1V53.9ZM0.871055 52.528C0.871055 52.2353 0.93746 51.9968 1.05737 51.8088C1.17707 51.6211 1.35404 51.4774 1.58573 51.3802L1.50838 51.1958C1.24407 51.3066 1.03304 51.4749 0.888739 51.7012C0.744649 51.9272 0.671055 52.2047 0.671055 52.528H0.871055ZM1.5852 51.1956C1.35018 51.0986 1.17761 50.9553 1.06295 50.7711C0.947884 50.5863 0.887055 50.3536 0.887055 50.072H0.687055C0.687055 50.3824 0.754225 50.6537 0.893161 50.8769C1.0325 51.1007 1.23993 51.2694 1.50891 51.3804L1.5852 51.1956ZM0.887055 50.072C0.887055 49.6612 1.0138 49.3234 1.28043 49.0868C1.54885 48.8486 1.97356 48.7 2.59505 48.7V48.5C1.94455 48.5 1.46526 48.6554 1.14768 48.9372C0.828312 49.2206 0.687055 49.6188 0.687055 50.072H0.887055ZM7.92593 47.944V47.844H7.82593V47.944H7.92593ZM8.77393 47.944H8.87393V47.844H8.77393V47.944ZM8.77393 54V54.1H8.87393V54H8.77393ZM7.92593 54H7.82593V54.1H7.92593V54ZM7.92593 48.044H8.77393V47.844H7.92593V48.044ZM8.67393 47.944V54H8.87393V47.944H8.67393ZM8.77393 53.9H7.92593V54.1H8.77393V53.9ZM8.02593 54V47.944H7.82593V54H8.02593ZM12.1644 52.288V52.188H12.0644V52.288H12.1644ZM15.3964 53.176H15.4964V53.076H15.3964V53.176ZM15.3964 54V54.1H15.4964V54H15.3964ZM12.1644 51.624H12.0644V51.724H12.1644V51.624ZM12.8124 49.876H14.1804V49.676H12.8124V49.876ZM14.1804 49.876C14.666 49.876 14.9926 49.9926 15.1981 50.1901C15.4029 50.3869 15.5044 50.6804 15.5044 51.072H15.7044C15.7044 50.6476 15.594 50.2931 15.3367 50.0459C15.0802 49.7994 14.6948 49.676 14.1804 49.676V49.876ZM15.5044 51.072C15.5044 51.4442 15.4107 51.7159 15.2112 51.897C15.0096 52.08 14.681 52.188 14.1724 52.188V52.388C14.7039 52.388 15.0913 52.276 15.3456 52.045C15.6022 51.8121 15.7044 51.4758 15.7044 51.072H15.5044ZM14.1724 52.188H12.1644V52.388H14.1724V52.188ZM12.0644 52.288V52.592H12.2644V52.288H12.0644ZM12.0644 52.592C12.0644 52.7775 12.1154 52.9524 12.2437 53.0807C12.3722 53.2091 12.5632 53.276 12.8124 53.276V53.076C12.5977 53.076 12.4647 53.0189 12.3851 52.9393C12.3054 52.8596 12.2644 52.7425 12.2644 52.592H12.0644ZM12.8124 53.276H15.3964V53.076H12.8124V53.276ZM15.2964 53.176V54H15.4964V53.176H15.2964ZM15.3964 53.9H12.8124V54.1H15.3964V53.9ZM12.8124 53.9C12.303 53.9 11.9647 53.7576 11.7529 53.5351C11.5402 53.3115 11.4404 52.9918 11.4404 52.608H11.2404C11.2404 53.0242 11.3487 53.4005 11.608 53.6729C11.8682 53.9464 12.2659 54.1 12.8124 54.1V53.9ZM11.4404 52.608V51.168H11.2404V52.608H11.4404ZM11.4404 51.168C11.4404 50.7842 11.5402 50.4645 11.7529 50.2409C11.9647 50.0184 12.303 49.876 12.8124 49.876V49.676C12.2659 49.676 11.8682 49.8296 11.608 50.1031C11.3487 50.3755 11.2404 50.7518 11.2404 51.168H11.4404ZM12.0644 51.176V51.624H12.2644V51.176H12.0644ZM12.1644 51.724H14.1484V51.524H12.1644V51.724ZM14.1484 51.724C14.3879 51.724 14.5724 51.674 14.6974 51.5641C14.8252 51.4518 14.8724 51.2936 14.8724 51.12H14.6724C14.6724 51.2584 14.6356 51.3522 14.5654 51.4139C14.4924 51.478 14.365 51.524 14.1484 51.524V51.724ZM14.8724 51.12C14.8724 50.941 14.8205 50.7792 14.6969 50.6631C14.5742 50.5479 14.3959 50.492 14.1724 50.492V50.692C14.3649 50.692 14.4867 50.7401 14.56 50.8089C14.6323 50.8768 14.6724 50.979 14.6724 51.12H14.8724ZM14.1724 50.492H12.8124V50.692H14.1724V50.492ZM12.8124 50.492C12.5623 50.492 12.3714 50.5613 12.2434 50.6906C12.1157 50.8195 12.0644 50.994 12.0644 51.176H12.2644C12.2644 51.03 12.3052 50.9125 12.3855 50.8314C12.4654 50.7507 12.5985 50.692 12.8124 50.692V50.492ZM17.4906 49.776V49.676H17.3412L17.3981 49.8141L17.4906 49.776ZM18.3866 49.776L18.4789 49.7377L18.4533 49.676H18.3866V49.776ZM19.7946 53.168L19.8886 53.1338L19.8869 53.1297L19.7946 53.168ZM20.2266 53.168L20.3176 53.2094L20.3184 53.2076L20.2266 53.168ZM21.6906 49.776V49.676H21.6248L21.5987 49.7364L21.6906 49.776ZM22.6026 49.776L22.6943 49.8157L22.7548 49.676H22.6026V49.776ZM20.9706 53.544L21.0621 53.5843L21.0623 53.5837L20.9706 53.544ZM19.0426 53.544L19.1351 53.5062L19.135 53.5059L19.0426 53.544ZM17.4906 49.876H18.3866V49.676H17.4906V49.876ZM18.2942 49.8143L19.7022 53.2063L19.8869 53.1297L18.4789 49.7377L18.2942 49.8143ZM19.7006 53.2022C19.7236 53.2656 19.7636 53.3168 19.8201 53.3507C19.8751 53.3837 19.9384 53.396 20.0026 53.396V53.196C19.9627 53.196 19.9381 53.1883 19.923 53.1793C19.9095 53.1712 19.8975 53.1584 19.8885 53.1338L19.7006 53.2022ZM20.0026 53.396C20.0699 53.396 20.1344 53.384 20.1909 53.352C20.2488 53.3191 20.2901 53.2698 20.3176 53.2094L20.1355 53.1266C20.123 53.1542 20.1083 53.1689 20.0922 53.178C20.0747 53.188 20.0472 53.196 20.0026 53.196V53.396ZM20.3184 53.2076L21.7824 49.8156L21.5987 49.7364L20.1347 53.1284L20.3184 53.2076ZM21.6906 49.876H22.6026V49.676H21.6906V49.876ZM22.5108 49.7363L20.8788 53.5043L21.0623 53.5837L22.6943 49.8157L22.5108 49.7363ZM20.879 53.5037C20.7985 53.6868 20.6903 53.8065 20.5524 53.8824C20.4124 53.9594 20.233 53.996 20.0026 53.996V54.196C20.2521 54.196 20.4687 54.1566 20.6487 54.0576C20.8308 53.9575 20.9666 53.8012 21.0621 53.5843L20.879 53.5037ZM20.0026 53.996C19.7685 53.996 19.5873 53.9575 19.4484 53.8797C19.3117 53.8032 19.2078 53.6841 19.1351 53.5062L18.95 53.5818C19.0373 53.7959 19.1694 53.9528 19.3507 54.0543C19.5298 54.1545 19.7486 54.196 20.0026 54.196V53.996ZM19.135 53.5059L17.583 49.7379L17.3981 49.8141L18.9501 53.5821L19.135 53.5059ZM24.9686 49.776V49.676H24.8686V49.776H24.9686ZM28.1446 51.496V51.596H28.2446V51.496H28.1446ZM24.9686 50.592H24.8686V50.692H24.9686V50.592ZM28.1446 52.168H28.2446V52.068H28.1446V52.168ZM24.9686 49.876H27.5046V49.676H24.9686V49.876ZM27.5046 49.876C28.0141 49.876 28.3524 50.0184 28.5642 50.2409C28.7769 50.4645 28.8766 50.7842 28.8766 51.168H29.0766C29.0766 50.7518 28.9683 50.3755 28.7091 50.1031C28.4488 49.8296 28.0512 49.676 27.5046 49.676V49.876ZM28.8766 51.168V53.152H29.0766V51.168H28.8766ZM28.8766 53.152C28.8766 53.4544 28.8349 53.6299 28.7351 53.7352C28.6363 53.8393 28.4557 53.9 28.1046 53.9V54.1C28.4655 54.1 28.721 54.0407 28.8802 53.8728C29.0383 53.7061 29.0766 53.4576 29.0766 53.152H28.8766ZM28.1046 53.9H26.1286V54.1H28.1046V53.9ZM26.1286 53.9C25.6434 53.9 25.3189 53.7816 25.1152 53.5842C24.9122 53.3873 24.8126 53.0956 24.8126 52.712H24.6126C24.6126 53.1284 24.7211 53.4807 24.976 53.7278C25.2304 53.9744 25.6138 54.1 26.1286 54.1V53.9ZM24.8126 52.712C24.8126 52.3436 24.9045 52.0716 25.1023 51.8896C25.302 51.7058 25.6284 51.596 26.1366 51.596V51.396C25.6048 51.396 25.2192 51.5102 24.9669 51.7424C24.7127 51.9764 24.6126 52.3124 24.6126 52.712H24.8126ZM26.1366 51.596H28.1446V51.396H26.1366V51.596ZM28.2446 51.496V51.176H28.0446V51.496H28.2446ZM28.2446 51.176C28.2446 50.994 28.1933 50.8195 28.0657 50.6906C27.9376 50.5613 27.7467 50.492 27.4966 50.492V50.692C27.7105 50.692 27.8436 50.7507 27.9236 50.8314C28.0039 50.9125 28.0446 51.03 28.0446 51.176H28.2446ZM27.4966 50.492H24.9686V50.692H27.4966V50.492ZM25.0686 50.592V49.776H24.8686V50.592H25.0686ZM27.9126 53.276C28.0055 53.276 28.0954 53.2591 28.1603 53.1976C28.2267 53.1349 28.2446 53.0471 28.2446 52.96H28.0446C28.0446 53.0249 28.0305 53.0451 28.0229 53.0524C28.0138 53.0609 27.9878 53.076 27.9126 53.076V53.276ZM28.2446 52.96V52.168H28.0446V52.96H28.2446ZM28.1446 52.068H26.1526V52.268H28.1446V52.068ZM26.1526 52.068C25.9178 52.068 25.7367 52.1157 25.6143 52.2241C25.4891 52.335 25.4446 52.4917 25.4446 52.664H25.6446C25.6446 52.5243 25.6801 52.433 25.7469 52.3739C25.8165 52.3123 25.9394 52.268 26.1526 52.268V52.068ZM25.4446 52.664C25.4446 52.8374 25.4916 52.996 25.6132 53.11C25.7337 53.2228 25.9106 53.276 26.1366 53.276V53.076C25.9386 53.076 25.8196 53.0292 25.75 52.964C25.6816 52.9 25.6446 52.8026 25.6446 52.664H25.4446ZM26.1366 53.276H27.9126V53.076H26.1366V53.276ZM31.1916 49.776V49.676H31.0916V49.776H31.1916ZM31.7676 49.776V49.876H31.8676V49.776H31.7676ZM31.7676 48.776V48.676H31.6676V48.776H31.7676ZM32.6236 48.776H32.7236V48.676H32.6236V48.776ZM32.6236 49.776H32.5236V49.876H32.6236V49.776ZM33.7916 49.776H33.8916V49.676H33.7916V49.776ZM33.7916 50.592V50.692H33.8916V50.592H33.7916ZM32.6236 50.592V50.492H32.5236V50.592H32.6236ZM33.7756 53.224H33.8756V53.124H33.7756V53.224ZM33.7756 54V54.1H33.8756V54H33.7756ZM31.7676 50.592H31.8676V50.492H31.7676V50.592ZM31.1916 50.592H31.0916V50.692H31.1916V50.592ZM31.1916 49.876H31.7676V49.676H31.1916V49.876ZM31.8676 49.776V48.776H31.6676V49.776H31.8676ZM31.7676 48.876H32.6236V48.676H31.7676V48.876ZM32.5236 48.776V49.776H32.7236V48.776H32.5236ZM32.6236 49.876H33.7916V49.676H32.6236V49.876ZM33.6916 49.776V50.592H33.8916V49.776H33.6916ZM33.7916 50.492H32.6236V50.692H33.7916V50.492ZM32.5236 50.592V52.592H32.7236V50.592H32.5236ZM32.5236 52.592C32.5236 52.8353 32.5659 53.0256 32.6844 53.1531C32.8048 53.2826 32.9818 53.324 33.1916 53.324V53.124C33.0015 53.124 32.8945 53.0854 32.8309 53.0169C32.7653 52.9464 32.7236 52.8207 32.7236 52.592H32.5236ZM33.1916 53.324H33.7756V53.124H33.1916V53.324ZM33.6756 53.224V54H33.8756V53.224H33.6756ZM33.7756 53.9H33.0156V54.1H33.7756V53.9ZM33.0156 53.9C32.5898 53.9 32.3136 53.8135 32.139 53.6192C31.9616 53.4217 31.8676 53.0896 31.8676 52.544H31.6676C31.6676 53.1024 31.7616 53.4983 31.9902 53.7528C32.2217 54.0105 32.5695 54.1 33.0156 54.1V53.9ZM31.8676 52.544V50.592H31.6676V52.544H31.8676ZM31.7676 50.492H31.1916V50.692H31.7676V50.492ZM31.2916 50.592V49.776H31.0916V50.592H31.2916ZM36.7916 52.288V52.188H36.6916V52.288H36.7916ZM40.0236 53.176H40.1236V53.076H40.0236V53.176ZM40.0236 54V54.1H40.1236V54H40.0236ZM36.7916 51.624H36.6916V51.724H36.7916V51.624ZM37.4396 49.876H38.8076V49.676H37.4396V49.876ZM38.8076 49.876C39.2932 49.876 39.6198 49.9926 39.8253 50.1901C40.0301 50.3869 40.1316 50.6804 40.1316 51.072H40.3316C40.3316 50.6476 40.2211 50.2931 39.9639 50.0459C39.7074 49.7994 39.322 49.676 38.8076 49.676V49.876ZM40.1316 51.072C40.1316 51.4442 40.0379 51.7159 39.8384 51.897C39.6368 52.08 39.3082 52.188 38.7996 52.188V52.388C39.331 52.388 39.7185 52.276 39.9728 52.045C40.2294 51.8121 40.3316 51.4758 40.3316 51.072H40.1316ZM38.7996 52.188H36.7916V52.388H38.7996V52.188ZM36.6916 52.288V52.592H36.8916V52.288H36.6916ZM36.6916 52.592C36.6916 52.7775 36.7426 52.9524 36.8709 53.0807C36.9993 53.2091 37.1904 53.276 37.4396 53.276V53.076C37.2248 53.076 37.0919 53.0189 37.0123 52.9393C36.9326 52.8596 36.8916 52.7425 36.8916 52.592H36.6916ZM37.4396 53.276H40.0236V53.076H37.4396V53.276ZM39.9236 53.176V54H40.1236V53.176H39.9236ZM40.0236 53.9H37.4396V54.1H40.0236V53.9ZM37.4396 53.9C36.9302 53.9 36.5918 53.7576 36.3801 53.5351C36.1673 53.3115 36.0676 52.9918 36.0676 52.608H35.8676C35.8676 53.0242 35.9759 53.4005 36.2352 53.6729C36.4954 53.9464 36.8931 54.1 37.4396 54.1V53.9ZM36.0676 52.608V51.168H35.8676V52.608H36.0676ZM36.0676 51.168C36.0676 50.7842 36.1673 50.4645 36.3801 50.2409C36.5918 50.0184 36.9302 49.876 37.4396 49.876V49.676C36.8931 49.676 36.4954 49.8296 36.2352 50.1031C35.9759 50.3755 35.8676 50.7518 35.8676 51.168H36.0676ZM36.6916 51.176V51.624H36.8916V51.176H36.6916ZM36.7916 51.724H38.7756V51.524H36.7916V51.724ZM38.7756 51.724C39.015 51.724 39.1996 51.674 39.3246 51.5641C39.4524 51.4518 39.4996 51.2936 39.4996 51.12H39.2996C39.2996 51.2584 39.2628 51.3522 39.1926 51.4139C39.1196 51.478 38.9922 51.524 38.7756 51.524V51.724ZM39.4996 51.12C39.4996 50.941 39.4477 50.7792 39.3241 50.6631C39.2014 50.5479 39.0231 50.492 38.7996 50.492V50.692C38.9921 50.692 39.1139 50.7401 39.1872 50.8089C39.2595 50.8768 39.2996 50.979 39.2996 51.12H39.4996ZM38.7996 50.492H37.4396V50.692H38.7996V50.492ZM37.4396 50.492C37.1895 50.492 36.9986 50.5613 36.8706 50.6906C36.7429 50.8195 36.6916 50.994 36.6916 51.176H36.8916C36.8916 51.03 36.9323 50.9125 37.0127 50.8314C37.0926 50.7507 37.2257 50.692 37.4396 50.692V50.492ZM49.7992 49.776V49.676H49.7334L49.7074 49.7364L49.7992 49.776ZM50.7032 49.776L50.7951 49.8155L50.855 49.676H50.7032V49.776ZM48.1592 55.696V55.796H48.225L48.2511 55.7355L48.1592 55.696ZM47.2472 55.696L47.1553 55.6566L47.0955 55.796H47.2472V55.696ZM48.0392 53.848L48.1311 53.8874L48.1908 53.748H48.0392V53.848ZM47.2472 53.328L47.3403 53.2916L47.3401 53.291L47.2472 53.328ZM45.8312 49.776V49.676H45.6837L45.7383 49.813L45.8312 49.776ZM46.7272 49.776L46.8199 49.7385L46.7946 49.676H46.7272V49.776ZM47.9992 52.92L48.0931 52.8854L48.0919 52.8825L47.9992 52.92ZM48.3672 53.096V53.196H48.433L48.459 53.1356L48.3672 53.096ZM49.7992 49.876H50.7032V49.676H49.7992V49.876ZM50.6113 49.7365L48.0673 55.6565L48.2511 55.7355L50.7951 49.8155L50.6113 49.7365ZM48.1592 55.596H47.2472V55.796H48.1592V55.596ZM47.3391 55.7354L48.1311 53.8874L47.9473 53.8086L47.1553 55.6566L47.3391 55.7354ZM48.0392 53.748C47.8079 53.748 47.6701 53.711 47.5745 53.6441C47.4789 53.5771 47.41 53.4696 47.3403 53.2916L47.1541 53.3644C47.2284 53.5544 47.3155 53.7069 47.4598 53.8079C47.6043 53.909 47.7905 53.948 48.0392 53.948V53.748ZM47.3401 53.291L45.9241 49.739L45.7383 49.813L47.1543 53.365L47.3401 53.291ZM45.8312 49.876H46.7272V49.676H45.8312V49.876ZM46.6345 49.8135L47.9065 52.9575L48.0919 52.8825L46.8199 49.7385L46.6345 49.8135ZM47.9053 52.9546C47.9333 53.0305 47.9661 53.1032 48.0322 53.1479C48.0974 53.1919 48.1768 53.196 48.2552 53.196V52.996C48.1736 52.996 48.153 52.9881 48.1442 52.9821C48.1363 52.9768 48.121 52.9615 48.093 52.8854L47.9053 52.9546ZM48.2552 53.196H48.3672V52.996H48.2552V53.196ZM48.459 53.1356L49.891 49.8156L49.7074 49.7364L48.2754 53.0564L48.459 53.1356ZM54.3045 49.876H55.1925V49.676H54.3045V49.876ZM55.1925 49.876C55.7316 49.876 56.1598 50.041 56.4545 50.3652C56.7504 50.6909 56.9245 51.1915 56.9245 51.888H57.1245C57.1245 51.1605 56.9426 50.6051 56.6025 50.2308C56.2611 49.855 55.7734 49.676 55.1925 49.676V49.876ZM56.9245 51.888C56.9245 52.5845 56.7504 53.0851 56.4545 53.4108C56.1598 53.735 55.7316 53.9 55.1925 53.9V54.1C55.7734 54.1 56.2611 53.921 56.6025 53.5452C56.9426 53.1709 57.1245 52.6155 57.1245 51.888H56.9245ZM55.1925 53.9H54.3045V54.1H55.1925V53.9ZM54.3045 53.9C53.7612 53.9 53.3331 53.735 53.0396 53.4109C52.7447 53.0853 52.5725 52.5848 52.5725 51.888H52.3725C52.3725 52.6152 52.5522 53.1707 52.8914 53.5451C53.2318 53.921 53.7198 54.1 54.3045 54.1V53.9ZM52.5725 51.888C52.5725 51.1912 52.7447 50.6907 53.0396 50.3651C53.3331 50.041 53.7612 49.876 54.3045 49.876V49.676C53.7198 49.676 53.2318 49.855 52.8914 50.2309C52.5522 50.6053 52.3725 51.1608 52.3725 51.888H52.5725ZM55.1125 50.492H54.3845V50.692H55.1125V50.492ZM54.3845 50.492C53.9997 50.492 53.7011 50.5929 53.5031 50.8346C53.3091 51.0716 53.2285 51.4242 53.2285 51.888H53.4285C53.4285 51.4398 53.5079 51.1444 53.6579 50.9614C53.8038 50.7831 54.0333 50.692 54.3845 50.692V50.492ZM53.2285 51.888C53.2285 52.3517 53.309 52.7027 53.5034 52.9377C53.7017 53.1775 54.0003 53.276 54.3845 53.276V53.076C54.0327 53.076 53.8033 52.9865 53.6576 52.8103C53.5079 52.6293 53.4285 52.3363 53.4285 51.888H53.2285ZM54.3845 53.276H55.1125V53.076H54.3845V53.276ZM55.1125 53.276C55.493 53.276 55.7913 53.1773 55.9904 52.9379C56.1858 52.703 56.2685 52.3522 56.2685 51.888H56.0685C56.0685 52.3358 55.9872 52.629 55.8366 52.8101C55.6897 52.9867 55.46 53.076 55.1125 53.076V53.276ZM56.2685 51.888C56.2685 51.4237 56.1857 51.0712 55.9907 50.8344C55.7918 50.593 55.4936 50.492 55.1125 50.492V50.692C55.4594 50.692 55.6892 50.783 55.8363 50.9616C55.9872 51.1448 56.0685 51.4403 56.0685 51.888H56.2685ZM59.4557 49.776V49.676H59.3557V49.776H59.4557ZM60.3117 49.776H60.4117V49.676H60.3117V49.776ZM63.0717 49.776V49.676H62.9717V49.776H63.0717ZM63.9037 49.776H64.0037V49.676H63.9037V49.776ZM59.4557 49.876H60.3117V49.676H59.4557V49.876ZM60.2117 49.776V52.304H60.4117V49.776H60.2117ZM60.2117 52.304C60.2117 52.5779 60.314 52.8242 60.5134 53.0008C60.7118 53.1767 60.9974 53.276 61.3517 53.276V53.076C61.034 53.076 60.7996 52.9873 60.646 52.8512C60.4933 52.7158 60.4117 52.5261 60.4117 52.304H60.2117ZM61.3517 53.276H62.0397V53.076H61.3517V53.276ZM62.0397 53.276C62.394 53.276 62.6779 53.1767 62.8744 53.0005C63.0718 52.8235 63.1717 52.5773 63.1717 52.304H62.9717C62.9717 52.5267 62.8915 52.7165 62.7409 52.8515C62.5895 52.9873 62.3574 53.076 62.0397 53.076V53.276ZM63.1717 52.304V49.776H62.9717V52.304H63.1717ZM63.0717 49.876H63.9037V49.676H63.0717V49.876ZM63.8037 49.776V52.336H64.0037V49.776H63.8037ZM63.8037 52.336C63.8037 52.8024 63.6551 53.1902 63.3715 53.4618C63.0876 53.7336 62.6569 53.9 62.0717 53.9V54.1C62.6945 54.1 63.1797 53.9224 63.5098 53.6062C63.8403 53.2898 64.0037 52.8456 64.0037 52.336H63.8037ZM62.0717 53.9H61.2877V54.1H62.0717V53.9ZM61.2877 53.9C60.7025 53.9 60.2717 53.7336 59.9878 53.4618C59.7043 53.1902 59.5557 52.8024 59.5557 52.336H59.3557C59.3557 52.8456 59.5191 53.2898 59.8495 53.6062C60.1796 53.9224 60.6649 54.1 61.2877 54.1V53.9ZM59.5557 52.336V49.776H59.3557V52.336H59.5557ZM69.4089 49.776H69.5089V49.676H69.4089V49.776ZM69.4089 50.592V50.692H69.5089V50.592H69.4089ZM67.3769 54V54.1H67.4769V54H67.3769ZM66.5289 54H66.4289V54.1H66.5289V54ZM67.6729 49.876H69.4089V49.676H67.6729V49.876ZM69.3089 49.776V50.592H69.5089V49.776H69.3089ZM69.4089 50.492H67.9209V50.692H69.4089V50.492ZM67.9209 50.492C67.7191 50.492 67.5521 50.5391 67.4368 50.6557C67.3217 50.772 67.2769 50.9388 67.2769 51.136H67.4769C67.4769 50.9652 67.516 50.8599 67.579 50.7963C67.6417 50.7329 67.7466 50.692 67.9209 50.692V50.492ZM67.2769 51.136V54H67.4769V51.136H67.2769ZM67.3769 53.9H66.5289V54.1H67.3769V53.9ZM66.6289 54V51.008H66.4289V54H66.6289ZM66.6289 51.008C66.6289 50.5924 66.7061 50.3153 66.8632 50.1409C67.018 49.9691 67.2701 49.876 67.6729 49.876V49.676C67.2437 49.676 66.9237 49.7749 66.7146 50.0071C66.5077 50.2367 66.4289 50.5756 66.4289 51.008H66.6289ZM79.4848 48.6H79.5848V48.5H79.4848V48.6ZM79.4848 49.544V49.644H79.5848V49.544H79.4848ZM76.1968 50.968H76.0968V51.068H76.1968V50.968ZM79.4528 50.968H79.5528V50.868H79.4528V50.968ZM79.4528 51.864V51.964H79.5528V51.864H79.4528ZM76.1968 51.864V51.764H76.0968V51.864H76.1968ZM76.1968 54V54.1H76.2968V54H76.1968ZM75.2528 54H75.1528V54.1H75.2528V54ZM77.2448 48.7H79.4848V48.5H77.2448V48.7ZM79.3848 48.6V49.544H79.5848V48.6H79.3848ZM79.4848 49.444H77.3088V49.644H79.4848V49.444ZM77.3088 49.444C76.8666 49.444 76.559 49.5493 76.3624 49.739C76.165 49.9295 76.0968 50.1881 76.0968 50.456H76.2968C76.2968 50.2199 76.3566 50.0225 76.5012 49.883C76.6466 49.7427 76.895 49.644 77.3088 49.644V49.444ZM76.0968 50.456V50.968H76.2968V50.456H76.0968ZM76.1968 51.068H79.4528V50.868H76.1968V51.068ZM79.3528 50.968V51.864H79.5528V50.968H79.3528ZM79.4528 51.764H76.1968V51.964H79.4528V51.764ZM76.0968 51.864V54H76.2968V51.864H76.0968ZM76.1968 53.9H75.2528V54.1H76.1968V53.9ZM75.3528 54V50.464H75.1528V54H75.3528ZM75.3528 50.464C75.3528 49.9402 75.4885 49.5028 75.7838 49.1964C76.0784 48.8908 76.5467 48.7 77.2448 48.7V48.5C76.5109 48.5 75.9832 48.7012 75.6398 49.0576C75.2971 49.4132 75.1528 49.9078 75.1528 50.464H75.3528ZM81.9975 49.776V49.676H81.8975V49.776H81.9975ZM82.8455 49.776H82.9455V49.676H82.8455V49.776ZM82.8455 54V54.1H82.9455V54H82.8455ZM81.9975 54H81.8975V54.1H81.9975V54ZM81.9975 48.184V48.084H81.8975V48.184H81.9975ZM82.8535 48.184H82.9535V48.084H82.8535V48.184ZM82.8535 49.168V49.268H82.9535V49.168H82.8535ZM81.9975 49.168H81.8975V49.268H81.9975V49.168ZM81.9975 49.876H82.8455V49.676H81.9975V49.876ZM82.7455 49.776V54H82.9455V49.776H82.7455ZM82.8455 53.9H81.9975V54.1H82.8455V53.9ZM82.0975 54V49.776H81.8975V54H82.0975ZM81.9975 48.284H82.8535V48.084H81.9975V48.284ZM82.7535 48.184V49.168H82.9535V48.184H82.7535ZM82.8535 49.068H81.9975V49.268H82.8535V49.068ZM82.0975 49.168V48.184H81.8975V49.168H82.0975ZM89.964 54V54.1H90.064V54H89.964ZM89.108 54H89.008V54.1H89.108V54ZM86.348 54V54.1H86.448V54H86.348ZM85.5 54H85.4V54.1H85.5V54ZM86.092 49.876H87.836V49.676H86.092V49.876ZM87.836 49.876C88.5377 49.876 89.0421 50.0427 89.3703 50.3365C89.6966 50.6286 89.864 51.0602 89.864 51.624H90.064C90.064 51.0198 89.8833 50.5274 89.5037 50.1875C89.1259 49.8493 88.5663 49.676 87.836 49.676V49.876ZM89.864 51.624V54H90.064V51.624H89.864ZM89.964 53.9H89.108V54.1H89.964V53.9ZM89.208 54V51.624H89.008V54H89.208ZM89.208 51.624C89.208 51.2724 89.1056 50.9822 88.8696 50.7826C88.6369 50.5859 88.2912 50.492 87.836 50.492V50.692C88.2687 50.692 88.5591 50.7821 88.7404 50.9354C88.9184 51.0858 89.008 51.3116 89.008 51.624H89.208ZM87.836 50.492H86.452V50.692H87.836V50.492ZM86.452 50.492C86.3976 50.492 86.3389 50.5077 86.2968 50.5572C86.2576 50.6033 86.248 50.6615 86.248 50.712H86.448C86.448 50.6983 86.4494 50.6901 86.4505 50.686C86.4516 50.6822 86.4519 50.6836 86.4492 50.6868C86.4479 50.6883 86.4463 50.6898 86.4446 50.691C86.4428 50.6922 86.4415 50.6927 86.441 50.6929C86.4401 50.6933 86.4429 50.692 86.452 50.692V50.492ZM86.248 50.712V54H86.448V50.712H86.248ZM86.348 53.9H85.5V54.1H86.348V53.9ZM85.6 54V50.432H85.4V54H85.6ZM85.6 50.432C85.6 50.1901 85.6421 50.0592 85.7102 49.9862C85.7762 49.9152 85.8884 49.876 86.092 49.876V49.676C85.8716 49.676 85.6878 49.7168 85.5638 49.8498C85.4419 49.9808 85.4 50.1779 85.4 50.432H85.6ZM92.7642 49.776V49.676H92.6642V49.776H92.7642ZM95.9402 51.496V51.596H96.0402V51.496H95.9402ZM92.7642 50.592H92.6642V50.692H92.7642V50.592ZM95.9402 52.168H96.0402V52.068H95.9402V52.168ZM92.7642 49.876H95.3002V49.676H92.7642V49.876ZM95.3002 49.876C95.8097 49.876 96.148 50.0184 96.3598 50.2409C96.5725 50.4645 96.6722 50.7842 96.6722 51.168H96.8722C96.8722 50.7518 96.764 50.3755 96.5047 50.1031C96.2445 49.8296 95.8468 49.676 95.3002 49.676V49.876ZM96.6722 51.168V53.152H96.8722V51.168H96.6722ZM96.6722 53.152C96.6722 53.4544 96.6306 53.6299 96.5307 53.7352C96.4319 53.8393 96.2514 53.9 95.9002 53.9V54.1C96.2611 54.1 96.5166 54.0407 96.6758 53.8728C96.8339 53.7061 96.8722 53.4576 96.8722 53.152H96.6722ZM95.9002 53.9H93.9242V54.1H95.9002V53.9ZM93.9242 53.9C93.4391 53.9 93.1145 53.7816 92.9108 53.5842C92.7078 53.3873 92.6082 53.0956 92.6082 52.712H92.4082C92.4082 53.1284 92.5167 53.4807 92.7716 53.7278C93.026 53.9744 93.4094 54.1 93.9242 54.1V53.9ZM92.6082 52.712C92.6082 52.3436 92.7002 52.0716 92.898 51.8896C93.0976 51.7058 93.424 51.596 93.9322 51.596V51.396C93.4004 51.396 93.0149 51.5102 92.7625 51.7424C92.5083 51.9764 92.4082 52.3124 92.4082 52.712H92.6082ZM93.9322 51.596H95.9402V51.396H93.9322V51.596ZM96.0402 51.496V51.176H95.8402V51.496H96.0402ZM96.0402 51.176C96.0402 50.994 95.989 50.8195 95.8613 50.6906C95.7332 50.5613 95.5423 50.492 95.2922 50.492V50.692C95.5061 50.692 95.6393 50.7507 95.7192 50.8314C95.7995 50.9125 95.8402 51.03 95.8402 51.176H96.0402ZM95.2922 50.492H92.7642V50.692H95.2922V50.492ZM92.8642 50.592V49.776H92.6642V50.592H92.8642ZM95.7082 53.276C95.8011 53.276 95.891 53.2591 95.956 53.1976C96.0223 53.1349 96.0402 53.0471 96.0402 52.96H95.8402C95.8402 53.0249 95.8261 53.0451 95.8185 53.0524C95.8094 53.0609 95.7834 53.076 95.7082 53.076V53.276ZM96.0402 52.96V52.168H95.8402V52.96H96.0402ZM95.9402 52.068H93.9482V52.268H95.9402V52.068ZM93.9482 52.068C93.7134 52.068 93.5324 52.1157 93.41 52.2241C93.2848 52.335 93.2402 52.4917 93.2402 52.664H93.4402C93.4402 52.5243 93.4757 52.433 93.5425 52.3739C93.6121 52.3123 93.735 52.268 93.9482 52.268V52.068ZM93.2402 52.664C93.2402 52.8374 93.2872 52.996 93.4089 53.11C93.5293 53.2228 93.7062 53.276 93.9322 53.276V53.076C93.7343 53.076 93.6152 53.0292 93.5456 52.964C93.4772 52.9 93.4402 52.8026 93.4402 52.664H93.2402ZM93.9322 53.276H95.7082V53.076H93.9322V53.276ZM103.875 54V54.1H103.975V54H103.875ZM103.019 54H102.919V54.1H103.019V54ZM100.259 54V54.1H100.359V54H100.259ZM99.4112 54H99.3112V54.1H99.4112V54ZM100.003 49.876H101.747V49.676H100.003V49.876ZM101.747 49.876C102.449 49.876 102.953 50.0427 103.282 50.3365C103.608 50.6286 103.775 51.0602 103.775 51.624H103.975C103.975 51.0198 103.795 50.5274 103.415 50.1875C103.037 49.8493 102.478 49.676 101.747 49.676V49.876ZM103.775 51.624V54H103.975V51.624H103.775ZM103.875 53.9H103.019V54.1H103.875V53.9ZM103.119 54V51.624H102.919V54H103.119ZM103.119 51.624C103.119 51.2724 103.017 50.9822 102.781 50.7826C102.548 50.5859 102.202 50.492 101.747 50.492V50.692C102.18 50.692 102.47 50.7821 102.652 50.9354C102.83 51.0858 102.919 51.3116 102.919 51.624H103.119ZM101.747 50.492H100.363V50.692H101.747V50.492ZM100.363 50.492C100.309 50.492 100.25 50.5077 100.208 50.5572C100.169 50.6033 100.159 50.6615 100.159 50.712H100.359C100.359 50.6983 100.361 50.6901 100.362 50.686C100.363 50.6822 100.363 50.6836 100.36 50.6868C100.359 50.6883 100.358 50.6898 100.356 50.691C100.354 50.6922 100.353 50.6927 100.352 50.6929C100.351 50.6933 100.354 50.692 100.363 50.692V50.492ZM100.159 50.712V54H100.359V50.712H100.159ZM100.259 53.9H99.4112V54.1H100.259V53.9ZM99.5112 54V50.432H99.3112V54H99.5112ZM99.5112 50.432C99.5112 50.1901 99.5534 50.0592 99.6214 49.9862C99.6875 49.9152 99.7997 49.876 100.003 49.876V49.676C99.7828 49.676 99.599 49.7168 99.4751 49.8498C99.3531 49.9808 99.3112 50.1779 99.3112 50.432H99.5112ZM110.315 49.776H110.415V49.676H110.315V49.776ZM110.315 50.592V50.692H110.415V50.592H110.315ZM110.315 53.176H110.415V53.076H110.315V53.176ZM110.315 54V54.1H110.415V54H110.315ZM108.139 49.876H110.315V49.676H108.139V49.876ZM110.215 49.776V50.592H110.415V49.776H110.215ZM110.315 50.492H108.219V50.692H110.315V50.492ZM108.219 50.492C107.835 50.492 107.536 50.5929 107.338 50.8346C107.144 51.0716 107.063 51.4242 107.063 51.888H107.263C107.263 51.4398 107.343 51.1444 107.493 50.9614C107.639 50.7831 107.868 50.692 108.219 50.692V50.492ZM107.063 51.888C107.063 52.3517 107.144 52.7027 107.338 52.9377C107.537 53.1775 107.835 53.276 108.219 53.276V53.076C107.868 53.076 107.638 52.9865 107.493 52.8103C107.343 52.6293 107.263 52.3363 107.263 51.888H107.063ZM108.219 53.276H110.315V53.076H108.219V53.276ZM110.215 53.176V54H110.415V53.176H110.215ZM110.315 53.9H108.139V54.1H110.315V53.9ZM108.139 53.9C107.596 53.9 107.168 53.735 106.875 53.4109C106.58 53.0853 106.407 52.5848 106.407 51.888H106.207C106.207 52.6152 106.387 53.1707 106.726 53.5451C107.067 53.921 107.555 54.1 108.139 54.1V53.9ZM106.407 51.888C106.407 51.1912 106.58 50.6907 106.875 50.3651C107.168 50.041 107.596 49.876 108.139 49.876V49.676C107.555 49.676 107.067 49.855 106.726 50.2309C106.387 50.6053 106.207 51.1608 106.207 51.888H106.407ZM112.76 49.776V49.676H112.66V49.776H112.76ZM113.608 49.776H113.708V49.676H113.608V49.776ZM113.608 54V54.1H113.708V54H113.608ZM112.76 54H112.66V54.1H112.76V54ZM112.76 48.184V48.084H112.66V48.184H112.76ZM113.616 48.184H113.716V48.084H113.616V48.184ZM113.616 49.168V49.268H113.716V49.168H113.616ZM112.76 49.168H112.66V49.268H112.76V49.168ZM112.76 49.876H113.608V49.676H112.76V49.876ZM113.508 49.776V54H113.708V49.776H113.508ZM113.608 53.9H112.76V54.1H113.608V53.9ZM112.86 54V49.776H112.66V54H112.86ZM112.76 48.284H113.616V48.084H112.76V48.284ZM113.516 48.184V49.168H113.716V48.184H113.516ZM113.616 49.068H112.76V49.268H113.616V49.068ZM112.86 49.168V48.184H112.66V49.168H112.86ZM116.43 49.776V49.676H116.33V49.776H116.43ZM119.606 51.496V51.596H119.706V51.496H119.606ZM116.43 50.592H116.33V50.692H116.43V50.592ZM119.606 52.168H119.706V52.068H119.606V52.168ZM116.43 49.876H118.966V49.676H116.43V49.876ZM118.966 49.876C119.476 49.876 119.814 50.0184 120.026 50.2409C120.239 50.4645 120.338 50.7842 120.338 51.168H120.538C120.538 50.7518 120.43 50.3755 120.171 50.1031C119.911 49.8296 119.513 49.676 118.966 49.676V49.876ZM120.338 51.168V53.152H120.538V51.168H120.338ZM120.338 53.152C120.338 53.4544 120.297 53.6299 120.197 53.7352C120.098 53.8393 119.918 53.9 119.566 53.9V54.1C119.927 54.1 120.183 54.0407 120.342 53.8728C120.5 53.7061 120.538 53.4576 120.538 53.152H120.338ZM119.566 53.9H117.59V54.1H119.566V53.9ZM117.59 53.9C117.105 53.9 116.781 53.7816 116.577 53.5842C116.374 53.3873 116.274 53.0956 116.274 52.712H116.074C116.074 53.1284 116.183 53.4807 116.438 53.7278C116.692 53.9744 117.076 54.1 117.59 54.1V53.9ZM116.274 52.712C116.274 52.3436 116.366 52.0716 116.564 51.8896C116.764 51.7058 117.09 51.596 117.598 51.596V51.396C117.067 51.396 116.681 51.5102 116.429 51.7424C116.175 51.9764 116.074 52.3124 116.074 52.712H116.274ZM117.598 51.596H119.606V51.396H117.598V51.596ZM119.706 51.496V51.176H119.506V51.496H119.706ZM119.706 51.176C119.706 50.994 119.655 50.8195 119.528 50.6906C119.399 50.5613 119.209 50.492 118.958 50.492V50.692C119.172 50.692 119.306 50.7507 119.385 50.8314C119.466 50.9125 119.506 51.03 119.506 51.176H119.706ZM118.958 50.492H116.43V50.692H118.958V50.492ZM116.53 50.592V49.776H116.33V50.592H116.53ZM119.374 53.276C119.467 53.276 119.557 53.2591 119.622 53.1976C119.689 53.1349 119.706 53.0471 119.706 52.96H119.506C119.506 53.0249 119.492 53.0451 119.485 53.0524C119.476 53.0609 119.45 53.076 119.374 53.076V53.276ZM119.706 52.96V52.168H119.506V52.96H119.706ZM119.606 52.068H117.614V52.268H119.606V52.068ZM117.614 52.068C117.38 52.068 117.199 52.1157 117.076 52.2241C116.951 52.335 116.906 52.4917 116.906 52.664H117.106C117.106 52.5243 117.142 52.433 117.209 52.3739C117.278 52.3123 117.401 52.268 117.614 52.268V52.068ZM116.906 52.664C116.906 52.8374 116.953 52.996 117.075 53.11C117.196 53.2228 117.372 53.276 117.598 53.276V53.076C117.401 53.076 117.281 53.0292 117.212 52.964C117.143 52.9 117.106 52.8026 117.106 52.664H116.906ZM117.598 53.276H119.374V53.076H117.598V53.276ZM123.077 47.944V47.844H122.977V47.944H123.077ZM123.925 47.944H124.025V47.844H123.925V47.944ZM123.925 54V54.1H124.025V54H123.925ZM123.077 54H122.977V54.1H123.077V54ZM123.077 48.044H123.925V47.844H123.077V48.044ZM123.825 47.944V54H124.025V47.944H123.825ZM123.925 53.9H123.077V54.1H123.925V53.9ZM123.177 54V47.944H122.977V54H123.177ZM130.241 49.776V49.676H130.141V49.776H130.241ZM131.097 49.776H131.197V49.676H131.097V49.776ZM129.113 55.696H129.013V55.796H129.113V55.696ZM129.113 54.88V54.78H129.013V54.88H129.113ZM130.241 48.184V48.084H130.141V48.184H130.241ZM131.097 48.184H131.197V48.084H131.097V48.184ZM131.097 49.168V49.268H131.197V49.168H131.097ZM130.241 49.168H130.141V49.268H130.241V49.168ZM130.241 49.876H131.097V49.676H130.241V49.876ZM130.997 49.776V54.24H131.197V49.776H130.997ZM130.997 54.24C130.997 54.7856 130.903 55.1178 130.726 55.3154C130.553 55.5096 130.278 55.596 129.857 55.596V55.796C130.299 55.796 130.645 55.7064 130.875 55.4486C131.103 55.1942 131.197 54.7984 131.197 54.24H130.997ZM129.857 55.596H129.113V55.796H129.857V55.596ZM129.213 55.696V54.88H129.013V55.696H129.213ZM129.113 54.98H129.665V54.78H129.113V54.98ZM129.665 54.98C129.882 54.98 130.061 54.9391 130.182 54.8091C130.301 54.6812 130.341 54.4902 130.341 54.248H130.141C130.141 54.4778 130.101 54.6028 130.036 54.6729C129.972 54.7409 129.864 54.78 129.665 54.78V54.98ZM130.341 54.248V49.776H130.141V54.248H130.341ZM130.241 48.284H131.097V48.084H130.241V48.284ZM130.997 48.184V49.168H131.197V48.184H130.997ZM131.097 49.068H130.241V49.268H131.097V49.068ZM130.341 49.168V48.184H130.141V49.168H130.341ZM135.381 49.876H136.269V49.676H135.381V49.876ZM136.269 49.876C136.808 49.876 137.236 50.041 137.531 50.3652C137.827 50.6909 138.001 51.1915 138.001 51.888H138.201C138.201 51.1605 138.019 50.6051 137.679 50.2308C137.338 49.855 136.85 49.676 136.269 49.676V49.876ZM138.001 51.888C138.001 52.5845 137.827 53.0851 137.531 53.4108C137.236 53.735 136.808 53.9 136.269 53.9V54.1C136.85 54.1 137.338 53.921 137.679 53.5452C138.019 53.1709 138.201 52.6155 138.201 51.888H138.001ZM136.269 53.9H135.381V54.1H136.269V53.9ZM135.381 53.9C134.838 53.9 134.41 53.735 134.116 53.4109C133.821 53.0853 133.649 52.5848 133.649 51.888H133.449C133.449 52.6152 133.629 53.1707 133.968 53.5451C134.308 53.921 134.796 54.1 135.381 54.1V53.9ZM133.649 51.888C133.649 51.1912 133.821 50.6907 134.116 50.3651C134.41 50.041 134.838 49.876 135.381 49.876V49.676C134.796 49.676 134.308 49.855 133.968 50.2309C133.629 50.6053 133.449 51.1608 133.449 51.888H133.649ZM136.189 50.492H135.461V50.692H136.189V50.492ZM135.461 50.492C135.076 50.492 134.778 50.5929 134.58 50.8346C134.386 51.0716 134.305 51.4242 134.305 51.888H134.505C134.505 51.4398 134.584 51.1444 134.734 50.9614C134.88 50.7831 135.11 50.692 135.461 50.692V50.492ZM134.305 51.888C134.305 52.3517 134.386 52.7027 134.58 52.9377C134.778 53.1775 135.077 53.276 135.461 53.276V53.076C135.109 53.076 134.88 52.9865 134.734 52.8103C134.585 52.6293 134.505 52.3363 134.505 51.888H134.305ZM135.461 53.276H136.189V53.076H135.461V53.276ZM136.189 53.276C136.57 53.276 136.868 53.1773 137.067 52.9379C137.262 52.703 137.345 52.3522 137.345 51.888H137.145C137.145 52.3358 137.064 52.629 136.913 52.8101C136.766 52.9867 136.537 53.076 136.189 53.076V53.276ZM137.345 51.888C137.345 51.4237 137.262 51.0712 137.067 50.8344C136.868 50.593 136.57 50.492 136.189 50.492V50.692C136.536 50.692 136.766 50.783 136.913 50.9616C137.064 51.1448 137.145 51.4403 137.145 51.888H137.345ZM140.532 49.776V49.676H140.432V49.776H140.532ZM141.388 49.776H141.488V49.676H141.388V49.776ZM144.148 49.776V49.676H144.048V49.776H144.148ZM144.98 49.776H145.08V49.676H144.98V49.776ZM140.532 49.876H141.388V49.676H140.532V49.876ZM141.288 49.776V52.304H141.488V49.776H141.288ZM141.288 52.304C141.288 52.5779 141.391 52.8242 141.59 53.0008C141.788 53.1767 142.074 53.276 142.428 53.276V53.076C142.111 53.076 141.876 52.9873 141.723 52.8512C141.57 52.7158 141.488 52.5261 141.488 52.304H141.288ZM142.428 53.276H143.116V53.076H142.428V53.276ZM143.116 53.276C143.471 53.276 143.754 53.1767 143.951 53.0005C144.148 52.8235 144.248 52.5773 144.248 52.304H144.048C144.048 52.5267 143.968 52.7165 143.817 52.8515C143.666 52.9873 143.434 53.076 143.116 53.076V53.276ZM144.248 52.304V49.776H144.048V52.304H144.248ZM144.148 49.876H144.98V49.676H144.148V49.876ZM144.88 49.776V52.336H145.08V49.776H144.88ZM144.88 52.336C144.88 52.8024 144.732 53.1902 144.448 53.4618C144.164 53.7336 143.733 53.9 143.148 53.9V54.1C143.771 54.1 144.256 53.9224 144.586 53.6062C144.917 53.2898 145.08 52.8456 145.08 52.336H144.88ZM143.148 53.9H142.364V54.1H143.148V53.9ZM142.364 53.9C141.779 53.9 141.348 53.7336 141.064 53.4618C140.781 53.1902 140.632 52.8024 140.632 52.336H140.432C140.432 52.8456 140.596 53.2898 140.926 53.6062C141.256 53.9224 141.741 54.1 142.364 54.1V53.9ZM140.632 52.336V49.776H140.432V52.336H140.632ZM150.485 49.776H150.585V49.676H150.485V49.776ZM150.485 50.592V50.692H150.585V50.592H150.485ZM148.453 54V54.1H148.553V54H148.453ZM147.605 54H147.505V54.1H147.605V54ZM148.749 49.876H150.485V49.676H148.749V49.876ZM150.385 49.776V50.592H150.585V49.776H150.385ZM150.485 50.492H148.997V50.692H150.485V50.492ZM148.997 50.492C148.796 50.492 148.629 50.5391 148.513 50.6557C148.398 50.772 148.353 50.9388 148.353 51.136H148.553C148.553 50.9652 148.593 50.8599 148.656 50.7963C148.718 50.7329 148.823 50.692 148.997 50.692V50.492ZM148.353 51.136V54H148.553V51.136H148.353ZM148.453 53.9H147.605V54.1H148.453V53.9ZM147.705 54V51.008H147.505V54H147.705ZM147.705 51.008C147.705 50.5924 147.783 50.3153 147.94 50.1409C148.095 49.9691 148.347 49.876 148.749 49.876V49.676C148.32 49.676 148 49.7749 147.791 50.0071C147.584 50.2367 147.505 50.5756 147.505 51.008H147.705ZM157.221 54V54.1H157.321V54H157.221ZM156.365 54H156.265V54.1H156.365V54ZM153.605 54V54.1H153.705V54H153.605ZM152.757 54H152.657V54.1H152.757V54ZM153.349 49.876H155.093V49.676H153.349V49.876ZM155.093 49.876C155.794 49.876 156.299 50.0427 156.627 50.3365C156.953 50.6286 157.121 51.0602 157.121 51.624H157.321C157.321 51.0198 157.14 50.5274 156.76 50.1875C156.382 49.8493 155.823 49.676 155.093 49.676V49.876ZM157.121 51.624V54H157.321V51.624H157.121ZM157.221 53.9H156.365V54.1H157.221V53.9ZM156.465 54V51.624H156.265V54H156.465ZM156.465 51.624C156.465 51.2724 156.362 50.9822 156.126 50.7826C155.893 50.5859 155.548 50.492 155.093 50.492V50.692C155.525 50.692 155.816 50.7821 155.997 50.9354C156.175 51.0858 156.265 51.3116 156.265 51.624H156.465ZM155.093 50.492H153.709V50.692H155.093V50.492ZM153.709 50.492C153.654 50.492 153.595 50.5077 153.553 50.5572C153.514 50.6033 153.505 50.6615 153.505 50.712H153.705C153.705 50.6983 153.706 50.6901 153.707 50.686C153.708 50.6822 153.708 50.6836 153.706 50.6868C153.704 50.6883 153.703 50.6898 153.701 50.691C153.699 50.6922 153.698 50.6927 153.698 50.6929C153.697 50.6933 153.7 50.692 153.709 50.692V50.492ZM153.505 50.712V54H153.705V50.712H153.505ZM153.605 53.9H152.757V54.1H153.605V53.9ZM152.857 54V50.432H152.657V54H152.857ZM152.857 50.432C152.857 50.1901 152.899 50.0592 152.967 49.9862C153.033 49.9152 153.145 49.876 153.349 49.876V49.676C153.128 49.676 152.944 49.7168 152.82 49.8498C152.698 49.9808 152.657 50.1779 152.657 50.432H152.857ZM160.589 52.288V52.188H160.489V52.288H160.589ZM163.821 53.176H163.921V53.076H163.821V53.176ZM163.821 54V54.1H163.921V54H163.821ZM160.589 51.624H160.489V51.724H160.589V51.624ZM161.237 49.876H162.605V49.676H161.237V49.876ZM162.605 49.876C163.09 49.876 163.417 49.9926 163.623 50.1901C163.827 50.3869 163.929 50.6804 163.929 51.072H164.129C164.129 50.6476 164.018 50.2931 163.761 50.0459C163.505 49.7994 163.119 49.676 162.605 49.676V49.876ZM163.929 51.072C163.929 51.4442 163.835 51.7159 163.636 51.897C163.434 52.08 163.105 52.188 162.597 52.188V52.388C163.128 52.388 163.516 52.276 163.77 52.045C164.027 51.8121 164.129 51.4758 164.129 51.072H163.929ZM162.597 52.188H160.589V52.388H162.597V52.188ZM160.489 52.288V52.592H160.689V52.288H160.489ZM160.489 52.592C160.489 52.7775 160.54 52.9524 160.668 53.0807C160.797 53.2091 160.988 53.276 161.237 53.276V53.076C161.022 53.076 160.889 53.0189 160.81 52.9393C160.73 52.8596 160.689 52.7425 160.689 52.592H160.489ZM161.237 53.276H163.821V53.076H161.237V53.276ZM163.721 53.176V54H163.921V53.176H163.721ZM163.821 53.9H161.237V54.1H163.821V53.9ZM161.237 53.9C160.727 53.9 160.389 53.7576 160.177 53.5351C159.965 53.3115 159.865 52.9918 159.865 52.608H159.665C159.665 53.0242 159.773 53.4005 160.032 53.6729C160.293 53.9464 160.69 54.1 161.237 54.1V53.9ZM159.865 52.608V51.168H159.665V52.608H159.865ZM159.865 51.168C159.865 50.7842 159.965 50.4645 160.177 50.2409C160.389 50.0184 160.727 49.876 161.237 49.876V49.676C160.69 49.676 160.293 49.8296 160.032 50.1031C159.773 50.3755 159.665 50.7518 159.665 51.168H159.865ZM160.489 51.176V51.624H160.689V51.176H160.489ZM160.589 51.724H162.573V51.524H160.589V51.724ZM162.573 51.724C162.812 51.724 162.997 51.674 163.122 51.5641C163.25 51.4518 163.297 51.2936 163.297 51.12H163.097C163.097 51.2584 163.06 51.3522 162.99 51.4139C162.917 51.478 162.789 51.524 162.573 51.524V51.724ZM163.297 51.12C163.297 50.941 163.245 50.7792 163.121 50.6631C162.999 50.5479 162.82 50.492 162.597 50.492V50.692C162.789 50.692 162.911 50.7401 162.984 50.8089C163.057 50.8768 163.097 50.979 163.097 51.12H163.297ZM162.597 50.492H161.237V50.692H162.597V50.492ZM161.237 50.492C160.987 50.492 160.796 50.5613 160.668 50.6906C160.54 50.8195 160.489 50.994 160.489 51.176H160.689C160.689 51.03 160.73 50.9125 160.81 50.8314C160.89 50.7507 161.023 50.692 161.237 50.692V50.492ZM170.024 49.776V49.676H169.958L169.932 49.7364L170.024 49.776ZM170.928 49.776L171.019 49.8155L171.079 49.676H170.928V49.776ZM168.384 55.696V55.796H168.449L168.475 55.7355L168.384 55.696ZM167.472 55.696L167.38 55.6566L167.32 55.796H167.472V55.696ZM168.264 53.848L168.355 53.8874L168.415 53.748H168.264V53.848ZM167.472 53.328L167.565 53.2916L167.564 53.291L167.472 53.328ZM166.056 49.776V49.676H165.908L165.963 49.813L166.056 49.776ZM166.952 49.776L167.044 49.7385L167.019 49.676H166.952V49.776ZM168.224 52.92L168.317 52.8854L168.316 52.8825L168.224 52.92ZM168.592 53.096V53.196H168.657L168.683 53.1356L168.592 53.096ZM170.024 49.876H170.928V49.676H170.024V49.876ZM170.836 49.7365L168.292 55.6565L168.475 55.7355L171.019 49.8155L170.836 49.7365ZM168.384 55.596H167.472V55.796H168.384V55.596ZM167.563 55.7354L168.355 53.8874L168.172 53.8086L167.38 55.6566L167.563 55.7354ZM168.264 53.748C168.032 53.748 167.894 53.711 167.799 53.6441C167.703 53.5771 167.634 53.4696 167.565 53.2916L167.378 53.3644C167.453 53.5544 167.54 53.7069 167.684 53.8079C167.829 53.909 168.015 53.948 168.264 53.948V53.748ZM167.564 53.291L166.148 49.739L165.963 49.813L167.379 53.365L167.564 53.291ZM166.056 49.876H166.952V49.676H166.056V49.876ZM166.859 49.8135L168.131 52.9575L168.316 52.8825L167.044 49.7385L166.859 49.8135ZM168.13 52.9546C168.158 53.0305 168.19 53.1032 168.257 53.1479C168.322 53.1919 168.401 53.196 168.48 53.196V52.996C168.398 52.996 168.377 52.9881 168.369 52.9821C168.361 52.9768 168.345 52.9615 168.317 52.8854L168.13 52.9546ZM168.48 53.196H168.592V52.996H168.48V53.196ZM168.683 53.1356L170.115 49.8156L169.932 49.7364L168.5 53.0564L168.683 53.1356Z" fill="#56525E"/>
<path d="M88.2681 5.26633L71.5637 6.37526C70.7038 6.43228 70.2306 7.37474 70.7106 8.07209L80.0476 21.6212C80.5283 22.3186 81.6026 22.2472 81.9811 21.4928L89.3478 6.83471C89.7283 6.081 89.1279 5.20931 88.2681 5.26633Z" fill="url(#paint0_linear_333_1839)"/>
<path d="M70.6453 39.9964C77.258 39.9964 81.2029 33.1452 77.5345 28.0307L73.2834 22.1035L50.521 39.9964H70.6453Z" fill="url(#paint1_linear_333_1839)"/>
<path d="M26.5129 13.0983C27.7662 13.1195 28.9286 13.7424 29.6236 14.7645L44.0863 36.058L68.4138 15.9062L60.002 3.54683C57.1558 -0.635025 51.1158 -1.22051 47.4882 2.33288L44.8627 4.90465C41.6878 8.01457 36.5399 8.01457 33.3644 4.90465L30.7389 2.33288C27.1113 -1.22051 21.0712 -0.635025 18.2251 3.54683L1.37916 28.2991C-1.54962 32.6024 0.463523 38.0936 4.80965 39.9958L23.3463 14.6573C24.0763 13.6595 25.2768 13.0803 26.5129 13.0983Z" fill="url(#paint2_linear_333_1839)"/>
<path d="M13.6831 39.9964H37.8911L26.2362 22.1035L13.6831 39.9964Z" fill="url(#paint3_linear_333_1839)"/>
<path d="M104.69 4.56578C104.93 5.00578 105.203 5.55245 105.51 6.20578C105.83 6.84578 106.156 7.54578 106.49 8.30578C106.836 9.05245 107.176 9.81911 107.51 10.6058C107.843 11.3924 108.156 12.1324 108.45 12.8258C108.743 12.1324 109.056 11.3924 109.39 10.6058C109.723 9.81911 110.056 9.05245 110.39 8.30578C110.736 7.54578 111.063 6.84578 111.37 6.20578C111.69 5.55245 111.97 5.00578 112.21 4.56578H115.05C115.183 5.48578 115.303 6.51911 115.41 7.66578C115.53 8.79911 115.63 9.98578 115.71 11.2258C115.803 12.4524 115.883 13.6858 115.95 14.9258C116.03 16.1658 116.096 17.3324 116.15 18.4258H113.11C113.07 17.0791 113.016 15.6124 112.95 14.0258C112.883 12.4391 112.783 10.8391 112.65 9.22578C112.41 9.78578 112.143 10.4058 111.85 11.0858C111.556 11.7658 111.263 12.4458 110.97 13.1258C110.69 13.8058 110.416 14.4591 110.15 15.0858C109.883 15.6991 109.656 16.2258 109.47 16.6658H107.29C107.103 16.2258 106.876 15.6991 106.61 15.0858C106.343 14.4591 106.063 13.8058 105.77 13.1258C105.49 12.4458 105.203 11.7658 104.91 11.0858C104.616 10.4058 104.35 9.78578 104.11 9.22578C103.976 10.8391 103.876 12.4391 103.81 14.0258C103.743 15.6124 103.69 17.0791 103.65 18.4258H100.61C100.663 17.3324 100.723 16.1658 100.79 14.9258C100.87 13.6858 100.95 12.4524 101.03 11.2258C101.123 9.98578 101.223 8.79911 101.33 7.66578C101.45 6.51911 101.576 5.48578 101.71 4.56578H104.69ZM101.01 37.4258V23.5658H110.29V26.1858H104.13V29.0858H109.61V31.7058H104.13V37.4258H101.01Z" fill="#503892"/>
<path d="M122.779 16.3458C123.072 16.3458 123.352 16.3391 123.619 16.3258C123.886 16.3124 124.099 16.2924 124.259 16.2658V14.0058C124.139 13.9791 123.959 13.9524 123.719 13.9258C123.479 13.8991 123.259 13.8858 123.059 13.8858C122.779 13.8858 122.512 13.9058 122.259 13.9458C122.019 13.9724 121.806 14.0324 121.619 14.1258C121.432 14.2191 121.286 14.3458 121.179 14.5058C121.072 14.6658 121.019 14.8658 121.019 15.1058C121.019 15.5724 121.172 15.8991 121.479 16.0858C121.799 16.2591 122.232 16.3458 122.779 16.3458ZM122.539 7.62578C123.419 7.62578 124.152 7.72578 124.739 7.92578C125.326 8.12578 125.792 8.41245 126.139 8.78578C126.499 9.15911 126.752 9.61245 126.899 10.1458C127.046 10.6791 127.119 11.2724 127.119 11.9258V18.1258C126.692 18.2191 126.099 18.3258 125.339 18.4458C124.579 18.5791 123.659 18.6458 122.579 18.6458C121.899 18.6458 121.279 18.5858 120.719 18.4658C120.172 18.3458 119.699 18.1524 119.299 17.8858C118.899 17.6058 118.592 17.2458 118.379 16.8058C118.166 16.3658 118.059 15.8258 118.059 15.1858C118.059 14.5724 118.179 14.0524 118.419 13.6258C118.672 13.1991 119.006 12.8591 119.419 12.6058C119.832 12.3524 120.306 12.1724 120.839 12.0658C121.372 11.9458 121.926 11.8858 122.499 11.8858C122.886 11.8858 123.226 11.9058 123.519 11.9458C123.826 11.9724 124.072 12.0124 124.259 12.0658V11.7858C124.259 11.2791 124.106 10.8724 123.799 10.5658C123.492 10.2591 122.959 10.1058 122.199 10.1058C121.692 10.1058 121.192 10.1458 120.699 10.2258C120.206 10.2924 119.779 10.3924 119.419 10.5258L119.039 8.12578C119.212 8.07245 119.426 8.01911 119.679 7.96578C119.946 7.89911 120.232 7.84578 120.539 7.80578C120.846 7.75245 121.166 7.71245 121.499 7.68578C121.846 7.64578 122.192 7.62578 122.539 7.62578ZM137.714 9.90578C137.474 10.1724 137.147 10.5324 136.734 10.9858C136.334 11.4391 135.9 11.9391 135.434 12.4858C134.967 13.0324 134.494 13.6058 134.014 14.2058C133.547 14.8058 133.12 15.3858 132.734 15.9458H137.814V18.4258H129.114V16.6658C129.394 16.1858 129.727 15.6724 130.114 15.1258C130.514 14.5658 130.927 14.0058 131.354 13.4458C131.794 12.8858 132.227 12.3458 132.654 11.8258C133.08 11.2924 133.474 10.8124 133.834 10.3858H129.354V7.90578H137.714V9.90578ZM142.794 18.4258H139.814V7.90578H142.794V18.4258ZM143.074 4.86578C143.074 5.41245 142.894 5.84578 142.534 6.16578C142.187 6.47245 141.774 6.62578 141.294 6.62578C140.814 6.62578 140.394 6.47245 140.034 6.16578C139.687 5.84578 139.514 5.41245 139.514 4.86578C139.514 4.31911 139.687 3.89245 140.034 3.58578C140.394 3.26578 140.814 3.10578 141.294 3.10578C141.774 3.10578 142.187 3.26578 142.534 3.58578C142.894 3.89245 143.074 4.31911 143.074 4.86578Z" fill="#7C74D8"/>
<path d="M115.274 37.4258H112.294V26.9058H115.274V37.4258ZM115.554 23.8658C115.554 24.4124 115.374 24.8458 115.014 25.1658C114.667 25.4724 114.254 25.6258 113.774 25.6258C113.294 25.6258 112.874 25.4724 112.514 25.1658C112.167 24.8458 111.994 24.4124 111.994 23.8658C111.994 23.3191 112.167 22.8924 112.514 22.5858C112.874 22.2658 113.294 22.1058 113.774 22.1058C114.254 22.1058 114.667 22.2658 115.014 22.5858C115.374 22.8924 115.554 23.3191 115.554 23.8658ZM118.075 27.2658C118.582 27.1191 119.235 26.9858 120.035 26.8658C120.835 26.7324 121.675 26.6658 122.555 26.6658C123.449 26.6658 124.189 26.7858 124.775 27.0258C125.375 27.2524 125.849 27.5791 126.195 28.0058C126.542 28.4324 126.789 28.9391 126.935 29.5258C127.082 30.1124 127.155 30.7658 127.155 31.4858V37.4258H124.175V31.8458C124.175 30.8858 124.049 30.2058 123.795 29.8058C123.542 29.4058 123.069 29.2058 122.375 29.2058C122.162 29.2058 121.935 29.2191 121.695 29.2458C121.455 29.2591 121.242 29.2791 121.055 29.3058V37.4258H118.075V27.2658ZM133.873 35.3458C134.166 35.3458 134.446 35.3391 134.713 35.3258C134.979 35.3124 135.193 35.2924 135.353 35.2658V33.0058C135.233 32.9791 135.053 32.9524 134.813 32.9258C134.573 32.8991 134.353 32.8858 134.153 32.8858C133.873 32.8858 133.606 32.9058 133.353 32.9458C133.113 32.9724 132.899 33.0324 132.713 33.1258C132.526 33.2191 132.379 33.3458 132.273 33.5058C132.166 33.6658 132.113 33.8658 132.113 34.1058C132.113 34.5724 132.266 34.8991 132.573 35.0858C132.893 35.2591 133.326 35.3458 133.873 35.3458ZM133.633 26.6258C134.513 26.6258 135.246 26.7258 135.833 26.9258C136.419 27.1258 136.886 27.4124 137.233 27.7858C137.593 28.1591 137.846 28.6124 137.993 29.1458C138.139 29.6791 138.213 30.2724 138.213 30.9258V37.1258C137.786 37.2191 137.193 37.3258 136.433 37.4458C135.673 37.5791 134.753 37.6458 133.673 37.6458C132.993 37.6458 132.373 37.5858 131.813 37.4658C131.266 37.3458 130.793 37.1524 130.393 36.8858C129.993 36.6058 129.686 36.2458 129.473 35.8058C129.259 35.3658 129.153 34.8258 129.153 34.1858C129.153 33.5724 129.273 33.0524 129.513 32.6258C129.766 32.1991 130.099 31.8591 130.513 31.6058C130.926 31.3524 131.399 31.1724 131.933 31.0658C132.466 30.9458 133.019 30.8858 133.593 30.8858C133.979 30.8858 134.319 30.9058 134.613 30.9458C134.919 30.9724 135.166 31.0124 135.353 31.0658V30.7858C135.353 30.2791 135.199 29.8724 134.893 29.5658C134.586 29.2591 134.053 29.1058 133.293 29.1058C132.786 29.1058 132.286 29.1458 131.793 29.2258C131.299 29.2924 130.873 29.3924 130.513 29.5258L130.133 27.1258C130.306 27.0724 130.519 27.0191 130.773 26.9658C131.039 26.8991 131.326 26.8458 131.633 26.8058C131.939 26.7524 132.259 26.7124 132.593 26.6858C132.939 26.6458 133.286 26.6258 133.633 26.6258ZM140.907 27.2658C141.414 27.1191 142.067 26.9858 142.867 26.8658C143.667 26.7324 144.507 26.6658 145.387 26.6658C146.281 26.6658 147.021 26.7858 147.607 27.0258C148.207 27.2524 148.681 27.5791 149.027 28.0058C149.374 28.4324 149.621 28.9391 149.767 29.5258C149.914 30.1124 149.987 30.7658 149.987 31.4858V37.4258H147.007V31.8458C147.007 30.8858 146.881 30.2058 146.627 29.8058C146.374 29.4058 145.901 29.2058 145.207 29.2058C144.994 29.2058 144.767 29.2191 144.527 29.2458C144.287 29.2591 144.074 29.2791 143.887 29.3058V37.4258H140.907V27.2658ZM152.185 32.1658C152.185 31.4058 152.305 30.6924 152.545 30.0258C152.798 29.3458 153.158 28.7591 153.625 28.2658C154.091 27.7591 154.658 27.3591 155.325 27.0658C155.991 26.7724 156.751 26.6258 157.605 26.6258C158.165 26.6258 158.678 26.6791 159.145 26.7858C159.611 26.8791 160.065 27.0191 160.505 27.2058L159.885 29.5858C159.605 29.4791 159.298 29.3858 158.965 29.3058C158.631 29.2258 158.258 29.1858 157.845 29.1858C156.965 29.1858 156.305 29.4591 155.865 30.0058C155.438 30.5524 155.225 31.2724 155.225 32.1658C155.225 33.1124 155.425 33.8458 155.825 34.3658C156.238 34.8858 156.951 35.1458 157.965 35.1458C158.325 35.1458 158.711 35.1124 159.125 35.0458C159.538 34.9791 159.918 34.8724 160.265 34.7258L160.685 37.1658C160.338 37.3124 159.905 37.4391 159.385 37.5458C158.865 37.6524 158.291 37.7058 157.665 37.7058C156.705 37.7058 155.878 37.5658 155.185 37.2858C154.491 36.9924 153.918 36.5991 153.465 36.1058C153.025 35.6124 152.698 35.0324 152.485 34.3658C152.285 33.6858 152.185 32.9524 152.185 32.1658ZM161.677 32.2458C161.677 31.3124 161.817 30.4991 162.097 29.8058C162.39 29.0991 162.77 28.5124 163.237 28.0458C163.704 27.5791 164.237 27.2258 164.837 26.9858C165.45 26.7458 166.077 26.6258 166.717 26.6258C168.21 26.6258 169.39 27.0858 170.257 28.0058C171.124 28.9124 171.557 30.2524 171.557 32.0258C171.557 32.1991 171.55 32.3924 171.537 32.6058C171.524 32.8058 171.51 32.9858 171.497 33.1458H164.737C164.804 33.7591 165.09 34.2458 165.597 34.6058C166.104 34.9658 166.784 35.1458 167.637 35.1458C168.184 35.1458 168.717 35.0991 169.237 35.0058C169.77 34.8991 170.204 34.7724 170.537 34.6258L170.937 37.0458C170.777 37.1258 170.564 37.2058 170.297 37.2858C170.03 37.3658 169.73 37.4324 169.397 37.4858C169.077 37.5524 168.73 37.6058 168.357 37.6458C167.984 37.6858 167.61 37.7058 167.237 37.7058C166.29 37.7058 165.464 37.5658 164.757 37.2858C164.064 37.0058 163.484 36.6258 163.017 36.1458C162.564 35.6524 162.224 35.0724 161.997 34.4058C161.784 33.7391 161.677 33.0191 161.677 32.2458ZM168.677 31.1058C168.664 30.8524 168.617 30.6058 168.537 30.3658C168.47 30.1258 168.357 29.9124 168.197 29.7258C168.05 29.5391 167.857 29.3858 167.617 29.2658C167.39 29.1458 167.104 29.0858 166.757 29.0858C166.424 29.0858 166.137 29.1458 165.897 29.2658C165.657 29.3724 165.457 29.5191 165.297 29.7058C165.137 29.8924 165.01 30.1124 164.917 30.3658C164.837 30.6058 164.777 30.8524 164.737 31.1058H168.677Z" fill="#7773D4"/>
<defs>
<linearGradient id="paint0_linear_333_1839" x1="88.867" y1="4.40385" x2="68.0031" y2="17.9916" gradientUnits="userSpaceOnUse">
<stop stop-color="#4E3690"/>
<stop offset="1" stop-color="#896ACC"/>
</linearGradient>
<linearGradient id="paint1_linear_333_1839" x1="77.5546" y1="23.7065" x2="52.2705" y2="42.2823" gradientUnits="userSpaceOnUse">
<stop stop-color="#7171CF"/>
<stop offset="1" stop-color="#8876E2"/>
</linearGradient>
<linearGradient id="paint2_linear_333_1839" x1="70.2629" y1="4.04856" x2="0.694363" y2="43.5763" gradientUnits="userSpaceOnUse">
<stop stop-color="#462F87"/>
<stop offset="1" stop-color="#8F70D3"/>
</linearGradient>
<linearGradient id="paint3_linear_333_1839" x1="32.0033" y1="26.9431" x2="12.7637" y2="41.07" gradientUnits="userSpaceOnUse">
<stop stop-color="#6D70CB"/>
<stop offset="1" stop-color="#8C76E6"/>
</linearGradient>
</defs>
</svg>
